<?xml version="1.0" encoding="UTF-8"?>
<svg version="1.1" xmlns="http://www.w3.org/2000/svg" width="1076" height="139">
<path d="M0 0 C20.79 0 41.58 0 63 0 C63 27.39 63 54.78 63 83 C65.97 83 68.94 83 72 83 C72 55.61 72 28.22 72 0 C82.89 0 93.78 0 105 0 C105 37.95 105 75.9 105 115 C87.51 115 70.02 115 52 115 C52 104.77 52 94.54 52 84 C48.7 84 45.4 84 42 84 C42 94.23 42 104.46 42 115 C28.47 115 14.94 115 1 115 C1 121.93 1 128.86 1 136 C-33.98 136 -68.96 136 -105 136 C-105 97.72 -105 59.44 -105 20 C-70.35 20 -35.7 20 0 20 C0 13.4 0 6.8 0 0 Z M-72 84 C-72 86.97 -72 89.94 -72 93 C-48.24 93 -24.48 93 0 93 C0 90.03 0 87.06 0 84 C-23.76 84 -47.52 84 -72 84 Z " fill="#000000" transform="translate(503,0)"/>
<path d="M0 0 C8.58 0 17.16 0 26 0 C32.40935951 7.73303159 32.40935951 7.73303159 33.8125 11.6484375 C36.2256265 17.78947603 39.46685366 23.35173444 42.75 29.0625 C43.94342409 31.19809238 45.13480872 33.33482565 46.32421875 35.47265625 C50.55348053 43.01867492 54.91046337 50.48832177 59.29394531 57.94555664 C59.83760742 58.87102295 60.38126953 59.79648926 60.94140625 60.75 C61.41263916 61.54921875 61.88387207 62.3484375 62.36938477 63.171875 C64.62707164 67.08758764 66.80491783 71.0488521 69 75 C69.33 50.25 69.66 25.5 70 0 C77.92 0 85.84 0 94 0 C94 38.28 94 76.56 94 116 C85.75 116 77.5 116 69 116 C62.2596291 105.88944365 62.2596291 105.88944365 59.625 101.05859375 C59.03936279 99.99237793 58.45372559 98.92616211 57.8503418 97.82763672 C57.239729 96.7088916 56.62911621 95.59014648 56 94.4375 C54.67677577 92.03055815 53.3490822 89.62610845 52.01953125 87.22265625 C51.68500443 86.61784424 51.3504776 86.01303223 51.0058136 85.38989258 C45.51510092 75.4910496 39.7453333 65.75236775 34 56 C30.7 50.39 27.4 44.78 24 39 C23.67 64.41 23.34 89.82 23 116 C15.41 116 7.82 116 0 116 C0 77.72 0 39.44 0 0 Z " fill="#000000" transform="translate(637,20)"/>
<path d="M0 0 C7.76190735 6.20358943 14.06606534 15.62348889 15.85546875 25.5078125 C15.85546875 27.8178125 15.85546875 30.1278125 15.85546875 32.5078125 C7.60546875 32.5078125 -0.64453125 32.5078125 -9.14453125 32.5078125 C-9.80453125 30.6515625 -10.46453125 28.7953125 -11.14453125 26.8828125 C-13.62172436 20.88800518 -16.42036983 17.53754647 -22.14453125 14.5078125 C-29.24992908 12.13934656 -37.79118768 12.40981329 -44.64453125 15.4453125 C-51.87475769 19.65997651 -55.18984861 26.50819746 -57.6015625 34.26953125 C-60.94097047 48.03557993 -60.17114802 62.87894632 -54.70703125 75.9453125 C-54.19140625 76.7909375 -53.67578125 77.6365625 -53.14453125 78.5078125 C-52.62890625 79.3534375 -52.11328125 80.1990625 -51.58203125 81.0703125 C-46.13893895 86.5134048 -40.18600602 88.82099625 -32.51953125 89.0703125 C-25.14826893 88.74944579 -20.69357417 86.94098983 -15.39453125 81.8828125 C-12.3998892 77.6419247 -12.3998892 77.6419247 -9.14453125 68.5078125 C-0.89453125 68.5078125 7.35546875 68.5078125 15.85546875 68.5078125 C14.48829429 79.44520816 11.14061315 88.19481356 3.85546875 96.5078125 C3.10523437 97.41466797 3.10523437 97.41466797 2.33984375 98.33984375 C-4.60705147 106.07922459 -15.05205606 110.76971055 -25.36889648 111.71069336 C-27.71513481 111.81094286 -30.04624486 111.83703138 -32.39453125 111.8203125 C-33.22791016 111.81467285 -34.06128906 111.8090332 -34.91992188 111.80322266 C-48.32910807 111.54095933 -59.96651918 107.65567656 -69.89453125 98.3828125 C-84.7290928 82.46020619 -86.0073715 64.38196175 -85.52734375 43.61328125 C-84.89175782 28.30125661 -80.01423003 14.87024937 -69.41015625 3.578125 C-50.75337155 -13.4703162 -20.55596373 -14.30305673 0 0 Z " fill="#000000" transform="translate(85.14453125,27.4921875)"/>
<path d="M0 0 C7.59 0 15.18 0 23 0 C23 38.28 23 76.56 23 116 C15.41 116 7.82 116 0 116 C-0.495 112.04 -0.495 112.04 -1 108 C-1.70125 108.7425 -2.4025 109.485 -3.125 110.25 C-9.81332957 116.64753263 -15.81248291 118.85306688 -24.9609375 119.0703125 C-33.8764314 118.68068937 -41.86440145 115.69905806 -48.5625 109.62890625 C-59.20507551 97.56924868 -61.65620528 83.83555707 -60.78515625 68.125 C-59.48501391 56.0398674 -55.86961875 44.68053773 -47 36 C-38.02166602 29.17822664 -29.15641793 27.01186013 -18 28 C-10.38945438 29.35025809 -7.12564798 32.64005802 -1 38 C-0.67 25.46 -0.34 12.92 0 0 Z M-31.625 54.4375 C-36.64009856 60.78152057 -37.64174244 70.17074222 -37 78 C-36.18009097 84.43400832 -34.38691949 90.09241078 -30 95 C-25.34148987 98.47430902 -20.81285057 99.83040722 -15 99 C-8.95508632 96.87118859 -5.02879723 94.03124645 -2.09765625 88.20703125 C1.38916197 79.64263441 1.48540273 69.1345328 -1.5625 60.4375 C-4.00116475 55.19305967 -7.84863386 51.57568307 -13 49 C-21.09753682 48.32194539 -25.60057806 48.84339391 -31.625 54.4375 Z " fill="#000000" transform="translate(260,20)"/>
<path d="M0 0 C9.58055487 7.04091966 14.1479857 17.7629142 16.0625 29.25 C16.0625 34.53 16.0625 39.81 16.0625 45.25 C-4.3975 45.25 -24.8575 45.25 -45.9375 45.25 C-42.73368841 55.90865303 -42.73368841 55.90865303 -35.12109375 62.20703125 C-29.70977449 64.52616807 -24.4586044 65.44511938 -18.796875 63.5234375 C-15.33577615 61.94671469 -13.37865834 61.0384532 -11.46875 57.625 C-7.84440236 54.22437752 -4.88161851 54.73785213 -0.0546875 54.81054688 C1.05648437 54.85244141 2.16765625 54.89433594 3.3125 54.9375 C4.43914062 54.96005859 5.56578125 54.98261719 6.7265625 55.00585938 C9.50655232 55.06475746 12.28385332 55.14695799 15.0625 55.25 C14.30946064 61.0674359 12.35393935 64.5240826 9.0625 69.25 C8.485 70.11625 7.9075 70.9825 7.3125 71.875 C-0.52865985 80.15177984 -10.76145969 83.69785182 -21.9453125 84.453125 C-35.68879965 84.65979398 -48.44140011 81.49750832 -58.8125 72 C-68.98750774 60.89777333 -69.69408043 46.71039742 -69.08544922 32.42724609 C-68.28316446 20.62068596 -64.21783999 10.97818899 -55.5625 2.875 C-40.02786187 -10.03150002 -17.06011845 -10.38935666 0 0 Z M-40.25 17.375 C-42.56217413 21.08650134 -42.56217413 21.08650134 -44.9375 29.25 C-32.7275 29.25 -20.5175 29.25 -7.9375 29.25 C-9.07477326 22.42636044 -10.46880335 19.15295367 -15.9375 14.9375 C-23.85774367 10.48236294 -33.45591598 11.13178765 -40.25 17.375 Z " fill="#000000" transform="translate(356.9375,54.75)"/>
<path d="M0 0 C4.93091812 4.3242056 6.91815999 8.52853539 8 15 C8.28001047 19.35867448 8.27709642 23.70767301 8.2734375 28.07421875 C8.29371218 30.62305138 8.31456267 33.17187948 8.3359375 35.72070312 C8.35859711 39.71692174 8.37588224 43.7129547 8.38085938 47.70922852 C8.39035944 51.58121575 8.42408904 55.45240888 8.4609375 59.32421875 C8.45336929 61.11807259 8.45336929 61.11807259 8.44564819 62.94816589 C8.51122943 70.77163604 8.51122943 70.77163604 13 77 C13 78.32 13 79.64 13 81 C4.42 81 -4.16 81 -13 81 C-13.66 78.36 -14.32 75.72 -15 73 C-15.556875 73.47050781 -16.11375 73.94101563 -16.6875 74.42578125 C-25.86644632 81.91468509 -34.47143619 84.82271744 -46.48828125 83.78515625 C-54.8315988 82.27211939 -61.20464167 77.9109576 -66 71 C-69.20931081 62.98802336 -69.32778856 53.7330572 -66.5 45.5625 C-63.17432801 38.53008943 -58.01273482 34.48218611 -50.8125 31.75 C-44.14965293 29.74517406 -37.28318771 28.91043409 -30.38598633 28.12597656 C-25.38768358 27.52237289 -21.31049715 26.81840199 -17 24 C-15.67091833 21.10927047 -15.67091833 21.10927047 -16 18 C-18.18432142 15.11357527 -19.55303594 14.14898802 -23 13 C-31.86649175 12.29836801 -31.86649175 12.29836801 -40 15 C-40.99 17.97 -41.98 20.94 -43 24 C-50.26 24 -57.52 24 -65 24 C-65 15.40276505 -63.7059528 10.34885271 -59.25 3.1875 C-45.01993385 -10.64728653 -16.08233957 -11.42981764 0 0 Z M-19.75 41.3125 C-23.69161676 42.66841617 -27.60224167 43.55607651 -31.6875 44.375 C-37.15473727 45.58354719 -40.20852249 46.89256603 -44 51 C-45.55024464 54.10048928 -45.28992015 56.57894218 -45 60 C-43.20437595 62.75329021 -41.94745078 64.52627461 -39 66 C-32.35375689 66.7832273 -27.15770642 66.4829981 -21.65625 62.4921875 C-17.74864992 58.97166101 -15.47512865 55.22641516 -15 50 C-14.93319082 46.66468013 -14.94171227 43.33535336 -15 40 C-16.5048659 39.9449416 -16.5048659 39.9449416 -19.75 41.3125 Z " fill="#000000" transform="translate(806,55)"/>
<path d="M0 0 C10.15530622 9.68659978 14.74476539 22.75662211 15.15234375 36.6328125 C14.72892546 50.00577338 11.21563195 62.12097416 2.02734375 72.0703125 C-7.82168884 81.20781802 -19.60364849 83.18209036 -32.62890625 82.94140625 C-45.04992537 82.09083646 -53.86333423 78.46984417 -62.47265625 69.5078125 C-72.11995073 58.05405252 -74.25598033 44.25872377 -73.22265625 29.6953125 C-71.3552469 17.7030431 -66.49669512 6.75232633 -57.22265625 -1.3046875 C-40.66094 -12.38537732 -15.78917676 -12.8509046 0 0 Z M-43.59765625 17.0703125 C-49.42362969 24.60144889 -49.92497065 33.45235329 -49.22265625 42.6953125 C-47.96304866 49.15080138 -46.03314229 55.86618134 -40.5390625 59.9453125 C-35.25791749 63.00561383 -30.22347914 63.50350414 -24.22265625 62.6953125 C-18.85246848 60.93967419 -15.24826681 57.38865418 -12.22265625 52.6953125 C-8.41109657 43.89242467 -8.59529088 30.7914203 -11.84765625 21.8203125 C-14.46562975 16.5290562 -17.78522165 13.76169014 -23.22265625 11.3828125 C-31.09072316 9.57971383 -38.12299451 10.94136191 -43.59765625 17.0703125 Z " fill="#000000" transform="translate(978.22265625,56.3046875)"/>
<path d="M0 0 C9.64822607 9.15943929 14.09556203 21.40007871 14.95703125 34.46875 C15.26885193 47.5101913 12.04567185 60.21285409 3.3359375 70.18359375 C-4.84446307 78.60657622 -13.76533318 82.14505773 -25.41796875 82.88671875 C-39.09602947 83.07691195 -50.18409938 81.17140424 -60.37890625 71.6796875 C-70.78802119 60.84412837 -73.71040757 48.08016052 -73.4765625 33.46484375 C-72.65714521 21.07115724 -68.14362008 9.78930542 -59.578125 0.7265625 C-43.79747783 -12.9832024 -16.14462323 -13.21223248 0 0 Z M-44.0390625 17.30859375 C-49.46224427 24.63721777 -50.07449929 33.89060536 -49.2265625 42.68359375 C-48.05042865 49.07483271 -45.94460237 55.05554374 -41.2265625 59.68359375 C-35.74961278 63.01272005 -30.47269949 63.41904272 -24.2265625 62.68359375 C-18.85637473 60.92795544 -15.25217306 57.37693543 -12.2265625 52.68359375 C-8.41500282 43.88070592 -8.59919713 30.77970155 -11.8515625 21.80859375 C-14.45970375 16.53720967 -17.7686544 13.78180801 -23.1640625 11.37109375 C-31.80955952 9.43026789 -37.68295649 11.37622814 -44.0390625 17.30859375 Z " fill="#000000" transform="translate(180.2265625,56.31640625)"/>
<path d="M0 0 C5.3023664 4.24950417 7.48288553 9.18849276 9.0625 15.6875 C9.30300903 19.07286072 9.30300903 19.07286072 9.28955078 22.63256836 C9.28984283 23.28707977 9.29013489 23.94159119 9.29043579 24.61593628 C9.28905594 26.75321276 9.27355936 28.8901291 9.2578125 31.02734375 C9.25407757 32.51949371 9.25123286 34.01164614 9.24923706 35.50379944 C9.24163839 39.41153863 9.22202274 43.31912672 9.1998291 47.22680664 C9.17928907 51.22214718 9.17021798 55.21751238 9.16015625 59.21289062 C9.13877287 67.03783694 9.10362194 74.86262796 9.0625 82.6875 C1.4725 82.6875 -6.1175 82.6875 -13.9375 82.6875 C-13.95208252 81.06851807 -13.96666504 79.44953613 -13.98168945 77.78149414 C-14.03986218 71.74855979 -14.11709457 65.71599127 -14.19995117 59.68334961 C-14.23311126 57.07729042 -14.26117065 54.47116096 -14.28393555 51.86499023 C-14.31764489 48.1089089 -14.36997112 44.35346645 -14.42578125 40.59765625 C-14.43217117 39.44104996 -14.4385611 38.28444366 -14.44514465 37.0927887 C-14.62917383 25.9882961 -14.62917383 25.9882961 -19.9375 16.625 C-25.94082727 14.74896023 -31.70692089 14.65187399 -37.4375 17.3125 C-41.77862174 21.43656566 -43.72090957 26.27460795 -44.09571838 32.18060303 C-44.11126266 33.11325989 -44.12680695 34.04591675 -44.14282227 35.00683594 C-44.16276749 36.06763367 -44.18271271 37.1284314 -44.20326233 38.22137451 C-44.22833107 39.92937225 -44.22833107 39.92937225 -44.25390625 41.671875 C-44.27468735 42.84260559 -44.29546844 44.01333618 -44.31687927 45.21954346 C-44.38225628 48.95880269 -44.44120491 52.69813205 -44.5 56.4375 C-44.54319647 58.9726635 -44.58681112 61.50781991 -44.63085938 64.04296875 C-44.73871234 70.25774166 -44.83787455 76.47256793 -44.9375 82.6875 C-52.5275 82.6875 -60.1175 82.6875 -67.9375 82.6875 C-67.9375 54.3075 -67.9375 25.9275 -67.9375 -3.3125 C-60.6775 -3.3125 -53.4175 -3.3125 -45.9375 -3.3125 C-45.6075 -0.0125 -45.2775 3.2875 -44.9375 6.6875 C-43.4215625 4.8003125 -43.4215625 4.8003125 -41.875 2.875 C-31.92755738 -8.49924752 -12.10319952 -7.99998262 0 0 Z " fill="#000000" transform="translate(1066.9375,53.3125)"/>
<path d="M0 0 C7.59 0 15.18 0 23 0 C23 7.92 23 15.84 23 24 C27.62 24 32.24 24 37 24 C37 29.61 37 35.22 37 41 C32.38 41 27.76 41 23 41 C23.11790466 47.9601663 23.24212699 54.92017954 23.37231445 61.88012695 C23.4157381 64.24988708 23.45740749 66.61968 23.49731445 68.98950195 C23.55483768 72.38763333 23.61858303 75.78559843 23.68359375 79.18359375 C23.70030624 80.25024765 23.71701874 81.31690155 23.73423767 82.4158783 C23.7641555 83.88729027 23.7641555 83.88729027 23.79467773 85.38842773 C23.81799416 86.69081642 23.81799416 86.69081642 23.84178162 88.01951599 C23.78462425 90.00080779 23.78462425 90.00080779 25 91 C27.01594582 91.23427778 29.038474 91.41336124 31.0625 91.5625 C33.021875 91.706875 34.98125 91.85125 37 92 C37 97.94 37 103.88 37 110 C33.33287956 110.08142455 29.66759252 110.14070811 26 110.1875 C24.97003906 110.21263672 23.94007813 110.23777344 22.87890625 110.26367188 C15.10612944 110.33793407 9.18715479 109.71247216 3.0625 104.5 C-0.01269886 100.77248623 -0.12367185 98.01272425 -0.11352539 93.33520508 C-0.11344986 92.17422806 -0.11337433 91.01325104 -0.11329651 89.8170929 C-0.10813522 88.56389755 -0.10297394 87.31070221 -0.09765625 86.01953125 C-0.0962413 84.73640549 -0.09482635 83.45327972 -0.09336853 82.13127136 C-0.08955405 78.72329759 -0.07973291 75.31536657 -0.06866455 71.90740967 C-0.05842743 68.42851337 -0.05386598 64.94961015 -0.04882812 61.47070312 C-0.03810967 54.64711611 -0.02052152 47.82356451 0 41 C-3.96 41 -7.92 41 -12 41 C-12 35.39 -12 29.78 -12 24 C-8.04 24 -4.08 24 0 24 C0 16.08 0 8.16 0 0 Z " fill="#000000" transform="translate(830,27)"/>
<path d="M0 0 C7.92 0 15.84 0 24 0 C24 28.38 24 56.76 24 86 C16.08 86 8.16 86 0 86 C0 57.62 0 29.24 0 0 Z " fill="#000000" transform="translate(875,50)"/>
<path d="M0 0 C7.92 0 15.84 0 24 0 C24 6.93 24 13.86 24 21 C16.08 21 8.16 21 0 21 C0 14.07 0 7.14 0 0 Z " fill="#000000" transform="translate(875,20)"/>
</svg>
