<svg width="281" height="200" viewBox="0 0 281 200" fill="none" xmlns="http://www.w3.org/2000/svg">
<path d="M72.2962 106.602L78.6602 100.238M86.6742 97.4081L84.7692 103.124C84.7386 103.215 84.6865 103.298 84.6173 103.365C84.548 103.432 84.4636 103.482 84.3712 103.509L72.6932 106.981C72.588 107.012 72.4762 107.014 72.3701 106.986C72.2639 106.958 72.1674 106.902 72.0911 106.823C72.0148 106.744 71.9616 106.646 71.9373 106.539C71.913 106.432 71.9185 106.32 71.9532 106.216L75.7452 94.8421C75.7724 94.7604 75.8168 94.6855 75.8755 94.6226C75.9341 94.5596 76.0056 94.51 76.0852 94.4771L81.4722 92.2591C81.5817 92.2138 81.7022 92.202 81.8184 92.2252C81.9346 92.2483 82.0413 92.3053 82.1252 92.3891L86.5292 96.7941C86.608 96.8728 86.6633 96.972 86.6889 97.0805C86.7145 97.1889 86.7094 97.3023 86.6742 97.4081Z" stroke="black" stroke-width="1.5" stroke-linecap="round" stroke-linejoin="round"/>
<path d="M87.4034 89.1821L89.7674 91.5461C89.9451 91.716 90.087 91.9198 90.1848 92.1453C90.2826 92.3709 90.3344 92.6137 90.3372 92.8595C90.3399 93.1054 90.2935 93.3493 90.2006 93.5769C90.1078 93.8046 89.9704 94.0114 89.7966 94.1852C89.6227 94.3591 89.4159 94.4965 89.1883 94.5893C88.9606 94.6821 88.7167 94.7285 88.4709 94.7258C88.225 94.7231 87.9822 94.6713 87.7567 94.5735C87.5311 94.4756 87.3274 94.3337 87.1574 94.1561L84.7924 91.7921C84.4588 91.4434 84.2751 90.978 84.2804 90.4955C84.2857 90.013 84.4798 89.5518 84.821 89.2106C85.1621 88.8694 85.6234 88.6754 86.1059 88.67C86.5884 88.6647 87.0548 88.8485 87.4034 89.1821Z" fill="black" stroke="black" stroke-width="1.5" stroke-linecap="round" stroke-linejoin="round"/>
<path d="M80.7811 98.1161C80.6427 97.9729 80.4772 97.8586 80.2942 97.78C80.1112 97.7014 79.9144 97.66 79.7152 97.6583C79.516 97.6565 79.3185 97.6945 79.1341 97.7699C78.9498 97.8453 78.7823 97.9567 78.6415 98.0975C78.5006 98.2384 78.3893 98.4059 78.3138 98.5902C78.2384 98.7745 78.2005 98.9721 78.2022 99.1712C78.2039 99.3704 78.2453 99.5672 78.3239 99.7502C78.4025 99.9332 78.5168 100.099 78.6601 100.237C78.943 100.51 79.3219 100.662 79.7152 100.658C80.1085 100.655 80.4847 100.497 80.7628 100.219C81.0409 99.9408 81.1987 99.5645 81.2021 99.1712C81.2055 98.7779 81.0543 98.399 80.7811 98.1161Z" stroke="black" stroke-width="1.5" stroke-linecap="round" stroke-linejoin="round"/>
<circle cx="35" cy="142" r="34.5" stroke="#C6CCED"/>
<path fill-rule="evenodd" clip-rule="evenodd" d="M31.667 139.417C31.3278 139.417 30.9919 139.484 30.6786 139.614C30.3652 139.743 30.0804 139.934 29.8406 140.174C29.6007 140.413 29.4105 140.698 29.2807 141.012C29.1508 141.325 29.084 141.661 29.084 142C29.084 142.339 29.1508 142.675 29.2807 142.988C29.4105 143.302 29.6007 143.587 29.8406 143.826C30.0804 144.066 30.3652 144.257 30.6786 144.386C30.9919 144.516 31.3278 144.583 31.667 144.583H34.25V142.052C34.2496 142.017 34.2496 141.983 34.25 141.948V139.417H31.667ZM34.25 137.917H31.667C30.9818 137.917 30.3247 137.645 29.8402 137.16C29.3557 136.676 29.0835 136.019 29.0835 135.333C29.0835 134.648 29.3557 133.991 29.8402 133.507C30.3247 133.022 30.9818 132.75 31.667 132.75H34.25V137.917ZM35.75 132.75V137.917H38.333C39.0094 137.904 39.6536 137.626 40.1272 137.143C40.6009 136.66 40.8662 136.01 40.8662 135.333C40.8662 134.657 40.6009 134.007 40.1272 133.524C39.6536 133.041 39.0094 132.763 38.333 132.75H35.75ZM38.333 139.416C37.655 139.416 37.0042 139.682 36.5209 140.158C36.0377 140.634 35.7608 141.28 35.75 141.958V142.041C35.7583 142.55 35.9168 143.045 36.2056 143.464C36.4944 143.884 36.9007 144.208 37.3733 144.397C37.846 144.586 38.3639 144.632 38.8622 144.527C39.3605 144.423 39.8168 144.174 40.1738 143.811C40.5309 143.448 40.7727 142.988 40.869 142.488C40.9654 141.988 40.9118 141.471 40.7151 141.001C40.5185 140.532 40.1874 140.131 39.7636 139.849C39.3398 139.567 38.8421 139.416 38.333 139.416ZM31.667 146.083C31.1559 146.083 30.6562 146.234 30.2312 146.518C29.8061 146.802 29.4747 147.205 29.279 147.677C29.0833 148.15 29.032 148.669 29.1316 149.17C29.2312 149.672 29.4772 150.132 29.8385 150.494C30.1999 150.855 30.6603 151.101 31.1616 151.201C31.6628 151.301 32.1824 151.25 32.6547 151.054C33.1269 150.859 33.5305 150.528 33.8145 150.103C34.0985 149.678 34.25 149.178 34.25 148.667V146.083H31.667Z" fill="black"/>
<circle cx="35" cy="142" r="24" stroke="#C6CCED" stroke-width="2"/>
<g clip-path="url(#clip0_301_170)">
<path fill-rule="evenodd" clip-rule="evenodd" d="M246 153C239.376 153 234 158.376 234 165C234 171.624 239.376 177 246 177C252.612 177 258 171.624 258 165C258 158.376 252.612 153 246 153ZM253.926 158.532C255.403 160.331 256.221 162.581 256.244 164.909C255.905 164.844 252.521 164.154 249.111 164.583C249.033 164.415 248.967 164.232 248.889 164.051C248.68 163.556 248.447 163.048 248.213 162.565C251.987 161.031 253.705 158.819 253.927 158.531L253.926 158.532ZM246 154.77C248.603 154.77 250.984 155.745 252.795 157.347C252.612 157.608 251.062 159.676 247.419 161.043C245.739 157.959 243.879 155.433 243.592 155.043C244.382 154.859 245.19 154.767 246 154.77ZM241.639 155.733C243.013 157.637 244.282 159.613 245.44 161.655C240.651 162.93 236.421 162.905 235.965 162.905C236.295 161.353 236.978 159.899 237.963 158.655C238.947 157.411 240.205 156.41 241.639 155.733ZM235.744 165.015V164.7C236.187 164.715 241.159 164.78 246.274 163.243C246.573 163.815 246.846 164.402 247.107 164.987L246.702 165.104C241.419 166.809 238.608 171.468 238.372 171.859C236.68 169.981 235.744 167.542 235.744 165.013V165.015ZM246 175.255C243.722 175.259 241.509 174.498 239.715 173.096C239.895 172.718 241.978 168.71 247.756 166.692C247.783 166.679 247.796 166.679 247.823 166.667C248.797 169.181 249.528 171.783 250.008 174.437C248.742 174.98 247.378 175.259 246 175.255ZM251.715 173.499C251.61 172.874 251.063 169.881 249.723 166.197C252.938 165.69 255.748 166.523 256.099 166.64C255.881 168.023 255.378 169.347 254.624 170.528C253.869 171.708 252.878 172.72 251.714 173.499H251.715Z" fill="black"/>
</g>
<circle cx="246" cy="165" r="34.5" stroke="#C6CCED"/>
<circle cx="246" cy="165" r="24" stroke="#C6CCED" stroke-width="2"/>
<path d="M147.443 28.3501C148.082 28.3501 148.673 28.4001 149.213 28.5481C149.754 28.6471 150.197 28.8451 150.59 29.0921C150.984 29.3401 151.279 29.6861 151.475 30.1311C151.672 30.5761 151.771 31.1211 151.771 31.7141C151.771 32.4071 151.623 33.0001 151.279 33.4451C150.984 33.8911 150.492 34.2861 149.902 34.5831C150.738 34.8311 151.377 35.2761 151.771 35.8701C152.164 36.4631 152.41 37.2051 152.41 38.0461C152.41 38.7391 152.262 39.3321 152.016 39.8271C151.771 40.3221 151.377 40.7671 150.934 41.0641C150.453 41.3824 149.921 41.6164 149.361 41.7561C148.771 41.9051 148.181 42.0041 147.591 42.0041H141V28.3501H147.443ZM147.049 33.8901C147.59 33.8901 148.033 33.7421 148.377 33.4951C148.721 33.2481 148.869 32.8021 148.869 32.2581C148.869 31.9611 148.819 31.6651 148.721 31.4671C148.623 31.2691 148.475 31.1201 148.279 30.9721C148.082 30.8731 147.885 30.7741 147.639 30.7251C147.393 30.6751 147.148 30.6751 146.852 30.6751H144V33.8911H147.05L147.049 33.8901ZM147.197 39.7281C147.492 39.7281 147.787 39.6781 148.033 39.6291C148.279 39.5791 148.525 39.4811 148.721 39.3321C148.921 39.1873 149.089 39.002 149.213 38.7881C149.311 38.5411 149.41 38.2441 149.41 37.8981C149.41 37.2051 149.213 36.7101 148.82 36.3641C148.426 36.0671 147.885 35.9191 147.246 35.9191H144V39.7291L147.197 39.7281ZM156.689 39.6781C157.082 40.0741 157.672 40.2721 158.459 40.2721C159 40.2721 159.492 40.1241 159.885 39.8771C160.279 39.5801 160.525 39.2831 160.623 38.9871H163.033C162.639 40.1731 162.049 41.0141 161.263 41.5591C160.475 42.0531 159.541 42.3501 158.41 42.3501C157.686 42.3523 156.969 42.218 156.295 41.9541C155.689 41.7267 155.148 41.353 154.721 40.8661C154.264 40.4107 153.927 39.8498 153.738 39.2331C153.492 38.5901 153.393 37.8981 153.393 37.1061C153.393 36.3641 153.492 35.6721 153.738 35.0281C153.975 34.4085 154.325 33.8384 154.771 33.3471C155.22 32.8859 155.754 32.5161 156.344 32.2581C157.001 31.9942 157.702 31.8597 158.41 31.8621C159.246 31.8621 159.984 32.0111 160.623 32.3571C161.263 32.7031 161.754 33.0991 162.147 33.6931C162.541 34.2371 162.837 34.8801 163.033 35.5731C163.131 36.2651 163.18 36.9581 163.131 37.7491H156C156 38.5411 156.295 39.2831 156.689 39.6791V39.6781ZM159.787 34.4841C159.443 34.1381 158.902 33.9401 158.262 33.9401C157.82 33.9401 157.475 34.0401 157.18 34.1881C156.885 34.3361 156.689 34.5341 156.492 34.7321C156.311 34.9233 156.191 35.1642 156.147 35.4241C156.098 35.6721 156.049 35.8701 156.049 36.0671H160.475C160.377 35.3251 160.131 34.8311 159.787 34.4841ZM155.459 29.2901H160.967V30.6261H155.46V29.2901H155.459Z" fill="black"/>
<circle cx="152" cy="35" r="34.5" stroke="#C6CCED"/>
<circle cx="152" cy="35" r="24" stroke="#C6CCED" stroke-width="2"/>
<path d="M107.083 108V91.296H113.299C114.515 91.296 115.635 91.6 116.659 92.208C117.699 92.816 118.523 93.64 119.131 94.68C119.739 95.704 120.043 96.824 120.043 98.04V101.256C120.043 102.472 119.739 103.6 119.131 104.64C118.523 105.664 117.699 106.48 116.659 107.088C115.635 107.696 114.515 108 113.299 108H107.083ZM125.089 91.296H136.849V92.184H125.977V98.952H135.433V99.84H125.977V107.112H136.849V108H125.089V91.296ZM148.974 100.008C147.614 99.736 146.502 99.44 145.638 99.12C144.79 98.784 144.118 98.336 143.622 97.776C143.142 97.2 142.902 96.464 142.902 95.568C142.902 94.64 143.142 93.824 143.622 93.12C144.118 92.416 144.806 91.872 145.686 91.488C146.582 91.104 147.614 90.912 148.782 90.912C149.902 90.912 150.926 91.152 151.854 91.632C152.798 92.096 153.542 92.752 154.086 93.6C154.63 94.448 154.902 95.416 154.902 96.504H154.014C154.014 95.56 153.782 94.728 153.318 94.008C152.854 93.288 152.222 92.736 151.422 92.352C150.622 91.952 149.734 91.752 148.758 91.752C147.894 91.752 147.086 91.888 146.334 92.16C145.582 92.432 144.966 92.848 144.486 93.408C144.022 93.968 143.79 94.672 143.79 95.52C143.79 96.288 144.014 96.904 144.462 97.368C144.91 97.816 145.494 98.16 146.214 98.4C146.934 98.64 147.942 98.896 149.238 99.168C150.55 99.44 151.566 99.704 152.286 99.96C153.022 100.2 153.638 100.608 154.134 101.184C154.646 101.76 154.902 102.568 154.902 103.608C154.902 104.648 154.622 105.528 154.062 106.248C153.518 106.952 152.79 107.48 151.878 107.832C150.966 108.184 149.974 108.36 148.902 108.36C147.574 108.36 146.406 108.112 145.398 107.616C144.39 107.12 143.614 106.424 143.07 105.528C142.542 104.616 142.278 103.576 142.278 102.408H143.166C143.166 103.432 143.39 104.328 143.838 105.096C144.302 105.864 144.966 106.464 145.83 106.896C146.694 107.312 147.718 107.52 148.902 107.52C150.374 107.52 151.59 107.168 152.55 106.464C153.526 105.76 154.014 104.8 154.014 103.584C154.014 102.752 153.806 102.112 153.39 101.664C152.974 101.216 152.446 100.896 151.806 100.704C151.182 100.496 150.238 100.264 148.974 100.008ZM171.804 91.296V92.184H166.812V107.112H171.804V108H160.98V107.112H165.948V92.184H160.98V91.296H171.804ZM190.026 104.568C189.594 105.672 188.81 106.584 187.674 107.304C186.538 108.008 185.322 108.36 184.026 108.36C182.778 108.36 181.626 108.048 180.57 107.424C179.514 106.8 178.674 105.944 178.05 104.856C177.442 103.752 177.138 102.544 177.138 101.232V97.872C177.138 96.592 177.442 95.424 178.05 94.368C178.674 93.312 179.506 92.48 180.546 91.872C181.602 91.248 182.762 90.936 184.026 90.936C185.066 90.936 186.018 91.112 186.882 91.464C187.746 91.8 188.482 92.296 189.09 92.952C189.586 93.496 189.986 94.104 190.29 94.776C190.61 95.448 190.77 96.128 190.77 96.816H189.906C189.89 96.224 189.738 95.64 189.45 95.064C189.178 94.488 188.826 93.968 188.394 93.504C187.322 92.384 185.866 91.824 184.026 91.824C182.922 91.824 181.906 92.096 180.978 92.64C180.066 93.168 179.346 93.896 178.818 94.824C178.29 95.736 178.026 96.752 178.026 97.872V101.232C178.026 102.4 178.29 103.464 178.818 104.424C179.362 105.368 180.09 106.112 181.002 106.656C181.93 107.2 182.938 107.472 184.026 107.472C185.13 107.472 186.138 107.208 187.05 106.68C187.978 106.136 188.706 105.408 189.234 104.496C189.762 103.568 190.026 102.56 190.026 101.472V100.632H184.026V99.744H190.914V108H190.026V104.568ZM195.383 108V91.296H196.319L207.983 102.624V91.296H208.871V108H207.983V103.872L196.271 92.448V108H195.383Z" fill="black"/>
<defs>
<clipPath id="clip0_301_170">
<rect width="24" height="24" fill="white" transform="translate(234 153)"/>
</clipPath>
</defs>
</svg>
