<?xml version="1.0" encoding="UTF-8"?>
<svg version="1.1" xmlns="http://www.w3.org/2000/svg" width="190" height="190">
<path d="M0 0 C1.35683524 0.90961022 2.68923453 1.85726732 3.98828125 2.84765625 C5.7897117 4.02871745 5.7897117 4.02871745 7.83203125 3.68359375 C9.93866613 2.90893038 9.93866613 2.90893038 11.79296875 1.3359375 C15.39930131 -1.2831101 19.49389065 -1.26647191 23.84765625 -1.15625 C29.23025524 0.63794966 32.32253498 3.79350745 34.84765625 8.84375 C36.47574219 8.77414062 36.47574219 8.77414062 38.13671875 8.703125 C39.58200356 8.66558513 41.02731836 8.62918736 42.47265625 8.59375 C43.54193359 8.54347656 43.54193359 8.54347656 44.6328125 8.4921875 C49.84944126 8.39646954 52.69691071 9.42032543 56.84765625 12.84375 C59.3689889 16.2655586 60.62256013 19.79150899 61.84765625 23.84375 C62.83765625 23.76125 63.82765625 23.67875 64.84765625 23.59375 C69.50966777 23.61266283 73.05001447 25.21016799 76.84765625 27.84375 C80.47796455 31.66022796 80.938324 34.28317626 80.97265625 39.34375 C81.00539556 42.21591659 81.00539556 42.21591659 81.84765625 44.84375 C84.23827555 46.89899465 86.53516746 48.13402475 89.40234375 49.4296875 C92.38896836 51.15677713 93.36208557 52.76413841 94.84765625 55.84375 C96.06338859 60.98723298 95.61847267 63.94796344 93.84765625 68.84375 C93.67967156 72.09419709 93.67967156 72.09419709 93.84765625 74.84375 C94.44578125 75.070625 95.04390625 75.2975 95.66015625 75.53125 C98.6480936 77.32401241 99.49763099 78.60368937 100.84765625 81.84375 C101.505659 86.06355022 101.8623968 90.07051652 99.6875 93.87109375 C98.77524057 95.03238222 97.84747724 96.18171208 96.90234375 97.31640625 C95.5801238 98.91172592 95.5801238 98.91172592 95.91015625 101.59375 C96.85343438 104.06042976 96.85343438 104.06042976 98.84765625 106.84375 C99.73902424 112.19195791 99.08448754 116.72911065 96.203125 121.31640625 C94.65836919 123.05703887 93.12596723 123.90806765 91.09765625 125.03125 C89.1856632 126.11574188 89.1856632 126.11574188 87.84765625 127.84375 C87.46471792 130.96382711 87.59150352 133.78027973 87.89453125 136.90625 C87.81653596 141.79395514 85.49291845 144.21315285 82.09765625 147.53125 C78.52349003 150.07440673 76.07078988 150.9146606 71.84765625 151.84375 C71.71810547 152.82214844 71.71810547 152.82214844 71.5859375 153.8203125 C70.59592459 159.97837442 69.4524258 163.56024344 64.84765625 167.84375 C61.04830351 169.74666262 58.0583241 169.9794915 53.84765625 169.96875 C49.51208112 170.14193666 49.51208112 170.14193666 46.16796875 172.578125 C45.37547588 173.9973606 44.62061172 175.43831354 43.90625 176.8984375 C42.20529229 180.02418267 40.16446513 180.80318251 36.84765625 181.84375 C33.30079808 182.2622381 30.04231184 182.45917864 26.78515625 180.78125 C23.73131958 179.3035871 21.08149612 180.22185772 17.84765625 180.84375 C17.84765625 181.50375 17.84765625 182.16375 17.84765625 182.84375 C13.94032686 186.23010214 10.1593162 186.29088203 5.21875 186.13671875 C1.30868158 185.65359662 -1.07107097 184.11307022 -3.58984375 181.15625 C-5.19899739 179.55565038 -5.19899739 179.55565038 -8.15234375 179.53125 C-11.33175889 179.62715875 -11.33175889 179.62715875 -14.15234375 181.84375 C-18.84712167 182.61279933 -22.3228153 182.2892375 -26.52734375 180.03125 C-27.39359375 179.309375 -28.25984375 178.5875 -29.15234375 177.84375 C-29.75046875 177.369375 -30.34859375 176.895 -30.96484375 176.40625 C-32.53958917 174.33421656 -32.70332976 172.37717759 -33.15234375 169.84375 C-33.93738281 169.89015625 -34.72242188 169.9365625 -35.53125 169.984375 C-42.38390059 170.21980349 -46.70291638 170.15788 -52.15234375 165.84375 C-56.29487487 161.15614899 -56.88451165 156.86997231 -57.15234375 150.84375 C-58.32796875 150.8025 -59.50359375 150.76125 -60.71484375 150.71875 C-65.75431599 150.10112374 -68.87854316 147.62189285 -72.15234375 143.84375 C-74.53616933 140.31415019 -74.18888272 137.50811638 -73.90234375 133.34375 C-73.77042178 129.92141135 -73.77042178 129.92141135 -74.15234375 126.84375 C-76.78136637 124.20202246 -76.78136637 124.20202246 -80.15234375 122.84375 C-83.88494119 119.31291458 -84.94054123 116.17878149 -85.33984375 111.1875 C-85.07128448 107.8305091 -83.7545995 105.47623682 -81.96484375 102.66796875 C-80.98106055 100.86855913 -80.98106055 100.86855913 -81.36328125 98.84375 C-82.23285646 96.63967818 -83.35732364 95.04828797 -84.77734375 93.15625 C-87.31071239 89.21300664 -87.63855907 86.53319499 -86.80078125 81.95703125 C-85.55727391 77.90439587 -83.79073827 74.73333532 -80.015625 72.68359375 C-79.40074219 72.40644531 -78.78585938 72.12929687 -78.15234375 71.84375 C-78.38050781 71.2146875 -78.60867187 70.585625 -78.84375 69.9375 C-81.20113384 62.91820462 -81.69371042 58.26233446 -79.21484375 51.15625 C-76.88599603 48.54511771 -75.23601651 48.00496547 -72.02734375 46.71875 C-69.30342794 45.59560103 -69.30342794 45.59560103 -67.15234375 43.84375 C-66.36151742 40.99854241 -66.33997338 38.51684275 -66.33203125 35.5703125 C-66.05068991 31.30126342 -64.20511201 28.73150376 -61.15234375 25.84375 C-56.60696697 22.81349881 -52.47655127 22.30273341 -47.15234375 21.84375 C-46.92160156 21.16828125 -46.69085938 20.4928125 -46.453125 19.796875 C-43.16344489 10.79901477 -43.16344489 10.79901477 -38.15234375 7.84375 C-33.38983414 6.2562468 -28.78635232 6.35354743 -24.02734375 7.78125 C-21.15543244 8.1778825 -21.15543244 8.1778825 -19.625 6.421875 C-18.59311403 5.15105361 -17.57759511 3.86678277 -16.578125 2.5703125 C-12.66410089 -2.16940984 -5.26586747 -2.82885077 0 0 Z " fill="#AE0112" transform="translate(88.15234375,2.15625)"/>
<path d="M0 0 C1.42578672 1.00805623 2.84336374 2.02788916 4.25 3.0625 C5.28125 3.805 6.3125 4.5475 7.375 5.3125 C17.80690408 15.29084303 24.10580716 28.84720482 24.65649414 43.24023438 C24.83045825 55.56839979 21.87709713 69.05928434 13.8203125 78.7890625 C12.4375 80.1875 12.4375 80.1875 10.25 82.0625 C10.146875 80.969375 10.04375 79.87625 9.9375 78.75 C9.5264201 75.23040659 9.5264201 75.23040659 8.0625 73.25 C5.54282571 71.59917891 3.15984316 70.84591931 0.25 70.0625 C-0.86375 69.711875 -1.9775 69.36125 -3.125 69 C-7.97753468 69.08366439 -9.4606547 71.00493479 -12.83984375 74.2734375 C-18.62103462 79.68813161 -25.80546804 80.41799228 -33.3984375 80.265625 C-40.26574457 79.67243568 -44.69101193 77.2984927 -49.875 72.8125 C-53.02807625 69.97661959 -53.02807625 69.97661959 -56.9375 68.765625 C-59.06791882 69.03201558 -59.06791882 69.03201558 -61.75 70.0625 C-61.75 70.7225 -61.75 71.3825 -61.75 72.0625 C-62.69875 72.165625 -63.6475 72.26875 -64.625 72.375 C-68.04107501 72.74789295 -68.04107501 72.74789295 -69.75 76.0625 C-70.14013716 78.0521995 -70.48202649 80.05269869 -70.75 82.0625 C-75.07999493 78.18670034 -77.49900813 74.27610613 -80 69.0625 C-80.5259375 68.01449219 -80.5259375 68.01449219 -81.0625 66.9453125 C-86.63799127 55.579888 -86.91118166 39.33087747 -83.125 27.3125 C-82.39112559 25.53748888 -81.60149824 23.7841814 -80.75 22.0625 C-80.34910156 21.22074219 -79.94820312 20.37898438 -79.53515625 19.51171875 C-72.30037037 6.02775549 -60.71053087 -2.27084658 -46.5625 -7.3125 C-30.80025461 -11.82136638 -13.6753374 -8.92568163 0 0 Z " fill="#FBFAF5" transform="translate(126.75,47.9375)"/>
<path d="M0 0 C1.35683524 0.90961022 2.68923453 1.85726732 3.98828125 2.84765625 C5.7897117 4.02871745 5.7897117 4.02871745 7.83203125 3.68359375 C9.93866613 2.90893038 9.93866613 2.90893038 11.79296875 1.3359375 C15.39930131 -1.2831101 19.49389065 -1.26647191 23.84765625 -1.15625 C29.23025524 0.63794966 32.32253498 3.79350745 34.84765625 8.84375 C36.47574219 8.77414062 36.47574219 8.77414062 38.13671875 8.703125 C39.58200356 8.66558513 41.02731836 8.62918736 42.47265625 8.59375 C43.54193359 8.54347656 43.54193359 8.54347656 44.6328125 8.4921875 C49.84944126 8.39646954 52.69691071 9.42032543 56.84765625 12.84375 C59.3689889 16.2655586 60.62256013 19.79150899 61.84765625 23.84375 C62.83765625 23.76125 63.82765625 23.67875 64.84765625 23.59375 C69.50966777 23.61266283 73.05001447 25.21016799 76.84765625 27.84375 C80.47796455 31.66022796 80.938324 34.28317626 80.97265625 39.34375 C81.00539556 42.21591659 81.00539556 42.21591659 81.84765625 44.84375 C84.23827555 46.89899465 86.53516746 48.13402475 89.40234375 49.4296875 C92.38896836 51.15677713 93.36208557 52.76413841 94.84765625 55.84375 C96.06338859 60.98723298 95.61847267 63.94796344 93.84765625 68.84375 C93.67967156 72.09419709 93.67967156 72.09419709 93.84765625 74.84375 C94.44578125 75.070625 95.04390625 75.2975 95.66015625 75.53125 C98.6480936 77.32401241 99.49763099 78.60368937 100.84765625 81.84375 C101.505659 86.06355022 101.8623968 90.07051652 99.6875 93.87109375 C98.77524057 95.03238222 97.84747724 96.18171208 96.90234375 97.31640625 C95.5801238 98.91172592 95.5801238 98.91172592 95.91015625 101.59375 C96.85343438 104.06042976 96.85343438 104.06042976 98.84765625 106.84375 C99.73902424 112.19195791 99.08448754 116.72911065 96.203125 121.31640625 C94.65836919 123.05703887 93.12596723 123.90806765 91.09765625 125.03125 C89.1856632 126.11574188 89.1856632 126.11574188 87.84765625 127.84375 C87.46471792 130.96382711 87.59150352 133.78027973 87.89453125 136.90625 C87.81653596 141.79395514 85.49291845 144.21315285 82.09765625 147.53125 C78.52349003 150.07440673 76.07078988 150.9146606 71.84765625 151.84375 C71.71810547 152.82214844 71.71810547 152.82214844 71.5859375 153.8203125 C70.59592459 159.97837442 69.4524258 163.56024344 64.84765625 167.84375 C61.04830351 169.74666262 58.0583241 169.9794915 53.84765625 169.96875 C49.51208112 170.14193666 49.51208112 170.14193666 46.16796875 172.578125 C45.37547588 173.9973606 44.62061172 175.43831354 43.90625 176.8984375 C42.20529229 180.02418267 40.16446513 180.80318251 36.84765625 181.84375 C33.30079808 182.2622381 30.04231184 182.45917864 26.78515625 180.78125 C23.73131958 179.3035871 21.08149612 180.22185772 17.84765625 180.84375 C17.84765625 181.50375 17.84765625 182.16375 17.84765625 182.84375 C13.94032686 186.23010214 10.1593162 186.29088203 5.21875 186.13671875 C1.30868158 185.65359662 -1.07107097 184.11307022 -3.58984375 181.15625 C-5.19899739 179.55565038 -5.19899739 179.55565038 -8.15234375 179.53125 C-11.33175889 179.62715875 -11.33175889 179.62715875 -14.15234375 181.84375 C-18.84712167 182.61279933 -22.3228153 182.2892375 -26.52734375 180.03125 C-27.39359375 179.309375 -28.25984375 178.5875 -29.15234375 177.84375 C-29.75046875 177.369375 -30.34859375 176.895 -30.96484375 176.40625 C-32.53958917 174.33421656 -32.70332976 172.37717759 -33.15234375 169.84375 C-33.93738281 169.89015625 -34.72242188 169.9365625 -35.53125 169.984375 C-42.38390059 170.21980349 -46.70291638 170.15788 -52.15234375 165.84375 C-56.29487487 161.15614899 -56.88451165 156.86997231 -57.15234375 150.84375 C-58.32796875 150.8025 -59.50359375 150.76125 -60.71484375 150.71875 C-65.75431599 150.10112374 -68.87854316 147.62189285 -72.15234375 143.84375 C-74.53616933 140.31415019 -74.18888272 137.50811638 -73.90234375 133.34375 C-73.77042178 129.92141135 -73.77042178 129.92141135 -74.15234375 126.84375 C-76.78136637 124.20202246 -76.78136637 124.20202246 -80.15234375 122.84375 C-83.88494119 119.31291458 -84.94054123 116.17878149 -85.33984375 111.1875 C-85.07128448 107.8305091 -83.7545995 105.47623682 -81.96484375 102.66796875 C-80.98106055 100.86855913 -80.98106055 100.86855913 -81.36328125 98.84375 C-82.23285646 96.63967818 -83.35732364 95.04828797 -84.77734375 93.15625 C-87.31071239 89.21300664 -87.63855907 86.53319499 -86.80078125 81.95703125 C-85.55727391 77.90439587 -83.79073827 74.73333532 -80.015625 72.68359375 C-79.40074219 72.40644531 -78.78585938 72.12929687 -78.15234375 71.84375 C-78.38050781 71.2146875 -78.60867187 70.585625 -78.84375 69.9375 C-81.20113384 62.91820462 -81.69371042 58.26233446 -79.21484375 51.15625 C-76.88599603 48.54511771 -75.23601651 48.00496547 -72.02734375 46.71875 C-69.30342794 45.59560103 -69.30342794 45.59560103 -67.15234375 43.84375 C-66.36151742 40.99854241 -66.33997338 38.51684275 -66.33203125 35.5703125 C-66.05068991 31.30126342 -64.20511201 28.73150376 -61.15234375 25.84375 C-56.60696697 22.81349881 -52.47655127 22.30273341 -47.15234375 21.84375 C-46.92160156 21.16828125 -46.69085938 20.4928125 -46.453125 19.796875 C-43.16344489 10.79901477 -43.16344489 10.79901477 -38.15234375 7.84375 C-33.38983414 6.2562468 -28.78635232 6.35354743 -24.02734375 7.78125 C-21.15543244 8.1778825 -21.15543244 8.1778825 -19.625 6.421875 C-18.59311403 5.15105361 -17.57759511 3.86678277 -16.578125 2.5703125 C-12.66410089 -2.16940984 -5.26586747 -2.82885077 0 0 Z M-43.15234375 29.84375 C-43.86390625 30.41351563 -44.57546875 30.98328125 -45.30859375 31.5703125 C-59.34111701 43.24806302 -67.66744205 59.09755825 -71.15234375 76.84375 C-71.33410156 77.61976562 -71.51585937 78.39578125 -71.703125 79.1953125 C-75.11306993 99.29916172 -68.81103592 121.39525653 -57.15234375 137.84375 C-54.29273851 141.32023534 -51.25873238 144.58812205 -48.15234375 147.84375 C-47.63414063 148.44832031 -47.1159375 149.05289063 -46.58203125 149.67578125 C-35.91425689 161.6002306 -18.15299191 170.03057858 -2.32250977 171.02075195 C22.22031145 171.53646967 43.1801358 167.92469999 61.84765625 150.84375 C62.87052734 149.95816406 62.87052734 149.95816406 63.9140625 149.0546875 C70.23142563 143.24419695 74.48761576 136.15653078 78.84765625 128.84375 C79.28207031 128.13347656 79.71648437 127.42320312 80.1640625 126.69140625 C89.08597072 110.70194721 90.47574876 88.28894364 85.82885742 70.76196289 C82.62161717 59.99009647 77.2336535 49.33854102 69.84765625 40.84375 C69.18121094 40.03550781 68.51476562 39.22726563 67.828125 38.39453125 C55.97777564 24.51032158 40.30767108 17.12813359 22.84765625 12.84375 C22.2222998 12.6686792 21.59694336 12.4936084 20.95263672 12.31323242 C-1.0650366 7.4025405 -26.35391579 15.32931883 -43.15234375 29.84375 Z " fill="#EFEFEB" transform="translate(88.15234375,2.15625)"/>
<path d="M0 0 C1.16660156 0.4125 2.33320312 0.825 3.53515625 1.25 C24.72552759 9.5102555 39.3596021 24.90655877 48.53125 45.42578125 C56.26160827 64.54942917 56.33724427 85.9688842 48.75 105.25 C38.22314636 128.29695768 21.89721523 142.97801968 -1.44921875 152.390625 C-9.66612431 155.05151574 -17.60047048 155.36953199 -26.1875 155.4375 C-27.80857666 155.45296875 -27.80857666 155.45296875 -29.46240234 155.46875 C-50.42922372 155.23880162 -67.11630041 146.24546204 -82 132 C-82.63808594 131.42507812 -83.27617188 130.85015625 -83.93359375 130.2578125 C-95.97405147 119.04865587 -101.32961909 103.58112681 -105 88 C-105.1959375 87.19175781 -105.391875 86.38351563 -105.59375 85.55078125 C-108.84283195 65.15029552 -102.52647533 44.79945648 -91 28 C-69.27587779 0.71614983 -33.5557393 -12.18823675 0 0 Z M-78 17 C-78.83144531 17.73863281 -79.66289063 18.47726563 -80.51953125 19.23828125 C-90.86623256 28.94924054 -97.78834174 40.46252702 -102 54 C-102.24492188 54.76957031 -102.48984375 55.53914063 -102.7421875 56.33203125 C-106.57029979 71.30362111 -104.96759508 89.89477526 -99 104 C-92.87903309 102.94513949 -88.24493326 101.34782974 -83 98 C-82.34 99.32 -81.68 100.64 -81 102 C-83.475 102.495 -83.475 102.495 -86 103 C-85.34 104.65 -84.68 106.3 -84 108 C-81.14907355 107.01692191 -79.95755204 105.94659773 -78.0625 103.5625 C-76.47363553 98.23513088 -78.22834746 94.12973939 -80 89 C-83.62091808 78.13724576 -82.29311311 62.93169685 -77.484375 52.65234375 C-75.19788917 48.5667546 -72.86223336 44.71030251 -70 41 C-69.48824219 40.31292969 -68.97648437 39.62585937 -68.44921875 38.91796875 C-60.47147062 28.96006357 -48.22196526 22.997353 -36 20 C-30.9923304 19.68366969 -26.01331839 19.84889891 -21 20 C-20.20464844 19.99484375 -19.40929687 19.9896875 -18.58984375 19.984375 C-7.37890421 20.41639579 5.07372783 27.45273876 13 35 C13.60972656 35.56976563 14.21945313 36.13953125 14.84765625 36.7265625 C25.03066323 47.24527301 29.35897392 60.98923902 29.3125 75.3125 C29.32861328 76.29412109 29.34472656 77.27574219 29.36132812 78.28710938 C29.36578159 85.01628959 28.31661041 90.68983527 26 97 C25.67 97.90492187 25.34 98.80984375 25 99.7421875 C18.84207651 112.8758837 7.51371882 122.91419184 -6 128 C-5.67 129.32 -5.34 130.64 -5 132 C-4.34 132 -3.68 132 -3 132 C-3 133.65 -3 135.3 -3 137 C-2.34 137.33 -1.68 137.66 -1 138 C1.11683841 137.10836423 1.11683841 137.10836423 3 136 C2.65213292 134.02463255 2.65213292 134.02463255 2 132 C1.34 131.67 0.68 131.34 0 131 C1.32 130.67 2.64 130.34 4 130 C4.28875 130.886875 4.5775 131.77375 4.875 132.6875 C5.83148748 135.50382424 6.86798946 138.25083156 8 141 C7.01 141.33 6.02 141.66 5 142 C4.67 140.68 4.34 139.36 4 138 C2.35 138.33 0.7 138.66 -1 139 C-0.67 140.32 -0.34 141.64 0 143 C0.66 143 1.32 143 2 143 C2 143.66 2 144.32 2 145 C1.01 145.33 0.02 145.66 -1 146 C-0.34 146.99 0.32 147.98 1 149 C20.29795088 143.14065238 34.77906927 128.83418918 44.1875 111.375 C53.0366128 92.41607889 55.3065257 71.88511179 49.328125 51.61328125 C45.71738487 41.78994413 41.04825223 32.82217797 34 25 C33.19820312 24.10539062 32.39640625 23.21078125 31.5703125 22.2890625 C18.50128148 8.46240649 0.23475189 -1.61663056 -19.0390625 -2.3359375 C-41.7369288 -2.6493777 -60.69659776 1.29823499 -78 17 Z M-69.67675781 41.28662109 C-77.30788391 51.16766223 -80.35440923 62.51633177 -80.3125 74.8125 C-80.32861328 75.74642578 -80.34472656 76.68035156 -80.36132812 77.64257812 C-80.36780489 86.97559892 -77.99973313 94.78445472 -73.5625 102.9375 C-72.98628906 104.01902344 -72.41007812 105.10054688 -71.81640625 106.21484375 C-70.08066961 108.87630659 -68.66104179 110.32149672 -66 112 C-65.731875 110.906875 -65.46375 109.81375 -65.1875 108.6875 C-63.57638315 103.68455822 -63.57638315 103.68455822 -61 102 C-59.68 102 -58.36 102 -57 102 C-57 101.34 -57 100.68 -57 100 C-54.22462634 99.03465264 -52.86117215 98.61169806 -50 99 C-47.32700857 100.8113034 -44.98369616 102.87227806 -42.54296875 104.984375 C-36.46828676 109.79933031 -29.56031789 110.74385954 -22 110 C-14.84564345 109.1315521 -8.33068182 105.63119446 -3.44140625 100.30078125 C-2 99 -2 99 1.25 99.125 C6.03446872 100.24137603 10.44556783 101.44556783 14 105 C14.40047444 107.32275177 14.7397104 109.65739357 15 112 C23.03116085 105.38610283 27.46237515 94.10257647 29 84 C30.56534874 67.25628327 26.52125645 51.9542932 15.75 38.75 C5.57933487 27.79352189 -7.95920604 21.70596272 -22.7265625 20.76171875 C-41.4981325 20.40434417 -57.34925154 26.95260744 -69.67675781 41.28662109 Z " fill="#AF0112" transform="translate(122,18)"/>
<path d="M0 0 C0.79535156 -0.00515625 1.59070313 -0.0103125 2.41015625 -0.015625 C13.61704989 0.41623988 26.08156356 7.44727448 34 15 C34.68320313 15.64324219 35.36640625 16.28648438 36.0703125 16.94921875 C46.64316838 27.82358192 51.36094722 41.38106626 51.3125 56.3125 C51.32861328 57.29412109 51.34472656 58.27574219 51.36132812 59.28710938 C51.36578159 66.01628959 50.31661041 71.68983527 48 78 C47.67 78.90492187 47.34 79.80984375 47 80.7421875 C40.7139587 94.14913496 28.81496475 104.31599366 15.3984375 110.17578125 C8.71181733 112.47362629 2.72026911 113.36162046 -4.3125 113.3125 C-5.14773193 113.30758545 -5.98296387 113.3026709 -6.84350586 113.29760742 C-22.8827533 112.9940991 -36.4401314 105.98683336 -47.5625 94.5625 C-59.25561633 80.62911372 -62.04868793 64.3663024 -61.24267578 46.72070312 C-60.41083231 37.39468334 -55.66503397 29.27594411 -50 22 C-49.41476563 21.23945312 -48.82953125 20.47890625 -48.2265625 19.6953125 C-35.83489357 4.67357506 -18.81508783 -0.56708553 0 0 Z M-48.67675781 22.28662109 C-56.30788391 32.16766223 -59.35440923 43.51633177 -59.3125 55.8125 C-59.32861328 56.74642578 -59.34472656 57.68035156 -59.36132812 58.64257812 C-59.36780489 67.97559892 -56.99973313 75.78445472 -52.5625 83.9375 C-51.98628906 85.01902344 -51.41007812 86.10054688 -50.81640625 87.21484375 C-49.08066961 89.87630659 -47.66104179 91.32149672 -45 93 C-44.731875 91.906875 -44.46375 90.81375 -44.1875 89.6875 C-42.57638315 84.68455822 -42.57638315 84.68455822 -40 83 C-38.68 83 -37.36 83 -36 83 C-36 82.34 -36 81.68 -36 81 C-33.22462634 80.03465264 -31.86117215 79.61169806 -29 80 C-26.32700857 81.8113034 -23.98369616 83.87227806 -21.54296875 85.984375 C-15.46828676 90.79933031 -8.56031789 91.74385954 -1 91 C6.15435655 90.1315521 12.66931818 86.63119446 17.55859375 81.30078125 C19 80 19 80 22.25 80.125 C27.03446872 81.24137603 31.44556783 82.44556783 35 86 C35.40047444 88.32275177 35.7397104 90.65739357 36 93 C44.03116085 86.38610283 48.46237515 75.10257647 50 65 C51.56534874 48.25628327 47.52125645 32.9542932 36.75 19.75 C26.57933487 8.79352189 13.04079396 2.70596272 -1.7265625 1.76171875 C-20.4981325 1.40434417 -36.34925154 7.95260744 -48.67675781 22.28662109 Z " fill="#1F1014" transform="translate(101,37)"/>
<path d="M0 0 C14.3718694 -0.88351656 24.33831031 2.32370287 36 11 C37.03125 11.7425 38.0625 12.485 39.125 13.25 C49.55690408 23.22834303 55.85580716 36.78470482 56.40649414 51.17773438 C56.58045825 63.50589979 53.62709713 76.99678434 45.5703125 86.7265625 C44.1875 88.125 44.1875 88.125 42 90 C41.8453125 88.3603125 41.8453125 88.3603125 41.6875 86.6875 C41.2764201 83.16790659 41.2764201 83.16790659 39.8125 81.1875 C35.41013507 78.30319194 30.19040025 77.28835557 25 77 C22.5787681 78.2910871 22.5787681 78.2910871 21 80 C20.505 79.01 20.505 79.01 20 78 C20.48807129 77.48808105 20.97614258 76.97616211 21.47900391 76.44873047 C23.54492986 73.12268917 23.35309557 70.71911572 23.3359375 66.8203125 C23.34845152 65.40233919 23.36148872 63.98437041 23.375 62.56640625 C23.37892437 60.34570119 23.37500295 58.12544708 23.36035156 55.90478516 C23.35173816 53.75095549 23.37353075 51.59897915 23.3984375 49.4453125 C23.39505371 48.16156738 23.39166992 46.87782227 23.38818359 45.55517578 C24 42 24 42 29 36 C19.43 36 9.86 36 0 36 C0 35.67 0 35.34 0 35 C0.84304687 34.97421875 1.68609375 34.9484375 2.5546875 34.921875 C3.65039062 34.86515625 4.74609375 34.8084375 5.875 34.75 C7.51082031 34.68039063 7.51082031 34.68039063 9.1796875 34.609375 C12.10205912 34.30348768 12.10205912 34.30348768 13.41015625 32.0859375 C14.10182864 29.63989077 13.71890665 28.39635549 13 26 C13.33 25.34 13.66 24.68 14 24 C14.99 24 15.98 24 17 24 C17.33 23.01 17.66 22.02 18 21 C19.98 21 21.96 21 24 21 C24.16687448 18.58354218 24.16687448 18.58354218 24 16 C21.23776722 13.23776722 18.79293383 13.42143709 15 13 C16.32 12.34 17.64 11.68 19 11 C19 9.35 19 7.7 19 6 C13.97745369 5.7045561 11.10457614 6.01485372 7 9 C6.95875 8.4225 6.9175 7.845 6.875 7.25 C5.56544153 3.88256394 2.99617216 2.84870197 0 1 C0 0.67 0 0.34 0 0 Z " fill="#FBFBF6" transform="translate(95,40)"/>
<path d="M0 0 C-1.15173355 2.46800047 -2.04783565 4.04783565 -4 6 C-4.29040177 9.23966853 -4.29040177 9.23966853 -4.23828125 13.0546875 C-4.25370223 14.4882907 -4.27000596 15.92188463 -4.28710938 17.35546875 C-4.3035607 19.61593051 -4.31249777 21.8757138 -4.30541992 24.13623047 C-4.30279798 26.31816355 -4.33093076 28.49803051 -4.36328125 30.6796875 C-4.36626221 31.98663574 -4.36924316 33.29358398 -4.37231445 34.64013672 C-5 38 -5 38 -7.33813477 40.36914062 C-10.35187623 42.21558591 -13.29648902 43.43897885 -16.625 44.625 C-20.1159208 45.87917521 -22.90622104 46.93748069 -26 49 C-30.98859217 48.62858657 -35.53434722 46.91581389 -40.1875 45.1875 C-40.89841797 44.93935547 -41.60933594 44.69121094 -42.34179688 44.43554688 C-46.42105871 42.92740962 -48.86558183 41.81571514 -51 38 C-51.3371582 34.90307617 -51.3371582 34.90307617 -51.30078125 31.29296875 C-51.30916016 29.98392578 -51.31753906 28.67488281 -51.32617188 27.32617188 C-51.32396779 25.25898495 -51.31257013 23.19274117 -51.28491211 21.12573242 C-50.91839528 11.66720581 -50.91839528 11.66720581 -55.04296875 3.55078125 C-56.01878906 2.70902344 -56.99460937 1.86726563 -58 1 C-38.66296423 0.37670592 -19.34995447 -0.17898211 0 0 Z " fill="#B40F1C" transform="translate(124,76)"/>
<path d="M0 0 C1.16660156 0.4125 2.33320312 0.825 3.53515625 1.25 C24.72552759 9.5102555 39.3596021 24.90655877 48.53125 45.42578125 C56.26160827 64.54942917 56.33724427 85.9688842 48.75 105.25 C38.22314636 128.29695768 21.89721523 142.97801968 -1.44921875 152.390625 C-9.66612431 155.05151574 -17.60047048 155.36953199 -26.1875 155.4375 C-27.80857666 155.45296875 -27.80857666 155.45296875 -29.46240234 155.46875 C-50.42922372 155.23880162 -67.11630041 146.24546204 -82 132 C-82.63808594 131.42507812 -83.27617188 130.85015625 -83.93359375 130.2578125 C-95.97405147 119.04865587 -101.32961909 103.58112681 -105 88 C-105.1959375 87.19175781 -105.391875 86.38351563 -105.59375 85.55078125 C-108.84283195 65.15029552 -102.52647533 44.79945648 -91 28 C-69.27587779 0.71614983 -33.5557393 -12.18823675 0 0 Z M-78 17 C-78.83144531 17.73863281 -79.66289063 18.47726563 -80.51953125 19.23828125 C-90.86623256 28.94924054 -97.78834174 40.46252702 -102 54 C-102.24492188 54.76957031 -102.48984375 55.53914063 -102.7421875 56.33203125 C-107.89270933 76.47551046 -103.29074649 99.24256653 -92.89160156 116.87988281 C-81.2883716 134.67013177 -63.07263766 147.93621686 -42.38427734 152.91674805 C-20.10754934 157.51812703 0.27090301 151.92801914 19.15625 140.0078125 C35.96998426 128.13657704 47.36740385 110.63756971 51.60449219 90.50927734 C54.91022437 69.53624319 50.96272281 49.26817279 39.37890625 31.515625 C37.68705216 29.22736191 35.90503502 27.11421534 34 25 C33.19820312 24.10539062 32.39640625 23.21078125 31.5703125 22.2890625 C18.50128148 8.46240649 0.23475189 -1.61663056 -19.0390625 -2.3359375 C-41.7369288 -2.6493777 -60.69659776 1.29823499 -78 17 Z " fill="#271E21" transform="translate(122,18)"/>
<path d="M0 0 C3.3 0 6.6 0 10 0 C10.33 1.98 10.66 3.96 11 6 C11.99 6.33 12.98 6.66 14 7 C14 7.66 14 8.32 14 9 C14.66 9 15.32 9 16 9 C16.33 8.01 16.66 7.02 17 6 C17.66 6 18.32 6 19 6 C19.33 5.01 19.66 4.02 20 3 C20.66 3.33 21.32 3.66 22 4 C22 4.66 22 5.32 22 6 C22.99 6.33 23.98 6.66 25 7 C25 7.66 25 8.32 25 9 C25.66 9 26.32 9 27 9 C27.33 8.01 27.66 7.02 28 6 C28.66 6 29.32 6 30 6 C30.33 5.01 30.66 4.02 31 3 C31.66 3.33 32.32 3.66 33 4 C33 4.66 33 5.32 33 6 C33.66 6 34.32 6 35 6 C35 6.99 35 7.98 35 9 C34.01 9 33.02 9 32 9 C31.67 9.99 31.34 10.98 31 12 C30.01 11.34 29.02 10.68 28 10 C28.66 11.65 29.32 13.3 30 15 C29.01 15.33 28.02 15.66 27 16 C26.67 17.65 26.34 19.3 26 21 C24.68 21.33 23.36 21.66 22 22 C22.20625 22.61875 22.4125 23.2375 22.625 23.875 C22.74875 24.57625 22.8725 25.2775 23 26 C22.34 26.66 21.68 27.32 21 28 C17.03042943 27.53711721 13.19965674 26.25920855 9.375 25.125 C8.24835938 24.79757813 7.12171875 24.47015625 5.9609375 24.1328125 C3.03154672 23.01206933 1.87761579 22.42360624 0 20 C-0.34057617 17.82348633 -0.34057617 17.82348633 -0.29296875 15.33203125 C-0.28330078 14.43935547 -0.27363281 13.54667969 -0.26367188 12.62695312 C-0.23853516 11.69818359 -0.21339844 10.76941406 -0.1875 9.8125 C-0.17396484 8.87212891 -0.16042969 7.93175781 -0.14648438 6.96289062 C-0.11113603 4.64168265 -0.05732915 2.32076912 0 0 Z " fill="#111417" transform="translate(75,94)"/>
<path d="M0 0 C0.66 0 1.32 0 2 0 C2.66 1.32 3.32 2.64 4 4 C6.76276177 3.47731534 9.3260876 2.89130413 12 2 C14.011858 3.08741073 15.98513192 4.24657868 17.9375 5.4375 C24.03186566 8.8064096 29.38299496 9.66695788 36.3125 9.625 C37.54697876 9.62197876 37.54697876 9.62197876 38.80639648 9.61889648 C47.39720636 9.33687713 54.31193759 6.93005929 61.17578125 1.79296875 C61.77777344 1.53128906 62.37976563 1.26960937 63 1 C65.0625 1.87890625 65.0625 1.87890625 67 3 C69.66303039 2.85125183 69.66303039 2.85125183 72 2 C72.33 1.34 72.66 0.68 73 0 C73.99 0 74.98 0 76 0 C75.44196487 3.46725828 74.50398153 4.81074645 71.6875 6.875 C57.91741203 16.61542129 44.50965519 19.37112897 28 18 C17.25895169 16.1078533 6.49155857 11.03800167 -1 3 C-0.67 2.01 -0.34 1.02 0 0 Z " fill="#F7F2EF" transform="translate(59,130)"/>
<path d="M0 0 C8.83265748 3.741344 13.4795497 14.65119217 17 23 C19.23145992 29.14030979 19.33343212 34.86122089 19.3125 41.3125 C19.32861328 42.29412109 19.34472656 43.27574219 19.36132812 44.28710938 C19.36578159 51.01628959 18.31661041 56.68983527 16 63 C15.67 63.90492187 15.34 64.80984375 15 65.7421875 C8.7139587 79.14913496 -3.18503525 89.31599366 -16.6015625 95.17578125 C-23.28818267 97.47362629 -29.27973089 98.36162046 -36.3125 98.3125 C-37.14773193 98.30758545 -37.98296387 98.3026709 -38.84350586 98.29760742 C-50.43377449 98.07828647 -62.03128644 94.68163166 -71 87 C-71 86.34 -71 85.68 -71 85 C-66.20500355 86.82332589 -61.76083613 89.16864669 -57.23046875 91.5625 C-44.90567435 97.04680996 -29.44813471 96.79155922 -16.87109375 92.2734375 C-10.44514104 89.42328705 -4.15642132 85.82374898 1 81 C1.495 79.515 1.495 79.515 2 78 C1.01 78 0.02 78 -1 78 C-1.99 79.98 -1.99 79.98 -3 82 C-3.7425 81.835 -4.485 81.67 -5.25 81.5 C-8.19006578 80.88074304 -8.19006578 80.88074304 -12 81 C-12.33 81.33 -12.66 81.66 -13 82 C-14.99958364 82.04080783 -17.00045254 82.04254356 -19 82 C-18.34 81.67 -17.68 81.34 -17 81 C-17 80.34 -17 79.68 -17 79 C-16.01 78.34 -15.02 77.68 -14 77 C-13.67 76.34 -13.34 75.68 -13 75 C-10 73 -10 73 -7 73 C-7.99 72.67 -8.98 72.34 -10 72 C-10 71.34 -10 70.68 -10 70 C-12.46800047 71.15173355 -14.04783565 72.04783565 -16 74 C-16.66 74 -17.32 74 -18 74 C-19.62514468 75.45833358 -19.62514468 75.45833358 -21 77 C-21.99 76.505 -21.99 76.505 -23 76 C-23 75.34 -23 74.68 -23 74 C-22.360625 73.896875 -21.72125 73.79375 -21.0625 73.6875 C-20.381875 73.460625 -19.70125 73.23375 -19 73 C-18.505 71.515 -18.505 71.515 -18 70 C-13.20512821 65.20512821 -13.20512821 65.20512821 -9.0625 64.5 C-4.60342208 65.22801272 -0.83413823 66.71610324 2.875 69.3125 C4.48078434 71.72117651 4.57972799 74.16889489 5 77 C14.6125676 63.0401757 18.40288791 49.87288081 17 33 C14.7987196 21.35208202 9.42468075 11.05647958 1.3203125 2.4609375 C0 1 0 1 0 0 Z " fill="#21181B" transform="translate(133,52)"/>
<path d="M0 0 C2.97 0.495 2.97 0.495 6 1 C6.33 1.99 6.66 2.98 7 4 C6.01 5.485 6.01 5.485 5 7 C4.83286431 9.62531524 4.83286431 9.62531524 5 12 C5.38929687 11.41089844 5.77859375 10.82179688 6.1796875 10.21484375 C10.64461585 4.21702526 10.64461585 4.21702526 14.5859375 3.5859375 C18.17172112 3.89088684 20.90477275 4.13723893 23.78515625 6.40625 C25.47354192 8.62123827 25.21956991 10.29197112 25 13 C22 14 22 14 18 14 C17.67 14.66 17.34 15.32 17 16 C16.01 16 15.02 16 14 16 C13.505 18.475 13.505 18.475 13 21 C13.66 21.33 14.32 21.66 15 22 C13 24 13 24 10.47802734 24.22705078 C9.4411377 24.21657715 8.40424805 24.20610352 7.3359375 24.1953125 C6.21445313 24.18886719 5.09296875 24.18242188 3.9375 24.17578125 C2.761875 24.15902344 1.58625 24.14226562 0.375 24.125 C-0.80835937 24.11597656 -1.99171875 24.10695313 -3.2109375 24.09765625 C-6.14082523 24.07402812 -9.0703134 24.04108514 -12 24 C-13.125 20.25 -13.125 20.25 -12 18 C-13.32 17.67 -14.64 17.34 -16 17 C-15.67 16.34 -15.34 15.68 -15 15 C-13.68 15.66 -12.36 16.32 -11 17 C-11 17.66 -11 18.32 -11 19 C-10.34 19 -9.68 19 -9 19 C-9 17.35 -9 15.7 -9 14 C-13.29 14 -17.58 14 -22 14 C-22.33 13.34 -22.66 12.68 -23 12 C-19.56463366 10.93785775 -16.45633119 10.92960528 -12.875 11 C-8.78160572 11.20817858 -8.78160572 11.20817858 -5 10 C-4.67 10.66 -4.34 11.32 -4 12 C-3.5875 11.505 -3.175 11.01 -2.75 10.5 C-1 9 -1 9 3 9 C3.33 7.02 3.66 5.04 4 3 C1.525 2.505 1.525 2.505 -1 2 C-0.67 1.34 -0.34 0.68 0 0 Z " fill="#7F8080" transform="translate(95,48)"/>
<path d="M0 0 C13.53 0 27.06 0 41 0 C41.0825 3.403125 41.165 6.80625 41.25 10.3125 C41.28641602 11.38153564 41.32283203 12.45057129 41.36035156 13.55200195 C41.3703418 14.39722412 41.38033203 15.24244629 41.390625 16.11328125 C41.41157227 16.97735596 41.43251953 17.84143066 41.45410156 18.73168945 C41 21 41 21 39.15307617 22.73681641 C36.53315593 24.27389174 33.96175418 25.15945362 31.0625 26.0625 C27.30606127 27.24499462 23.63917169 28.49205593 20 30 C20.33 29.401875 20.66 28.80375 21 28.1875 C22.20787988 25.94613529 22.20787988 25.94613529 22 23 C22.99 22.67 23.98 22.34 25 22 C25.70211894 20.34795544 26.36971413 18.68076231 27 17 C27.66 16.67 28.32 16.34 29 16 C28.67 14.35 28.34 12.7 28 11 C28.99 11.33 29.98 11.66 31 12 C31.33 11.34 31.66 10.68 32 10 C32.99 10 33.98 10 35 10 C35 9.01 35 8.02 35 7 C34.34 7 33.68 7 33 7 C32.34 6.34 31.68 5.68 31 5 C30.38125 5.825 29.7625 6.65 29.125 7.5 C28.42375 8.325 27.7225 9.15 27 10 C25 10 25 10 22.375 7.5 C21.59125 6.675 20.8075 5.85 20 5 C19.38125 5.825 18.7625 6.65 18.125 7.5 C17.42375 8.325 16.7225 9.15 16 10 C14 10 14 10 12.4375 8.875 C10.50973984 6.36053022 10.34494893 4.10454033 10 1 C6.7 1 3.4 1 0 1 C0 0.67 0 0.34 0 0 Z " fill="#0E1215" transform="translate(75,93)"/>
<path d="M0 0 C0 0.66 0 1.32 0 2 C0.66 2 1.32 2 2 2 C2.33 3.65 2.66 5.3 3 7 C4.32 6.67 5.64 6.34 7 6 C7 4.68 7 3.36 7 2 C6.01 1.67 5.02 1.34 4 1 C5.98 0.34 7.96 -0.32 10 -1 C10.12375 -0.484375 10.2475 0.03125 10.375 0.5625 C10.58125 1.366875 10.7875 2.17125 11 3 C11.4640625 4.8253125 11.4640625 4.8253125 11.9375 6.6875 C12.288125 7.780625 12.63875 8.87375 13 10 C13.66 10.33 14.32 10.66 15 11 C13.02 11.66 11.04 12.32 9 13 C9 11.68 9 10.36 9 9 C7.35 9 5.7 9 4 9 C4.33 9.99 4.66 10.98 5 12 C5.66 12.33 6.32 12.66 7 13 C6.34 15.31 5.68 17.62 5 20 C3.0636296 20.50435694 1.12585854 21.00333874 -0.8125 21.5 C-1.89144531 21.7784375 -2.97039062 22.056875 -4.08203125 22.34375 C-7 23 -7 23 -10 23 C-10 22.34 -10 21.68 -10 21 C-11.64333504 19.96210419 -13.31243867 18.96432076 -15 18 C-17 16 -17 16 -17.3125 12.5625 C-17 9 -17 9 -15.875 7.0625 C-13.214973 5.55515137 -10.99793795 5.80013747 -8 6 C-8 5.34 -8 4.68 -8 4 C-8.66 3.67 -9.32 3.34 -10 3 C-10.33 2.34 -10.66 1.68 -11 1 C-3.375 -1.125 -3.375 -1.125 0 0 Z " fill="#AC0112" transform="translate(117,148)"/>
<path d="M0 0 C1.875 0.8125 1.875 0.8125 4.875 2.8125 C5.205 3.8025 5.535 4.7925 5.875 5.8125 C6.390625 5.3175 6.90625 4.8225 7.4375 4.3125 C10.70429507 2.30216457 13.10920736 2.52828923 16.875 2.8125 C17.875 3.8125 17.875 3.8125 18 6.3125 C17.875 8.8125 17.875 8.8125 16.875 9.8125 C15.84375 9.833125 14.8125 9.85375 13.75 9.875 C8.81687316 11.06849843 7.30517474 13.20987797 4.2578125 17.09765625 C3.80148438 17.66355469 3.34515625 18.22945312 2.875 18.8125 C2.545 18.8125 2.215 18.8125 1.875 18.8125 C1.625 13.1875 1.625 13.1875 3.875 9.8125 C3.545 9.1525 3.215 8.4925 2.875 7.8125 C1.885 7.8125 0.895 7.8125 -0.125 7.8125 C0.535 8.1425 1.195 8.4725 1.875 8.8125 C1.545 10.7925 1.215 12.7725 0.875 14.8125 C-1.105 15.1425 -3.085 15.4725 -5.125 15.8125 C-5.455 16.8025 -5.785 17.7925 -6.125 18.8125 C-6.66898438 18.65007813 -7.21296875 18.48765625 -7.7734375 18.3203125 C-10.48750815 17.73421751 -12.97462013 17.68001919 -15.75 17.6875 C-16.71164063 17.68492188 -17.67328125 17.68234375 -18.6640625 17.6796875 C-21.12974769 17.64888917 -21.12974769 17.64888917 -23.125 18.8125 C-24.115 18.4825 -25.105 18.1525 -26.125 17.8125 C-25.55155063 14.94525314 -25.2635485 13.9510485 -23.125 11.8125 C-20.5 11.1875 -20.5 11.1875 -18.125 10.8125 C-18.640625 10.420625 -19.15625 10.02875 -19.6875 9.625 C-20.161875 9.026875 -20.63625 8.42875 -21.125 7.8125 C-20.8125 5.125 -20.8125 5.125 -20.125 2.8125 C-17.8125 2.125 -17.8125 2.125 -15.125 1.8125 C-13.3125 3.25 -13.3125 3.25 -12.125 4.8125 C-13.775 5.1425 -15.425 5.4725 -17.125 5.8125 C-16.795 6.8025 -16.465 7.7925 -16.125 8.8125 C-15.465 8.4825 -14.805 8.1525 -14.125 7.8125 C-14.125 8.8025 -14.125 9.7925 -14.125 10.8125 C-12.145 11.4725 -10.165 12.1325 -8.125 12.8125 C-8.785 10.8325 -9.445 8.8525 -10.125 6.8125 C-8.805 7.8025 -7.485 8.7925 -6.125 9.8125 C-6.455 7.5025 -6.785 5.1925 -7.125 2.8125 C-2.72834029 -0.24073591 -2.72834029 -0.24073591 0 0 Z " fill="#F9F8F6" transform="translate(97.125,42.1875)"/>
<path d="M0 0 C0.763125 0.061875 1.52625 0.12375 2.3125 0.1875 C1.77625 0.414375 1.24 0.64125 0.6875 0.875 C-3.15257179 2.99714494 -6.39610288 5.84998156 -9.4375 9 C-10.6875 10.1875 -10.6875 10.1875 -12.6875 10.1875 C-12.6875 10.8475 -12.6875 11.5075 -12.6875 12.1875 C-11.6975 12.1875 -10.7075 12.1875 -9.6875 12.1875 C-9.0275 11.1975 -8.3675 10.2075 -7.6875 9.1875 C-5.10981591 7.64088955 -2.61800279 6.81546488 0.3125 6.1875 C0.3125 6.8475 0.3125 7.5075 0.3125 8.1875 C1.3025 7.8575 2.2925 7.5275 3.3125 7.1875 C3.3125 7.8475 3.3125 8.5075 3.3125 9.1875 C2.3225 9.1875 1.3325 9.1875 0.3125 9.1875 C-0.0175 9.8475 -0.3475 10.5075 -0.6875 11.1875 C-2.63966435 13.13966435 -4.21949953 14.03576645 -6.6875 15.1875 C-6.6875 15.8475 -6.6875 16.5075 -6.6875 17.1875 C-6.0275 17.8475 -5.3675 18.5075 -4.6875 19.1875 C-11.92289616 24.16183486 -19.51228346 24.51266797 -28 24.4375 C-28.89267578 24.44523437 -29.78535156 24.45296875 -30.70507812 24.4609375 C-31.56166016 24.45835937 -32.41824219 24.45578125 -33.30078125 24.453125 C-34.07204346 24.45086914 -34.84330566 24.44861328 -35.63793945 24.44628906 C-37.6875 24.1875 -37.6875 24.1875 -40.6875 22.1875 C-37.3875 22.1875 -34.0875 22.1875 -30.6875 22.1875 C-33.3275 21.5275 -35.9675 20.8675 -38.6875 20.1875 C-38.3575 18.5375 -38.0275 16.8875 -37.6875 15.1875 C-37.3575 16.5075 -37.0275 17.8275 -36.6875 19.1875 C-36.0275 19.1875 -35.3675 19.1875 -34.6875 19.1875 C-34.3575 17.8675 -34.0275 16.5475 -33.6875 15.1875 C-25.41163793 13.94612069 -25.41163793 13.94612069 -21.6875 15.1875 C-20.6975 15.1875 -19.7075 15.1875 -18.6875 15.1875 C-18.6875 14.5275 -18.6875 13.8675 -18.6875 13.1875 C-19.81929687 13.21070313 -20.95109375 13.23390625 -22.1171875 13.2578125 C-23.59895175 13.27656901 -25.08072312 13.29476934 -26.5625 13.3125 C-27.30886719 13.32925781 -28.05523437 13.34601563 -28.82421875 13.36328125 C-30.77944461 13.3808959 -32.73492021 13.29070189 -34.6875 13.1875 C-35.3475 12.5275 -36.0075 11.8675 -36.6875 11.1875 C-35.7696875 11.21070312 -34.851875 11.23390625 -33.90625 11.2578125 C-22.37567061 11.42737984 -14.95939536 10.37459049 -5.6875 3.1875 C-5.1615625 2.63320312 -4.635625 2.07890625 -4.09375 1.5078125 C-2.6875 0.1875 -2.6875 0.1875 0 0 Z " fill="#4F1920" transform="translate(122.6875,115.8125)"/>
<path d="M0 0 C0.33 0 0.66 0 1 0 C1.0515625 0.64582031 1.103125 1.29164062 1.15625 1.95703125 C3.57681935 22.06426074 14.57572193 40.18534516 30.23046875 52.796875 C48.14730089 66.00798124 68.08934383 71.55765788 90.18945312 68.71875 C109.46387052 65.52750121 128.51612018 54.2427583 140.25 38.6875 C146.62641838 29.45712017 150.77269515 19.70705843 154 9 C154.66 9 155.32 9 156 9 C153.45474032 23.23754633 146.62335954 35.31160462 137 46 C136.40960938 46.68320313 135.81921875 47.36640625 135.2109375 48.0703125 C123.38874021 60.89865423 105.10810593 69.73655551 87.78857422 71.28759766 C84.52039694 71.39988406 81.26978429 71.40995019 78 71.375 C76.91460937 71.38660156 75.82921875 71.39820313 74.7109375 71.41015625 C53.67499114 71.33484857 36.92073118 62.28090566 22 48 C21.36191406 47.42507812 20.72382812 46.85015625 20.06640625 46.2578125 C8.423032 35.41832378 1.82637063 19.43492015 -1 4 C-0.6015625 1.55859375 -0.6015625 1.55859375 0 0 Z " fill="#1E1418" transform="translate(18,102)"/>
<path d="M0 0 C4.51894158 0.52679829 7.10467683 2.26278175 10.6875 5 C14.19686161 7.73625908 14.19686161 7.73625908 18 10 C18 10.66 18 11.32 18 12 C23.94 12.33 29.88 12.66 36 13 C36 13.66 36 14.32 36 15 C30.375 16.125 30.375 16.125 27 15 C26.01 15 25.02 15 24 15 C23.67 16.32 23.34 17.64 23 19 C23 17.68 23 16.36 23 15 C22.34 15 21.68 15 21 15 C20.67 16.32 20.34 17.64 20 19 C19.34 19 18.68 19 18 19 C17.67 18.34 17.34 17.68 17 17 C16.67 17.99 16.34 18.98 16 20 C16.9075 19.938125 17.815 19.87625 18.75 19.8125 C22.28982642 20.01672076 23.44931155 20.64551835 26 23 C18.59730225 23.26438206 11.00327565 22.91177099 5 18 C4.1875 15.3125 4.1875 15.3125 4 13 C4.99 12.67 5.98 12.34 7 12 C9 14 9 14 9 17 C9.66 15.35 10.32 13.7 11 12 C10.01 11.67 9.02 11.34 8 11 C7.67 10.34 7.34 9.68 7 9 C5.68 9 4.36 9 3 9 C3 8.01 3 7.02 3 6 C2.34 6 1.68 6 1 6 C1 7.32 1 8.64 1 10 C1.66 10.66 2.32 11.32 3 12 C2.01 12.33 1.02 12.66 0 13 C0 12.34 0 11.68 0 11 C-1.32 10.34 -2.64 9.68 -4 9 C-4 7.68 -4 6.36 -4 5 C-3.34 4.67 -2.68 4.34 -2 4 C-0.86649466 1.98330173 -0.86649466 1.98330173 0 0 Z " fill="#3C191E" transform="translate(68,116)"/>
<path d="M0 0 C0.66 0.33 1.32 0.66 2 1 C2 1.66 2 2.32 2 3 C2.99 3.33 3.98 3.66 5 4 C5 4.66 5 5.32 5 6 C5.66 6 6.32 6 7 6 C7.33 5.01 7.66 4.02 8 3 C8.66 3 9.32 3 10 3 C10.33 2.01 10.66 1.02 11 0 C11.66 0.33 12.32 0.66 13 1 C13 1.66 13 2.32 13 3 C13.99 3.33 14.98 3.66 16 4 C16 4.66 16 5.32 16 6 C16.66 6 17.32 6 18 6 C18.33 5.01 18.66 4.02 19 3 C19.66 3 20.32 3 21 3 C21.33 2.01 21.66 1.02 22 0 C22.66 0.33 23.32 0.66 24 1 C24 1.66 24 2.32 24 3 C24.66 3 25.32 3 26 3 C26 3.99 26 4.98 26 6 C25.01 6 24.02 6 23 6 C22.67 6.99 22.34 7.98 22 9 C21.01 8.34 20.02 7.68 19 7 C19.66 8.65 20.32 10.3 21 12 C20.01 12.33 19.02 12.66 18 13 C17.67 14.65 17.34 16.3 17 18 C15.68 18.33 14.36 18.66 13 19 C13 19.99 13 20.98 13 22 C12.34 22 11.68 22 11 22 C11 21.01 11 20.02 11 19 C10.01 19 9.02 19 8 19 C8 18.01 8 17.02 8 16 C8.66 16 9.32 16 10 16 C10 15.01 10 14.02 10 13 C9.01 13 8.02 13 7 13 C7 13.99 7 14.98 7 16 C6.34 16 5.68 16 5 16 C5 15.01 5 14.02 5 13 C4.01 13 3.02 13 2 13 C2.66 11.02 3.32 9.04 4 7 C3.01 7 2.02 7 1 7 C0.67 7.66 0.34 8.32 0 9 C0 8.01 0 7.02 0 6 C-0.99 6 -1.98 6 -3 6 C-3 5.34 -3 4.68 -3 4 C-2.34 4 -1.68 4 -1 4 C-0.67 2.68 -0.34 1.36 0 0 Z " fill="#272A2C" transform="translate(84,97)"/>
<path d="M0 0 C8.19202363 2.91580502 8.19202363 2.91580502 10 6 C10.23729308 8.71808433 10.13473014 11.2604872 10 14 C9.01 14.495 9.01 14.495 8 15 C8 14.34 8 13.68 8 13 C7.01 13 6.02 13 5 13 C4.34 14.32 3.68 15.64 3 17 C2.2575 16.835 1.515 16.67 0.75 16.5 C-2.19006578 15.88074304 -2.19006578 15.88074304 -6 16 C-6.33 16.33 -6.66 16.66 -7 17 C-8.99958364 17.04080783 -11.00045254 17.04254356 -13 17 C-12.34 16.67 -11.68 16.34 -11 16 C-11 15.34 -11 14.68 -11 14 C-10.01 13.34 -9.02 12.68 -8 12 C-7.67 11.34 -7.34 10.68 -7 10 C-4 8 -4 8 -1 8 C-1.99 7.67 -2.98 7.34 -4 7 C-4 6.34 -4 5.68 -4 5 C-6.46800047 6.15173355 -8.04783565 7.04783565 -10 9 C-10.66 9 -11.32 9 -12 9 C-13.62514468 10.45833358 -13.62514468 10.45833358 -15 12 C-15.66 11.67 -16.32 11.34 -17 11 C-17 10.34 -17 9.68 -17 9 C-16.360625 8.896875 -15.72125 8.79375 -15.0625 8.6875 C-14.0415625 8.3471875 -14.0415625 8.3471875 -13 8 C-12.67 7.01 -12.34 6.02 -12 5 C-8.04366008 1.04366008 -5.80845447 -0.9483191 0 0 Z " fill="#731620" transform="translate(127,117)"/>
<path d="M0 0 C2.28974755 2.94102305 4.23668626 5.97546883 6.125 9.1875 C7.82421779 12.27287764 7.82421779 12.27287764 10 15 C10.37125 13.63875 10.37125 13.63875 10.75 12.25 C12.05813046 8.8488608 13.07541935 7.15042695 16 5 C18.25 5.25 18.25 5.25 20 6 C20 5.34 20 4.68 20 4 C20.66 4 21.32 4 22 4 C21 7 21 7 19 8 C20.3089572 11.12197478 20.3089572 11.12197478 23 13 C23 13.66 23 14.32 23 15 C23.66 14.67 24.32 14.34 25 14 C24.649375 13.38125 24.29875 12.7625 23.9375 12.125 C23.4734375 11.073125 23.4734375 11.073125 23 10 C23.33 9.34 23.66 8.68 24 8 C24.66 8 25.32 8 26 8 C26 8.99 26 9.98 26 11 C27.32 10.67 28.64 10.34 30 10 C30.33 10.99 30.66 11.98 31 13 C32.32 13 33.64 13 35 13 C34.67 14.98 34.34 16.96 34 19 C33.34 19 32.68 19 32 19 C31 17.66666667 30 16.33333333 29 15 C28.34 15 27.68 15 27 15 C27.33 16.32 27.66 17.64 28 19 C24.66666667 19.66666667 21.33333333 20.33333333 18 21 C17.34 19.35 16.68 17.7 16 16 C15.34 16.33 14.68 16.66 14 17 C14.309375 17.598125 14.61875 18.19625 14.9375 18.8125 C16 21 16 21 17 24 C9.43761112 20.78303725 4.66065396 12.99243101 0.8125 6.04296875 C0 4 0 4 0 0 Z " fill="#4A191F" transform="translate(45,114)"/>
<path d="M0 0 C2.97 0.495 2.97 0.495 6 1 C7 4 7 4 5.3125 7.625 C3.36524033 10.84781653 3.36524033 10.84781653 0.75 11.9375 C0.1725 11.958125 -0.405 11.97875 -1 12 C-1 13.98 -1 15.96 -1 18 C-0.01 18.33 0.98 18.66 2 19 C2 19.99 2 20.98 2 22 C3.32 22 4.64 22 6 22 C5.67 21.01 5.34 20.02 5 19 C7.31 19 9.62 19 12 19 C12.495 17.515 12.495 17.515 13 16 C13.495 16.99 13.495 16.99 14 18 C13.505 19.485 13.505 19.485 13 21 C13.66 21.33 14.32 21.66 15 22 C13 24 13 24 10.47802734 24.22705078 C9.4411377 24.21657715 8.40424805 24.20610352 7.3359375 24.1953125 C6.21445313 24.18886719 5.09296875 24.18242188 3.9375 24.17578125 C2.761875 24.15902344 1.58625 24.14226562 0.375 24.125 C-0.80835937 24.11597656 -1.99171875 24.10695313 -3.2109375 24.09765625 C-6.14082523 24.07402812 -9.0703134 24.04108514 -12 24 C-13.125 20.25 -13.125 20.25 -12 18 C-13.32 17.67 -14.64 17.34 -16 17 C-15.67 16.34 -15.34 15.68 -15 15 C-13.68 15.66 -12.36 16.32 -11 17 C-11 17.66 -11 18.32 -11 19 C-10.34 19 -9.68 19 -9 19 C-9 17.35 -9 15.7 -9 14 C-13.29 14 -17.58 14 -22 14 C-22.33 13.34 -22.66 12.68 -23 12 C-19.56463366 10.93785775 -16.45633119 10.92960528 -12.875 11 C-8.78160572 11.20817858 -8.78160572 11.20817858 -5 10 C-4.67 10.66 -4.34 11.32 -4 12 C-3.5875 11.505 -3.175 11.01 -2.75 10.5 C-1 9 -1 9 3 9 C3.33 7.02 3.66 5.04 4 3 C1.525 2.505 1.525 2.505 -1 2 C-0.67 1.34 -0.34 0.68 0 0 Z " fill="#383B3C" transform="translate(95,48)"/>
<path d="M0 0 C0.33 1.32 0.66 2.64 1 4 C-0.134375 4.309375 -1.26875 4.61875 -2.4375 4.9375 C-5.78775099 5.62924531 -5.78775099 5.62924531 -7 7 C-7.48211925 11.65799969 -7.48211925 11.65799969 -5.75 15.8125 C-3.89667355 17.07011437 -2.0431838 18.08409002 0 19 C-0.66 19.99 -1.32 20.98 -2 22 C-4.06298828 22.34057617 -4.06298828 22.34057617 -6.5703125 22.29296875 C-7.46621094 22.28330078 -8.36210938 22.27363281 -9.28515625 22.26367188 C-10.69087891 22.2259668 -10.69087891 22.2259668 -12.125 22.1875 C-13.54232422 22.16719727 -13.54232422 22.16719727 -14.98828125 22.14648438 C-17.32608779 22.11106306 -19.66276237 22.06167271 -22 22 C-22 21.34 -22 20.68 -22 20 C-19.01353231 18.00902154 -16.40312738 17.05875074 -13 16 C-13.34778436 12.78299472 -13.50072404 11.40849852 -16.0625 9.3125 C-16.701875 8.879375 -17.34125 8.44625 -18 8 C-18 7.34 -18 6.68 -18 6 C-16.68 6 -15.36 6 -14 6 C-14 6.66 -14 7.32 -14 8 C-13.34 8 -12.68 8 -12 8 C-12 7.01 -12 6.02 -12 5 C-13.32 4.67 -14.64 4.34 -16 4 C-16 3.01 -16 2.02 -16 1 C-10.62915894 0.31798844 -5.41499441 -0.11521265 0 0 Z " fill="#B00112" transform="translate(108,150)"/>
<path d="M0 0 C4.66694688 1.18795012 9.01138787 2.99433971 13.4375 4.875 C8.89811604 15.45153421 8.89811604 15.45153421 6.4375 18.875 C5.4475 19.205 4.4575 19.535 3.4375 19.875 C2.7775 18.555 2.1175 17.235 1.4375 15.875 C-0.2125 15.875 -1.8625 15.875 -3.5625 15.875 C-3.4903125 15.26011719 -3.418125 14.64523438 -3.34375 14.01171875 C-3.2509375 13.20347656 -3.158125 12.39523438 -3.0625 11.5625 C-2.9696875 10.76199219 -2.876875 9.96148437 -2.78125 9.13671875 C-2.51436537 6.75603445 -2.51436537 6.75603445 -2.5625 3.875 C-3.5525 3.215 -4.5425 2.555 -5.5625 1.875 C-2.5625 -0.125 -2.5625 -0.125 0 0 Z " fill="#AE0112" transform="translate(116.5625,18.125)"/>
<path d="M0 0 C1.875 0.8125 1.875 0.8125 4.875 2.8125 C5.205 3.8025 5.535 4.7925 5.875 5.8125 C6.390625 5.3175 6.90625 4.8225 7.4375 4.3125 C10.70429507 2.30216457 13.10920736 2.52828923 16.875 2.8125 C17.875 3.8125 17.875 3.8125 18 6.3125 C17.875 8.8125 17.875 8.8125 16.875 9.8125 C15.84375 9.833125 14.8125 9.85375 13.75 9.875 C8.81687316 11.06849843 7.30517474 13.20987797 4.2578125 17.09765625 C3.80148438 17.66355469 3.34515625 18.22945312 2.875 18.8125 C2.545 18.8125 2.215 18.8125 1.875 18.8125 C1.625 13.1875 1.625 13.1875 3.875 9.8125 C3.545 9.1525 3.215 8.4925 2.875 7.8125 C0.34766765 7.15694881 0.34766765 7.15694881 -2.125 6.8125 C-2.785 8.4625 -3.445 10.1125 -4.125 11.8125 C-6.07552208 9.61816266 -7.05770961 8.15736324 -7.625 5.25 C-7.125 2.8125 -7.125 2.8125 -4.875 0.9375 C-2.125 -0.1875 -2.125 -0.1875 0 0 Z " fill="#8A8B8A" transform="translate(97.125,42.1875)"/>
<path d="M0 0 C0 0.99 0 1.98 0 3 C-4.67771306 6.71628587 -9.95874718 9.74292541 -16 10 C-16.67546875 10.04898438 -17.3509375 10.09796875 -18.046875 10.1484375 C-27.06866324 10.55286249 -34.10474961 7.72159075 -41 2 C-41 1.34 -41 0.68 -41 0 C-36.7267229 -0.30579414 -33.93684923 0.67733877 -30.0625 2.4375 C-23.23284107 5.7028911 -23.23284107 5.7028911 -15.9453125 5.328125 C-15.34460938 4.97234375 -14.74390625 4.6165625 -14.125 4.25 C-3.37088665 -1.68544333 -3.37088665 -1.68544333 0 0 Z " fill="#F7EEEC" transform="translate(116,118)"/>
<path d="M0 0 C1.09731445 0.01353516 1.09731445 0.01353516 2.21679688 0.02734375 C3.99884298 0.05063847 5.78071759 0.0864981 7.5625 0.125 C7.5625 0.455 7.5625 0.785 7.5625 1.125 C6.1703125 1.2796875 6.1703125 1.2796875 4.75 1.4375 C1.4120811 2.15744329 0.71103242 2.66953438 -1.4375 5.125 C-2.4275 5.455 -3.4175 5.785 -4.4375 6.125 C-4.1075 9.425 -3.7775 12.725 -3.4375 16.125 C-4.4275 15.135 -5.4175 14.145 -6.4375 13.125 C-6.1075 14.115 -5.7775 15.105 -5.4375 16.125 C-9.51355096 16.125 -12.2213181 14.57227466 -15.4375 12.125 C-16.375 9.875 -16.375 9.875 -16.4375 8.125 C-14.7875 7.795 -13.1375 7.465 -11.4375 7.125 C-14.0775 6.135 -16.7175 5.145 -19.4375 4.125 C-13.16612467 0.61302981 -7.02877386 -0.16719865 0 0 Z " fill="#EDEDEA" transform="translate(95.4375,38.875)"/>
<path d="M0 0 C1.32 0 2.64 0 4 0 C4 1.32 4 2.64 4 4 C5.32 4.66 6.64 5.32 8 6 C8 6.66 8 7.32 8 8 C3.32678776 9.33873275 -1.23477946 9.18406878 -6.0625 9.1875 C-6.97322266 9.19974609 -7.88394531 9.21199219 -8.82226562 9.22460938 C-10.13420898 9.22750977 -10.13420898 9.22750977 -11.47265625 9.23046875 C-12.26937744 9.23457764 -13.06609863 9.23868652 -13.88696289 9.24291992 C-16 9 -16 9 -19 7 C-15.7 7 -12.4 7 -9 7 C-11.64 6.34 -14.28 5.68 -17 5 C-16.67 3.35 -16.34 1.7 -16 0 C-15.67 1.32 -15.34 2.64 -15 4 C-14.34 4 -13.68 4 -13 4 C-12.67 2.68 -12.34 1.36 -12 0 C-7.63520536 -0.93531314 -4.36269112 -0.85357 0 0 Z " fill="#472328" transform="translate(101,131)"/>
<path d="M0 0 C0.33 0 0.66 0 1 0 C1.0515625 0.64582031 1.103125 1.29164062 1.15625 1.95703125 C3.57681935 22.06426074 14.57572193 40.18534516 30.23046875 52.796875 C40.25845904 60.19108644 50.7908795 65.2055379 62.93408203 67.75854492 C64.63460109 68.12046112 66.31957373 68.55400007 68 69 C68.33 69.66 68.66 70.32 69 71 C50.57648062 70.91142539 34.81606703 60.26649297 22 48 C21.36191406 47.42507812 20.72382812 46.85015625 20.06640625 46.2578125 C8.423032 35.41832378 1.82637063 19.43492015 -1 4 C-0.6015625 1.55859375 -0.6015625 1.55859375 0 0 Z " fill="#211518" transform="translate(18,102)"/>
<path d="M0 0 C2.9375 0.5625 2.9375 0.5625 5.375 2.125 C6.9375 4.5625 6.9375 4.5625 6.9375 8.125 C5.9375 11.5625 5.9375 11.5625 4.25 13.5 C1.20147123 14.90067538 -0.74176952 15.0467732 -4.0625 14.5625 C-6.81431556 12.60726263 -7.86417555 11.42190593 -8.625 8.125 C-7.57558859 3.34434802 -4.74576465 0.87167106 0 0 Z " fill="#240D12" transform="translate(139.0625,138.4375)"/>
<path d="M0 0 C3.375 0.875 3.375 0.875 5.375 2.875 C5.80744601 6.76701406 5.95346465 9.00730302 3.75 12.3125 C0.65814769 14.34661336 -0.98867425 14.48105429 -4.625 13.875 C-7.0625 12.25 -7.0625 12.25 -8.625 9.875 C-8.625 6.29413628 -7.98211105 4.41066658 -6 1.4375 C-3.625 -0.125 -3.625 -0.125 0 0 Z " fill="#1F0D12" transform="translate(152.625,125.125)"/>
<path d="M0 0 C2.375 1.5625 2.375 1.5625 4 4 C4.42519574 7.46230815 4.63902633 9.8347167 2.9375 12.9375 C-0.11976176 14.6140629 -2.5906288 14.36528977 -6 14 C-7.9375 13 -7.9375 13 -9 11 C-9.5327028 7.39862897 -9.68723346 4.22174836 -7.875 1 C-5.05480125 -0.504106 -3.14389944 -0.44912849 0 0 Z " fill="#260D12" transform="translate(162,62)"/>
<path d="M0 0 C3.375 0.9375 3.375 0.9375 5.375 3.9375 C5.5703125 6.41796875 5.5703125 6.41796875 5.5 9.125 C5.48195313 10.02605469 5.46390625 10.92710938 5.4453125 11.85546875 C5.41050781 12.88607422 5.41050781 12.88607422 5.375 13.9375 C4.715 13.9375 4.055 13.9375 3.375 13.9375 C3.375 13.2775 3.375 12.6175 3.375 11.9375 C-2.565 12.4325 -2.565 12.4325 -8.625 12.9375 C-8.145 4.7775 -8.145 4.7775 -6 1.3125 C-3.625 -0.0625 -3.625 -0.0625 0 0 Z " fill="#250D12" transform="translate(29.625,81.0625)"/>
<path d="M0 0 C1.65 1.32 3.3 2.64 5 4 C4.67 5.65 4.34 7.3 4 9 C2.68 8.67 1.36 8.34 0 8 C-0.33 8.66 -0.66 9.32 -1 10 C-7.65123899 11.53047541 -13.13338917 11.54441071 -19 8 C-22 4.80645161 -22 4.80645161 -22 2 C-21.2265625 2.4640625 -21.2265625 2.4640625 -20.4375 2.9375 C-17.22117828 4.33948639 -14.50537621 4.81550652 -11 5 C-8.21692394 3.66457328 -8.21692394 3.66457328 -6 2 C-4 2 -2 2 0 2 C0 1.34 0 0.68 0 0 Z " fill="#B81926" transform="translate(109,81)"/>
<path d="M0 0 C0.99 1.98 1.98 3.96 3 6 C1.47782754 7.85307951 -0.06425595 9.67987728 -1.625 11.5 C-2.05167969 12.02464844 -2.47835937 12.54929688 -2.91796875 13.08984375 C-5.37897528 15.91816469 -6.5448334 16.95309759 -10.3359375 17.34375 C-11.21507813 17.2303125 -12.09421875 17.116875 -13 17 C-12.34 16.67 -11.68 16.34 -11 16 C-11 15.34 -11 14.68 -11 14 C-10.01 13.34 -9.02 12.68 -8 12 C-7.67 11.34 -7.34 10.68 -7 10 C-4 8 -4 8 -1 8 C-1.99 7.67 -2.98 7.34 -4 7 C-4 6.34 -4 5.68 -4 5 C-6.46800047 6.15173355 -8.04783565 7.04783565 -10 9 C-10.66 9 -11.32 9 -12 9 C-13.62514468 10.45833358 -13.62514468 10.45833358 -15 12 C-15.66 11.67 -16.32 11.34 -17 11 C-17 10.34 -17 9.68 -17 9 C-16.360625 8.896875 -15.72125 8.79375 -15.0625 8.6875 C-14.0415625 8.3471875 -14.0415625 8.3471875 -13 8 C-12.67 7.01 -12.34 6.02 -12 5 C-7.97751434 0.97751434 -5.91062228 -0.70364551 0 0 Z " fill="#151014" transform="translate(127,117)"/>
<path d="M0 0 C2.04119788 1.61594832 4.04072937 3.2856382 6 5 C6 5.66 6 6.32 6 7 C6.66 6.67 7.32 6.34 8 6 C7.649375 5.38125 7.29875 4.7625 6.9375 4.125 C6.628125 3.42375 6.31875 2.7225 6 2 C6.33 1.34 6.66 0.68 7 0 C7.66 0 8.32 0 9 0 C9 0.99 9 1.98 9 3 C10.32 2.67 11.64 2.34 13 2 C13.33 2.99 13.66 3.98 14 5 C15.32 5 16.64 5 18 5 C17.67 6.98 17.34 8.96 17 11 C16.34 11 15.68 11 15 11 C13.5 9 13.5 9 12 7 C11.34 7 10.68 7 10 7 C10.33 8.32 10.66 9.64 11 11 C7.66666667 11.66666667 4.33333333 12.33333333 1 13 C0.67 12.34 0.34 11.68 0 11 C0.66 10.67 1.32 10.34 2 10 C1.34 9.01 0.68 8.02 0 7 C-0.07905064 4.66800612 -0.08798769 2.33167378 0 0 Z " fill="#38151A" transform="translate(62,122)"/>
<path d="M0 0 C8.58 0 17.16 0 26 0 C24 3 24 3 20.875 3.6875 C19.92625 3.790625 18.9775 3.89375 18 4 C18 4.33 18 4.66 18 5 C6.45 5 -5.1 5 -17 5 C-17 4.67 -17 4.34 -17 4 C-11.06 3.67 -5.12 3.34 1 3 C0.67 2.01 0.34 1.02 0 0 Z " fill="#F0E4E2" transform="translate(83,72)"/>
<path d="M0 0 C1.5 1.375 1.5 1.375 3 3 C3 3.66 3 4.32 3 5 C1.68 5.33 0.36 5.66 -1 6 C-0.34 7.32 0.32 8.64 1 10 C2.65 9.34 4.3 8.68 6 8 C6.33 9.65 6.66 11.3 7 13 C6.13375 13.268125 5.2675 13.53625 4.375 13.8125 C1.08208036 14.97111987 -1.91127875 16.38209839 -5 18 C-5.66 16.35 -6.32 14.7 -7 13 C-5.35 12.67 -3.7 12.34 -2 12 C-2.33 10.35 -2.66 8.7 -3 7 C-4.98 7.99 -6.96 8.98 -9 10 C-9.66 8.35 -10.32 6.7 -11 5 C-7.37 4.01 -3.74 3.02 0 2 C0 1.34 0 0.68 0 0 Z " fill="#250D12" transform="translate(38,115)"/>
<path d="M0 0 C2 1 2 1 3.0625 3.8125 C3.59718187 5.63041834 4.09954182 7.46038093 4.5 9.3125 C4.665 9.869375 4.83 10.42625 5 11 C5.66 11.33 6.32 11.66 7 12 C5.02 12.66 3.04 13.32 1 14 C1 12.68 1 11.36 1 10 C-0.65 10 -2.3 10 -4 10 C-3.67 10.99 -3.34 11.98 -3 13 C-2.34 13.33 -1.68 13.66 -1 14 C-1 14.66 -1 15.32 -1 16 C-2.65 16.33 -4.3 16.66 -6 17 C-6.27714844 16.30132812 -6.55429688 15.60265625 -6.83984375 14.8828125 C-7.20207031 13.97273437 -7.56429687 13.06265625 -7.9375 12.125 C-8.29714844 11.22007812 -8.65679687 10.31515625 -9.02734375 9.3828125 C-9.94901262 7.03862333 -9.94901262 7.03862333 -11 5 C-9.35 4.34 -7.7 3.68 -6 3 C-5.67 4.65 -5.34 6.3 -5 8 C-3.68 7.67 -2.36 7.34 -1 7 C-1 5.68 -1 4.36 -1 3 C-1.99 2.67 -2.98 2.34 -4 2 C-2.125 0.9375 -2.125 0.9375 0 0 Z " fill="#220D12" transform="translate(125,147)"/>
<path d="M0 0 C1.98 0.66 3.96 1.32 6 2 C5.01 3.98 4.02 5.96 3 8 C4.65 8 6.3 8 8 8 C8.33 6.68 8.66 5.36 9 4 C11.475 4.99 11.475 4.99 14 6 C13.01 6.495 13.01 6.495 12 7 C11.08719862 9.57437581 11.08719862 9.57437581 10.375 12.5625 C10.11460938 13.57441406 9.85421875 14.58632812 9.5859375 15.62890625 C9.39257812 16.41136719 9.19921875 17.19382813 9 18 C6.525 17.01 6.525 17.01 4 16 C4.66 15.67 5.32 15.34 6 15 C6.65555119 12.47266765 6.65555119 12.47266765 7 10 C5.35 10 3.7 10 2 10 C1.67 11.32 1.34 12.64 1 14 C-0.65 13.67 -2.3 13.34 -4 13 C-4 12.34 -4 11.68 -4 11 C-3.34 11 -2.68 11 -2 11 C-0.57741188 7.17679443 0.24042276 4.08718695 0 0 Z " fill="#230D12" transform="translate(64,146)"/>
<path d="M0 0 C0.78375 0.804375 1.5675 1.60875 2.375 2.4375 C5.94443265 5.92194616 8.70450119 6.08737506 13.546875 6.31640625 C14.39121094 6.35830078 15.23554687 6.40019531 16.10546875 6.44335938 C17.41451172 6.50233398 17.41451172 6.50233398 18.75 6.5625 C19.63816406 6.60568359 20.52632812 6.64886719 21.44140625 6.69335938 C23.62745963 6.79913615 25.81362089 6.90122546 28 7 C28 7.33 28 7.66 28 8 C23.39184965 8.02478935 18.78373847 8.0429023 14.17553711 8.05493164 C12.60912398 8.05994856 11.0427155 8.06676362 9.47631836 8.07543945 C7.21987761 8.08762094 4.96349898 8.09325481 2.70703125 8.09765625 C1.66298882 8.10539818 1.66298882 8.10539818 0.59785461 8.11329651 C-3.06470152 8.11371546 -6.43868858 7.87148095 -10 7 C-9.34 6.01 -8.68 5.02 -8 4 C-7.01 4 -6.02 4 -5 4 C-5 3.01 -5 2.02 -5 1 C-2 0 -2 0 0 0 Z " fill="#A50614" transform="translate(88,85)"/>
<path d="M0 0 C0.33 0.66 0.66 1.32 1 2 C0.67 2.99 0.34 3.98 0 5 C0.66 5.33 1.32 5.66 2 6 C0 8 0 8 -2.52197266 8.22705078 C-3.5588623 8.21657715 -4.59575195 8.20610352 -5.6640625 8.1953125 C-6.78554687 8.18886719 -7.90703125 8.18242188 -9.0625 8.17578125 C-10.238125 8.15902344 -11.41375 8.14226562 -12.625 8.125 C-14.40003906 8.11146484 -14.40003906 8.11146484 -16.2109375 8.09765625 C-19.14082523 8.07402812 -22.0703134 8.04108514 -25 8 C-25.33 7.01 -25.66 6.02 -26 5 C-24.68 4.67 -23.36 4.34 -22 4 C-22 4.99 -22 5.98 -22 7 C-21.4225 6.649375 -20.845 6.29875 -20.25 5.9375 C-17.64198224 4.85082593 -16.60582371 5.06934867 -14 6 C-14 5.01 -14 4.02 -14 3 C-13.01 3 -12.02 3 -11 3 C-11 3.99 -11 4.98 -11 6 C-9.68 6 -8.36 6 -7 6 C-7.33 5.01 -7.66 4.02 -8 3 C-5.69 3 -3.38 3 -1 3 C-0.67 2.01 -0.34 1.02 0 0 Z " fill="#0A0D0F" transform="translate(108,64)"/>
<path d="M0 0 C0.66 0 1.32 0 2 0 C1.55530671 5.03985731 -0.71343362 7.37634988 -4 11 C-0.535 10.505 -0.535 10.505 3 10 C2.67 11.32 2.34 12.64 2 14 C-1.96 14 -5.92 14 -10 14 C-8.25618453 10.51236907 -6.47193291 7.96631949 -4 5 C-6.97 4.505 -6.97 4.505 -10 4 C-10.33 4.66 -10.66 5.32 -11 6 C-11 4.68 -11 3.36 -11 2 C-7.37 2 -3.74 2 0 2 C0 1.34 0 0.68 0 0 Z " fill="#290D12" transform="translate(168,79)"/>
<path d="M0 0 C1.43655854 -0.08131463 2.8744483 -0.13933559 4.3125 -0.1875 C5.51326172 -0.23970703 5.51326172 -0.23970703 6.73828125 -0.29296875 C9 0 9 0 10.78125 1.34375 C12.44546615 3.60537707 12.22189312 5.26331821 12 8 C9.07175348 8.97608217 7.04386724 9.08226668 4 9 C4 8.01 4 7.02 4 6 C1.69 6 -0.62 6 -3 6 C-1.68 4.68 -0.36 3.36 1 2 C0.67 1.34 0.34 0.68 0 0 Z " fill="#B7B8B6" transform="translate(108,53)"/>
<path d="M0 0 C2.97 0 5.94 0 9 0 C9.33 0.99 9.66 1.98 10 3 C10.66 3 11.32 3 12 3 C12 3.66 12 4.32 12 5 C9.69 5 7.38 5 5 5 C5.495 5.61875 5.99 6.2375 6.5 6.875 C8 9 8 9 8 11 C3.31261335 10.09276387 -1.34193744 9.0452733 -6 8 C-5.34 6.35 -4.68 4.7 -4 3 C-3.34 3 -2.68 3 -2 3 C-2 3.99 -2 4.98 -2 6 C-0.35 6 1.3 6 3 6 C2.2575 5.071875 2.2575 5.071875 1.5 4.125 C0 2 0 2 0 0 Z " fill="#210D12" transform="translate(35,52)"/>
<path d="M0 0 C0.33 1.32 0.66 2.64 1 4 C-0.19625 4.515625 -1.3925 5.03125 -2.625 5.5625 C-6.7030932 7.56895083 -9.11903236 10.03994388 -11.87109375 13.609375 C-12.24363281 14.06828125 -12.61617188 14.5271875 -13 15 C-13.33 15 -13.66 15 -14 15 C-14.58353108 11.6655367 -14.46121107 9.66457973 -12.51171875 6.85546875 C-6.39905785 -0.16839626 -6.39905785 -0.16839626 0 0 Z " fill="#F7F7F4" transform="translate(113,46)"/>
<path d="M0 0 C8.83265748 3.741344 13.4795497 14.65119217 17 23 C19.13606073 28.91911777 19.2410987 34.23515028 19.125 40.4375 C19.11597656 41.35982422 19.10695312 42.28214844 19.09765625 43.23242188 C19.0742766 45.48855809 19.04150916 47.74413684 19 50 C18.67 50 18.34 50 18 50 C17.97421875 48.92363281 17.9484375 47.84726563 17.921875 46.73828125 C17.34018824 29.82461996 13.19197127 15.05209074 1.3203125 2.4609375 C0 1 0 1 0 0 Z " fill="#1D1316" transform="translate(133,52)"/>
<path d="M0 0 C3.625 0.375 3.625 0.375 7 1 C7 1.99 7 2.98 7 4 C6.34 4 5.68 4 5 4 C5 3.34 5 2.68 5 2 C3.68 2 2.36 2 1 2 C1.804375 2.721875 2.60875 3.44375 3.4375 4.1875 C6.00920966 7.01010816 6.89834392 8.23872509 7 12 C6.34 12.66 5.68 13.32 5 14 C2.27130593 13.96712417 -0.2966618 13.43602229 -3 13 C-3 11.68 -3 10.36 -3 9 C-2.34 9 -1.68 9 -1 9 C-1 9.99 -1 10.98 -1 12 C0.65 12 2.3 12 4 12 C4 11.01 4 10.02 4 9 C3.195625 8.773125 2.39125 8.54625 1.5625 8.3125 C-1 7 -1 7 -1.9375 4.5 C-1.958125 3.675 -1.97875 2.85 -2 2 C-1.34 1.34 -0.68 0.68 0 0 Z " fill="#2E0C12" transform="translate(89,154)"/>
<path d="M0 0 C3.4375 1 3.4375 1 5.4375 2.875 C6.4375 5 6.4375 5 5.4375 8 C5.19 7.360625 4.9425 6.72125 4.6875 6.0625 C3.62018429 3.8624253 3.62018429 3.8624253 1.5 3.125 C-0.87578252 2.77261893 -0.87578252 2.77261893 -3.5625 5 C-3.8127157 8.08365871 -3.8127157 8.08365871 -3.5625 11 C-2.5725 11.33 -1.5825 11.66 -0.5625 12 C-0.5625 11.01 -0.5625 10.02 -0.5625 9 C0.7575 9.66 2.0775 10.32 3.4375 11 C2.4475 12.485 2.4475 12.485 1.4375 14 C-3.92420213 13.40425532 -3.92420213 13.40425532 -6.4375 11.8125 C-8.14808918 9.05655076 -8.01589217 7.17374516 -7.5625 4 C-5.27647022 0.43379354 -4.27192374 0 0 0 Z " fill="#260D12" transform="translate(54.5625,139)"/>
<path d="M0 0 C3.9437753 0.73372564 5.7701197 2.78615786 8.6875 5.5 C8.3575 6.49 8.0275 7.48 7.6875 8.5 C4.7175 8.005 4.7175 8.005 1.6875 7.5 C1.6875 6.51 1.6875 5.52 1.6875 4.5 C1.0275 4.5 0.3675 4.5 -0.3125 4.5 C-0.3125 5.82 -0.3125 7.14 -0.3125 8.5 C0.3475 9.16 1.0075 9.82 1.6875 10.5 C0.6975 10.83 -0.2925 11.16 -1.3125 11.5 C-1.3125 10.84 -1.3125 10.18 -1.3125 9.5 C-2.6325 8.84 -3.9525 8.18 -5.3125 7.5 C-5.3125 3.5 -5.3125 3.5 -4.125 1.75 C-2.3125 0.5 -2.3125 0.5 0 0 Z " fill="#131316" transform="translate(69.3125,117.5)"/>
<path d="M0 0 C1.65 1.65 3.3 3.3 5 5 C5.66 3.68 6.32 2.36 7 1 C8.65 1.33 10.3 1.66 12 2 C11.67 3.98 11.34 5.96 11 8 C9.02 8.33 7.04 8.66 5 9 C4.67 9.99 4.34 10.98 4 12 C2.02 11.01 0.04 10.02 -2 9 C-2 8.01 -2 7.02 -2 6 C-1.01 6 -0.02 6 1 6 C1.15811388 2.94729537 1.15811388 2.94729537 0 0 Z " fill="#B5B5B4" transform="translate(87,49)"/>
<path d="M0 0 C2.05078125 0.03255208 4.1015625 0.06510417 6.15234375 0.09765625 C6.15234375 1.41765625 6.15234375 2.73765625 6.15234375 4.09765625 C7.47234375 4.75765625 8.79234375 5.41765625 10.15234375 6.09765625 C10.15234375 6.75765625 10.15234375 7.41765625 10.15234375 8.09765625 C6.52234375 8.09765625 2.89234375 8.09765625 -0.84765625 8.09765625 C-0.18765625 7.76765625 0.47234375 7.43765625 1.15234375 7.09765625 C-0.16765625 6.76765625 -1.48765625 6.43765625 -2.84765625 6.09765625 C-2.89037725 4.4315372 -2.88829457 2.7638274 -2.84765625 1.09765625 C-1.84765625 0.09765625 -1.84765625 0.09765625 0 0 Z " fill="#444244" transform="translate(98.84765625,130.90234375)"/>
<path d="M0 0 C1.9375 0.9375 1.9375 0.9375 4 3 C4.66174825 5.9858081 4.87205948 8.94861869 5 12 C6.32 10.35 7.64 8.7 9 7 C9.66 7.33 10.32 7.66 11 8 C11 8.66 11 9.32 11 10 C9.50390625 11.4375 9.50390625 11.4375 7.5625 13 C4.84811762 15.14525044 4.84811762 15.14525044 3 18 C2.34 18 1.68 18 1 18 C1 14.04 1 10.08 1 6 C-0.98 6.99 -0.98 6.99 -3 8 C-2.5359375 7.13375 -2.5359375 7.13375 -2.0625 6.25 C-1.07416636 4.15705816 -0.4831387 2.25464725 0 0 Z " fill="#2B0C12" transform="translate(137,31)"/>
<path d="M0 0 C0.66 0 1.32 0 2 0 C1.52450066 2.62571335 1.04477433 5.2505304 0.5625 7.875 C0.42779297 8.62136719 0.29308594 9.36773437 0.15429688 10.13671875 C-0.88671875 15.7734375 -0.88671875 15.7734375 -2 18 C-2.15222973 19.66565749 -2.24917215 21.33656496 -2.31640625 23.0078125 C-2.35830078 23.99394531 -2.40019531 24.98007813 -2.44335938 25.99609375 C-2.48267578 27.02863281 -2.52199219 28.06117187 -2.5625 29.125 C-2.60568359 30.16527344 -2.64886719 31.20554687 -2.69335938 32.27734375 C-2.7996288 34.85142528 -2.90166583 37.42560508 -3 40 C-5.45962408 36.31056388 -5.34359487 33.46021805 -5.3125 29.1875 C-5.30976074 28.43428467 -5.30702148 27.68106934 -5.30419922 26.9050293 C-5.13279221 17.54758595 -3.04757767 8.83797525 0 0 Z " fill="#363436" transform="translate(21,64)"/>
<path d="M0 0 C0.99 0.33 1.98 0.66 3 1 C2 4 2 4 -1 6 C1.97 6.495 1.97 6.495 5 7 C5 8.65 5 10.3 5 12 C4.01 11.67 3.02 11.34 2 11 C2.66 11 3.32 11 4 11 C3.34 10.34 2.68 9.68 2 9 C-0.0480428 9.0950739 -0.0480428 9.0950739 -2 10 C-2.99 11.485 -2.99 11.485 -4 13 C-6.625 13.1875 -6.625 13.1875 -9 13 C-9 9 -9 9 -6.75 6.5 C-5.38875 5.2625 -5.38875 5.2625 -4 4 C-3.236875 3.236875 -2.47375 2.47375 -1.6875 1.6875 C-1.130625 1.130625 -0.57375 0.57375 0 0 Z " fill="#9A9A9A" transform="translate(107,52)"/>
<path d="M0 0 C0.99 0 1.98 0 3 0 C2.56179109 4.55737263 2.14958831 7.57653445 -1 11 C-2.0725 10.525625 -3.145 10.05125 -4.25 9.5625 C-6.80839865 8.46233668 -9.25835017 7.54832997 -12 7 C-11.67 5.35 -11.34 3.7 -11 2 C-10.67 2.66 -10.34 3.32 -10 4 C-8.68 3.67 -7.36 3.34 -6 3 C-6.33 2.34 -6.66 1.68 -7 1 C-5.35 1.33 -3.7 1.66 -2 2 C-2.99 2.495 -2.99 2.495 -4 3 C-4 3.66 -4 4.32 -4 5 C-2.35 5.33 -0.7 5.66 1 6 C0.67 4.02 0.34 2.04 0 0 Z " fill="#290D12" transform="translate(36,68)"/>
<path d="M0 0 C-0.33 0.99 -0.66 1.98 -1 3 C-1.99 2.67 -2.98 2.34 -4 2 C-3.34 5.3 -2.68 8.6 -2 12 C-1.01 12.33 -0.02 12.66 1 13 C-1.31 13.66 -3.62 14.32 -6 15 C-5.95875 14.113125 -5.9175 13.22625 -5.875 12.3125 C-5.99897246 9.02722987 -6.61387904 6.94550705 -8 4 C-9.32 4.99 -10.64 5.98 -12 7 C-12.33 5.68 -12.66 4.36 -13 3 C-11.58603098 2.49242138 -10.16868271 1.99425075 -8.75 1.5 C-7.96109375 1.2215625 -7.1721875 0.943125 -6.359375 0.65625 C-4 0 -4 0 0 0 Z " fill="#2B0C12" transform="translate(80,21)"/>
<path d="M0 0 C5.5952381 0.5952381 5.5952381 0.5952381 8 3 C8.125 5.625 8.125 5.625 8 8 C5.8125 8.75 5.8125 8.75 3 9 C0.1875 7.0625 0.1875 7.0625 -2 5 C-1.125 1.125 -1.125 1.125 0 0 Z " fill="#AC0113" transform="translate(148,128)"/>
<path d="M0 0 C0.57234375 0.21527344 1.1446875 0.43054688 1.734375 0.65234375 C0.744375 1.31234375 -0.245625 1.97234375 -1.265625 2.65234375 C-0.0164508 6.11159538 1.40965295 8.79927578 3.734375 11.65234375 C2.414375 12.64234375 1.094375 13.63234375 -0.265625 14.65234375 C-0.925625 14.32234375 -1.585625 13.99234375 -2.265625 13.65234375 C-2.63110945 12.32746262 -2.9593816 10.99215861 -3.265625 9.65234375 C-4.06559157 7.4683574 -4.06559157 7.4683574 -5.265625 5.65234375 C-6.255625 5.32234375 -7.245625 4.99234375 -8.265625 4.65234375 C-8.595625 5.97234375 -8.925625 7.29234375 -9.265625 8.65234375 C-9.595625 7.33234375 -9.925625 6.01234375 -10.265625 4.65234375 C-9.02618224 3.78292881 -7.77355441 2.93228918 -6.515625 2.08984375 C-5.81953125 1.61417969 -5.1234375 1.13851563 -4.40625 0.6484375 C-2.265625 -0.34765625 -2.265625 -0.34765625 0 0 Z " fill="#280D12" transform="translate(62.265625,28.34765625)"/>
<path d="M0 0 C4.55015893 1.51671964 6.50057264 5.16891053 9 9 C8.01 9.99 7.02 10.98 6 12 C6 10.35 6 8.7 6 7 C4.7035649 7.76278623 3.41300852 8.53556959 2.125 9.3125 C1.40570313 9.74175781 0.68640625 10.17101563 -0.0546875 10.61328125 C-2.26846333 12.01752375 -2.26846333 12.01752375 -4 15 C-5.32 13.02 -6.64 11.04 -8 9 C-7.278125 8.938125 -6.55625 8.87625 -5.8125 8.8125 C-2.15342375 7.75543353 -0.50788398 5.79449929 2 3 C1.01 2.34 0.02 1.68 -1 1 C-0.67 0.67 -0.34 0.34 0 0 Z " fill="#220D12" transform="translate(151,45)"/>
<path d="M0 0 C2.35651971 0.31420263 3.8102945 0.86449607 5.75 2.25 C7.41263573 4.57769003 7.22659445 6.20533514 7 9 C4.75 9.75 4.75 9.75 2 10 C-0.375 8.375 -0.375 8.375 -2 6 C-1.7 1.7 -1.7 1.7 0 0 Z " fill="#B10112" transform="translate(136,141)"/>
<path d="M0 0 C1 1 1 1 1.0625 3.5625 C1.041875 4.366875 1.02125 5.17125 1 6 C-2.13498292 7.85776765 -4.37471432 8.20140476 -8 8 C-8.33 6.35 -8.66 4.7 -9 3 C-5.94805196 0.2871573 -4.08353283 -0.44146301 0 0 Z " fill="#AF0112" transform="translate(163,65)"/>
<path d="M0 0 C0 0.66 0 1.32 0 2 C0.99 1.67 1.98 1.34 3 1 C3 1.66 3 2.32 3 3 C2.01 3 1.02 3 0 3 C-0.33 3.66 -0.66 4.32 -1 5 C-3 7 -3 7 -5.0625 8 C-7.16865601 8.84589942 -7.16865601 8.84589942 -8 11 C-9.32 10.67 -10.64 10.34 -12 10 C-12 7 -12 7 -10.25 4.9375 C-8.19339223 3.1665322 -6.47056319 2.07057738 -4 1 C-2 0 -2 0 0 0 Z " fill="#6A6C6C" transform="translate(123,122)"/>
<path d="M0 0 C0.33 0 0.66 0 1 0 C1.34230808 3.58038159 1.61492668 7.16278181 1.875 10.75 C1.97296875 11.76578125 2.0709375 12.7815625 2.171875 13.828125 C2.35820349 16.66031797 2.44633906 19.19587629 2 22 C-0.640625 24.55859375 -0.640625 24.55859375 -4 26 C-4.94101563 26.42925781 -5.88203125 26.85851562 -6.8515625 27.30078125 C-7.76679687 27.63464844 -8.68203125 27.96851562 -9.625 28.3125 C-10.54539062 28.65925781 -11.46578125 29.00601563 -12.4140625 29.36328125 C-15.10031178 30.02469912 -16.43525278 29.93318267 -19 29 C-10 25 -10 25 -1 21 C-0.67 14.07 -0.34 7.14 0 0 Z " fill="#960B17" transform="translate(116,93)"/>
<path d="M0 0 C-0.33 0.99 -0.66 1.98 -1 3 C-1.804375 2.814375 -2.60875 2.62875 -3.4375 2.4375 C-4.7059375 2.2209375 -4.7059375 2.2209375 -6 2 C-7.33648017 3.11101184 -7.33648017 3.11101184 -7.125 5.9375 C-7.21325664 8.91545728 -7.21325664 8.91545728 -6 11 C-2.06924356 10.42547254 -2.06924356 10.42547254 1 8 C1.33 9.32 1.66 10.64 2 12 C-1.55353929 13.1845131 -4.27013478 13.26641894 -8 13 C-9.9375 11.9375 -9.9375 11.9375 -11 10 C-11.36248449 6.61681143 -11.58433618 4.13215135 -10 1.0625 C-6.73357754 -0.67278693 -3.65648548 -0.17982715 0 0 Z " fill="#1F0D11" transform="translate(111,154)"/>
<path d="M0 0 C-0.825 0.53625 -1.65 1.0725 -2.5 1.625 C-5.33951208 3.80271869 -5.33951208 3.80271869 -5.3125 7.25 C-5.209375 8.1575 -5.10625 9.065 -5 10 C-3.02 10.66 -1.04 11.32 1 12 C1.33 11.01 1.66 10.02 2 9 C2.33 10.32 2.66 11.64 3 13 C-4.27272727 14.45454545 -4.27272727 14.45454545 -7.5 12.4375 C-9.42974471 9.30166485 -9.60394169 7.62365014 -9 4 C-6.36160394 0.28670185 -4.49495424 -0.49943936 0 0 Z " fill="#280D12" transform="translate(102,19)"/>
<path d="M0 0 C9.27914937 2.2694787 18.04824459 6.49268334 25.2421875 12.79296875 C24.5821875 13.45296875 23.9221875 14.11296875 23.2421875 14.79296875 C22.7575 14.40625 22.2728125 14.01953125 21.7734375 13.62109375 C13.29433394 7.03348252 5.00386144 3.08436962 -5.7578125 1.79296875 C-2.7578125 -0.20703125 -2.7578125 -0.20703125 0 0 Z " fill="#2F2125" transform="translate(108.7578125,38.20703125)"/>
<path d="M0 0 C2.97 0.495 2.97 0.495 6 1 C5.01 1.495 5.01 1.495 4 2 C3.30906104 4.57951874 3.30906104 4.57951874 2.875 7.5625 C2.70742187 8.57441406 2.53984375 9.58632813 2.3671875 10.62890625 C2.24601562 11.41136719 2.12484375 12.19382812 2 13 C3.98 12.67 5.96 12.34 8 12 C8 12.99 8 13.98 8 15 C0.57142857 14 0.57142857 14 -3 13 C-3 12.34 -3 11.68 -3 11 C-2.34 11 -1.68 11 -1 11 C-0.67 7.37 -0.34 3.74 0 0 Z " fill="#240D12" transform="translate(111,21)"/>
<path d="M0 0 C2.475 0.99 2.475 0.99 5 2 C5 2.66 5 3.32 5 4 C5.66 4 6.32 4 7 4 C7 2.68 7 1.36 7 0 C8.65 0.33 10.3 0.66 12 1 C12 1.99 12 2.98 12 4 C12.99 4 13.98 4 15 4 C15 4.99 15 5.98 15 7 C13.8553125 6.9690625 13.8553125 6.9690625 12.6875 6.9375 C9.89814214 6.87057159 9.89814214 6.87057159 7 8 C7 7.01 7 6.02 7 5 C5.68 5.33 4.36 5.66 3 6 C3.33 5.01 3.66 4.02 4 3 C2.68 2.67 1.36 2.34 0 2 C0 1.34 0 0.68 0 0 Z " fill="#7F8080" transform="translate(79,63)"/>
<path d="M0 0 C3.7544094 1.42763648 7.2566634 3.13586548 10.8125 5 C15.54168994 7.39674645 19.80547409 9.00105271 25 10 C22.75023757 11.38880551 21.47723118 12.04678737 18.80859375 11.78515625 C11.87347738 9.67148816 5.71221646 6.50678675 0 2 C0 1.34 0 0.68 0 0 Z " fill="#2A1C1F" transform="translate(62,137)"/>
<path d="M0 0 C0.515625 0.309375 1.03125 0.61875 1.5625 0.9375 C4.77882172 2.33948639 7.49462379 2.81550652 11 3 C13.89039626 1.70208018 13.89039626 1.70208018 16 0 C15.61502006 2.23288365 15.10506663 3.83656302 13.875 5.75 C10.82026478 7.78649015 8.56817978 7.49216273 5 7 C2.0625 4.625 2.0625 4.625 0 2 C0 1.34 0 0.68 0 0 Z " fill="#F8F0EE" transform="translate(87,83)"/>
<path d="M0 0 C5.94 0.33 11.88 0.66 18 1 C18 1.66 18 2.32 18 3 C12.375 4.125 12.375 4.125 9 3 C8.01 3 7.02 3 6 3 C5.67 4.32 5.34 5.64 5 7 C5 5.68 5 4.36 5 3 C4.34 3 3.68 3 3 3 C2.67 4.32 2.34 5.64 2 7 C1.34 7 0.68 7 0 7 C0 4.69 0 2.38 0 0 Z " fill="#101013" transform="translate(86,128)"/>
<path d="M0 0 C0.85980469 0.29003906 1.71960937 0.58007812 2.60546875 0.87890625 C5.82922654 1.94359956 9.06438205 2.94997696 12.3125 3.9375 C17.57039497 5.54742885 22.7923823 7.23470586 28 9 C20.49212975 11.61530078 10.99682642 6.79488404 3.9609375 4.0625 C2 3 2 3 0 0 Z " fill="#262225" transform="translate(59,163)"/>
<path d="M0 0 C1.32 1.32 2.64 2.64 4 4 C1.97146757 5.52139933 -0.0532571 7.03759324 -2.125 8.5 C-4.24725536 10.04241242 -4.24725536 10.04241242 -6 13 C-7.5 11.625 -7.5 11.625 -9 10 C-9 9.34 -9 8.68 -9 8 C-8.2575 7.566875 -7.515 7.13375 -6.75 6.6875 C-3.72821504 4.83322286 -2.07519122 2.84378057 0 0 Z " fill="#240D12" transform="translate(47,130)"/>
<path d="M0 0 C0.2475 0.5775 0.495 1.155 0.75 1.75 C2.82554091 5.48597363 4.93173944 7.64391315 9 9 C9 9.66 9 10.32 9 11 C6.5 12.625 6.5 12.625 4 14 C3.731875 13.236875 3.46375 12.47375 3.1875 11.6875 C1.46852023 7.79717737 -0.48285348 6.34476435 -4 4 C-2.68 2.68 -1.36 1.36 0 0 Z " fill="#1F0D12" transform="translate(47,37)"/>
<path d="M0 0 C0.66 0 1.32 0 2 0 C2 0.99 2 1.98 2 3 C3.32 2.67 4.64 2.34 6 2 C6.33 2.99 6.66 3.98 7 5 C8.32 5 9.64 5 11 5 C10.67 6.98 10.34 8.96 10 11 C9.34 11 8.68 11 8 11 C6.33333333 9.33333333 4.66666667 7.66666667 3 6 C0.83379456 4.70480005 0.83379456 4.70480005 -1 4 C-0.67 2.68 -0.34 1.36 0 0 Z " fill="#838484" transform="translate(69,122)"/>
<path d="M0 0 C2.475 0.99 2.475 0.99 5 2 C4.01 2.495 4.01 2.495 3 3 C1.60536866 6.60963407 0.67176829 10.19331304 0 14 C-1.98 13.34 -3.96 12.68 -6 12 C-5.65066406 11.46890625 -5.30132812 10.9378125 -4.94140625 10.390625 C-4.48636719 9.68421875 -4.03132813 8.9778125 -3.5625 8.25 C-2.88380859 7.20585938 -2.88380859 7.20585938 -2.19140625 6.140625 C-1.0391991 4.07042986 -0.45323018 2.31303676 0 0 Z " fill="#200D12" transform="translate(127,26)"/>
<path d="M0 0 C0.680625 0.474375 1.36125 0.94875 2.0625 1.4375 C5.41841956 3.2225636 8.24161481 3.63153086 12 4 C11.67 5.98 11.34 7.96 11 10 C10.34 10 9.68 10 9 10 C9 9.34 9 8.68 9 8 C5.7 7.01 2.4 6.02 -1 5 C-0.67 3.35 -0.34 1.7 0 0 Z " fill="#1E0D12" transform="translate(153,115)"/>
<path d="M0 0 C3.74544768 2.14025582 4.71076945 4.67153891 6.625 8.5 C2.54894904 8.5 -0.1588181 6.94727466 -3.375 4.5 C-4.3125 2.25 -4.3125 2.25 -4.375 0.5 C-2.375 -0.5 -2.375 -0.5 0 0 Z " fill="#F9F9F6" transform="translate(83.375,46.5)"/>
<path d="M0 0 C6.625 -0.25 6.625 -0.25 10 2 C9.67 2.99 9.34 3.98 9 5 C5.7 4.67 2.4 4.34 -1 4 C-0.67 2.68 -0.34 1.36 0 0 Z " fill="#AA0213" transform="translate(24,85)"/>
<path d="M0 0 C0.33 0.66 0.66 1.32 1 2 C0.67 2.99 0.34 3.98 0 5 C0.66 5.33 1.32 5.66 2 6 C0 8 0 8 -1.97119141 8.22705078 C-2.75671387 8.21657715 -3.54223633 8.20610352 -4.3515625 8.1953125 C-5.20234375 8.18886719 -6.053125 8.18242188 -6.9296875 8.17578125 C-8.26386719 8.15064453 -8.26386719 8.15064453 -9.625 8.125 C-10.97078125 8.11146484 -10.97078125 8.11146484 -12.34375 8.09765625 C-14.56276586 8.0740497 -16.78125077 8.0411231 -19 8 C-19 7.67 -19 7.34 -19 7 C-14.38 7 -9.76 7 -5 7 C-4.67 5.68 -4.34 4.36 -4 3 C-3.01 3 -2.02 3 -1 3 C-0.67 2.01 -0.34 1.02 0 0 Z " fill="#595B5B" transform="translate(108,64)"/>
<path d="M0 0 C0.99 0.33 1.98 0.66 3 1 C2.95875 2.0725 2.9175 3.145 2.875 4.25 C2.9885825 7.65747485 3.21273364 9.20739631 5 12 C3.68 11.67 2.36 11.34 1 11 C1 10.34 1 9.68 1 9 C-0.32 9 -1.64 9 -3 9 C-3 5 -3 5 -2 4 C-1.31731862 2.67479497 -0.6492959 1.34187818 0 0 Z " fill="#2B0F14" transform="translate(60,121)"/>
<path d="M0 0 C3 0.3125 3 0.3125 6 1 C6.33 1.66 6.66 2.32 7 3 C5.35 3.33 3.7 3.66 2 4 C2.33 4.99 2.66 5.98 3 7 C3.66 6.67 4.32 6.34 5 6 C5 6.99 5 7.98 5 9 C5.66 9.33 6.32 9.66 7 10 C1.62416107 9.40268456 1.62416107 9.40268456 -0.9375 7.75 C-2 6 -2 6 -1.75 3.375 C-1 1 -1 1 0 0 Z " fill="#B4B5B4" transform="translate(78,44)"/>
<path d="M0 0 C2.25 0.25 2.25 0.25 4 1 C4 3 4 3 2.4375 5.125 C-0.80653244 7.62040957 -3.0098359 7.3069357 -7 7 C-7 6.01 -7 5.02 -7 4 C-6.01 4 -5.02 4 -4 4 C-3.360625 3.319375 -2.72125 2.63875 -2.0625 1.9375 C-1.381875 1.298125 -0.70125 0.65875 0 0 Z " fill="#DCDCDA" transform="translate(107,60)"/>
<path d="M0 0 C0.33 1.32 0.66 2.64 1 4 C1.66 4 2.32 4 3 4 C3.33 2.68 3.66 1.36 4 0 C6.97 0.495 6.97 0.495 10 1 C10 2.65 10 4.3 10 6 C8.54176788 6.0270043 7.08339325 6.04639787 5.625 6.0625 C4.81289062 6.07410156 4.00078125 6.08570313 3.1640625 6.09765625 C1 6 1 6 -1 5 C-0.67 3.35 -0.34 1.7 0 0 Z " fill="#939493" transform="translate(85,131)"/>
<path d="M0 0 C1.65 1.32 3.3 2.64 5 4 C4.67 5.65 4.34 7.3 4 9 C2.02 9 0.04 9 -2 9 C-2.33 7.02 -2.66 5.04 -3 3 C-2.01 3 -1.02 3 0 3 C0 2.01 0 1.02 0 0 Z " fill="#F0DAD9" transform="translate(80,81)"/>
<path d="M0 0 C0 1.32 0 2.64 0 4 C-3 4 -6 4 -9 4 C-8.6875 2.0625 -8.6875 2.0625 -8 0 C-4.71023192 -1.09658936 -3.28696233 -0.79953138 0 0 Z " fill="#F9F9F6" transform="translate(100,45)"/>
<path d="M0 0 C0.66 0 1.32 0 2 0 C2 0.99 2 1.98 2 3 C2.99 3.33 3.98 3.66 5 4 C5 4.66 5 5.32 5 6 C4.01 6 3.02 6 2 6 C2 6.99 2 7.98 2 9 C1.34 9 0.68 9 0 9 C0 8.01 0 7.02 0 6 C-0.99 6 -1.98 6 -3 6 C-3 5.01 -3 4.02 -3 3 C-2.34 3 -1.68 3 -1 3 C-0.67 2.01 -0.34 1.02 0 0 Z " fill="#DEDEDD" transform="translate(95,110)"/>
<path d="M0 0 C0.99 0.33 1.98 0.66 3 1 C3 1.66 3 2.32 3 3 C3.66 3 4.32 3 5 3 C5 3.99 5 4.98 5 6 C4.01 6 3.02 6 2 6 C2 6.99 2 7.98 2 9 C1.34 9 0.68 9 0 9 C0 8.01 0 7.02 0 6 C-0.99 6 -1.98 6 -3 6 C-2.67 5.01 -2.34 4.02 -2 3 C-1.34 3 -0.68 3 0 3 C0 2.01 0 1.02 0 0 Z " fill="#DEDEDC" transform="translate(89,104)"/>
<path d="M0 0 C5.53586661 -0.33893061 9.00290134 0.6865284 14 3 C16.77888613 3.69140522 16.77888613 3.69140522 19 4 C18.34 4.66 17.68 5.32 17 6 C11.07240336 5.69602069 5.48836955 3.09964316 0 1 C0 0.67 0 0.34 0 0 Z " fill="#B11D28" transform="translate(81,119)"/>
<path d="M0 0 C3 0.1875 3 0.1875 5 1.1875 C5 1.8475 5 2.5075 5 3.1875 C3.741875 3.47625 2.48375 3.765 1.1875 4.0625 C-1.8539399 4.76053539 -3.30669878 5.39196585 -6 7.1875 C-4.91362126 0.30710133 -4.91362126 0.30710133 0 0 Z " fill="#150E12" transform="translate(159,61.8125)"/>
<path d="M0 0 C4.32046898 1.41680244 7.00461199 3.53763785 10.3125 6.625 C11.19550781 7.44226562 12.07851562 8.25953125 12.98828125 9.1015625 C13.65214844 9.72804688 14.31601563 10.35453125 15 11 C14.34 11.66 13.68 12.32 13 13 C8.66666667 8.66666667 4.33333333 4.33333333 0 0 Z " fill="#332124" transform="translate(141,29)"/>
<path d="M0 0 C0.66 0 1.32 0 2 0 C1.52450066 2.62571335 1.04477433 5.2505304 0.5625 7.875 C0.42779297 8.62136719 0.29308594 9.36773437 0.15429688 10.13671875 C-0.88671875 15.7734375 -0.88671875 15.7734375 -2 18 C-2.66 18 -3.32 18 -4 18 C-2.07289294 5.33029613 -2.07289294 5.33029613 0 0 Z " fill="#342528" transform="translate(21,64)"/>
<path d="M0 0 C2.5 1.8125 2.5 1.8125 5 4 C5 4.99 5 5.98 5 7 C2.03 7 -0.94 7 -4 7 C-4 6.34 -4 5.68 -4 5 C-3.34 4.67 -2.68 4.34 -2 4 C-0.86649466 1.98330173 -0.86649466 1.98330173 0 0 Z " fill="#760613" transform="translate(38,46)"/>
<path d="M0 0 C1.32 1.65 2.64 3.3 4 5 C3.01 5.495 3.01 5.495 2 6 C3.83333333 9.16666667 3.83333333 9.16666667 7 11 C6.34 11.66 5.68 12.32 5 13 C2.375 12.625 2.375 12.625 0 12 C0.66 11.34 1.32 10.68 2 10 C1.34 9.01 0.68 8.02 0 7 C-0.07905064 4.66800612 -0.08798769 2.33167378 0 0 Z " fill="#7A1721" transform="translate(62,122)"/>
<path d="M0 0 C0 0.66 0 1.32 0 2 C0.99 1.67 1.98 1.34 3 1 C3 1.66 3 2.32 3 3 C2.01 3 1.02 3 0 3 C-0.33 3.66 -0.66 4.32 -1 5 C-3 7 -3 7 -5 8 C-5.66 6.68 -6.32 5.36 -7 4 C-6.34 4 -5.68 4 -5 4 C-4.67 3.01 -4.34 2.02 -4 1 C-2 0 -2 0 0 0 Z " fill="#828383" transform="translate(123,122)"/>
<path d="M0 0 C0.66 0 1.32 0 2 0 C2 0.99 2 1.98 2 3 C2.99 3 3.98 3 5 3 C4.67 3.99 4.34 4.98 4 6 C3.34 6 2.68 6 2 6 C2 6.66 2 7.32 2 8 C1.34 8 0.68 8 0 8 C0 7.34 0 6.68 0 6 C-0.99 5.67 -1.98 5.34 -3 5 C-3 4.34 -3 3.68 -3 3 C-2.01 3 -1.02 3 0 3 C0 2.01 0 1.02 0 0 Z " fill="#E9E9E7" transform="translate(100,104)"/>
<path d="M0 0 C0.66 0.33 1.32 0.66 2 1 C2 1.66 2 2.32 2 3 C2.99 3.33 3.98 3.66 5 4 C5 4.66 5 5.32 5 6 C4.01 6.33 3.02 6.66 2 7 C1.34 7.66 0.68 8.32 0 9 C0 8.01 0 7.02 0 6 C-0.99 6 -1.98 6 -3 6 C-3 5.34 -3 4.68 -3 4 C-2.34 4 -1.68 4 -1 4 C-0.67 2.68 -0.34 1.36 0 0 Z " fill="#E6E6E4" transform="translate(84,97)"/>
<path d="M0 0 C0.66 0.33 1.32 0.66 2 1 C2 1.66 2 2.32 2 3 C2.66 3 3.32 3 4 3 C4 3.99 4 4.98 4 6 C2 7.6875 2 7.6875 0 9 C0 8.01 0 7.02 0 6 C-0.99 6 -1.98 6 -3 6 C-3 5.01 -3 4.02 -3 3 C-2.34 3 -1.68 3 -1 3 C-0.67 2.01 -0.34 1.02 0 0 Z " fill="#E4E4E2" transform="translate(95,97)"/>
<path d="M0 0 C1.65 1.32 3.3 2.64 5 4 C4.67 5.65 4.34 7.3 4 9 C3.38125 8.814375 2.7625 8.62875 2.125 8.4375 C-0.04160178 7.76313824 -0.04160178 7.76313824 -2 9 C-2.33 7.02 -2.66 5.04 -3 3 C-2.01 3 -1.02 3 0 3 C0 2.01 0 1.02 0 0 Z " fill="#F7EEEC" transform="translate(109,81)"/>
<path d="M0 0 C1.67542976 0.28604898 3.34385343 0.61781233 5 1 C4.67 2.98 4.34 4.96 4 7 C2.68 7 1.36 7 0 7 C-0.38133299 5.0085944 -0.71325582 3.00720923 -1 1 C-0.67 0.67 -0.34 0.34 0 0 Z " fill="#ECECEA" transform="translate(94,50)"/>
<path d="M0 0 C0.66 0.33 1.32 0.66 2 1 C2 1.66 2 2.32 2 3 C2.66 3 3.32 3 4 3 C4 3.99 4 4.98 4 6 C3.01 6 2.02 6 1 6 C0.67 6.99 0.34 7.98 0 9 C0 8.01 0 7.02 0 6 C-0.99 6 -1.98 6 -3 6 C-3 5.01 -3 4.02 -3 3 C-2.34 3 -1.68 3 -1 3 C-0.67 2.01 -0.34 1.02 0 0 Z " fill="#F0F0EE" transform="translate(106,97)"/>
<path d="M0 0 C2.01822917 0.06510417 4.03645833 0.13020833 6.0546875 0.1953125 C6.3846875 0.8553125 6.7146875 1.5153125 7.0546875 2.1953125 C4.7446875 1.8653125 2.4346875 1.5353125 0.0546875 1.1953125 C-0.2753125 3.1753125 -0.6053125 5.1553125 -0.9453125 7.1953125 C-2.2653125 6.8653125 -3.5853125 6.5353125 -4.9453125 6.1953125 C-3.78219775 0.37973873 -3.78219775 0.37973873 0 0 Z " fill="#9A9B9A" transform="translate(75.9453125,53.8046875)"/>
<path d="M0 0 C0.33 0 0.66 0 1 0 C0.67 6.93 0.34 13.86 0 21 C-0.33 21 -0.66 21 -1 21 C-1.22212255 18.25048307 -1.42815588 15.50134388 -1.625 12.75 C-1.68945312 11.97269531 -1.75390625 11.19539063 -1.8203125 10.39453125 C-2.30707097 3.27568856 -2.30707097 3.27568856 0 0 Z " fill="#473B3E" transform="translate(42,77)"/>
<path d="M0 0 C2.64 0 5.28 0 8 0 C9.24546405 2.49092811 8.7767578 3.41080733 8 6 C7.34 6 6.68 6 6 6 C5.67 5.34 5.34 4.68 5 4 C3.34051852 2.98812105 1.67419438 1.9873454 0 1 C0 0.67 0 0.34 0 0 Z " fill="#F2F1EF" transform="translate(78,61)"/>
<path d="M0 0 C1 2 1 2 1 4 C1.31478446 5.33783393 1.64587656 6.67203709 2 8 C0.35 7.67 -1.3 7.34 -3 7 C-3 3 -3 3 -1.5 1.25 C-1.005 0.8375 -0.51 0.425 0 0 Z " fill="#1D0E12" transform="translate(129,125)"/>
<path d="M0 0 C2.1640625 -0.29296875 2.1640625 -0.29296875 4.625 -0.1875 C5.44226563 -0.16042969 6.25953125 -0.13335937 7.1015625 -0.10546875 C8.04128906 -0.05326172 8.04128906 -0.05326172 9 0 C9 1.65 9 3.3 9 5 C8.01 4.67 7.02 4.34 6 4 C6.66 4 7.32 4 8 4 C7.34 3.34 6.68 2.68 6 2 C4.0068433 1.97624074 4.0068433 1.97624074 1.875 2.375 C0.59625 2.58125 -0.6825 2.7875 -2 3 C-1.34 2.01 -0.68 1.02 0 0 Z " fill="#9C9D9C" transform="translate(103,59)"/>
<path d="M0 0 C2.0625 0.4375 2.0625 0.4375 4 1 C4 2.65 4 4.3 4 6 C2.35 6 0.7 6 -1 6 C-1.042721 4.33388095 -1.04063832 2.66617115 -1 1 C-0.67 0.67 -0.34 0.34 0 0 Z " fill="#7F7F7F" transform="translate(97,131)"/>
<path d="M0 0 C0.99 0.33 1.98 0.66 3 1 C0.36 3.64 -2.28 6.28 -5 9 C-5.33 8.01 -5.66 7.02 -6 6 C-4.02 4.02 -2.04 2.04 0 0 Z " fill="#322729" transform="translate(59,50)"/>
<path d="M0 0 C0.89847656 0.17144531 1.79695313 0.34289062 2.72265625 0.51953125 C3.45355469 0.73996094 4.18445313 0.96039063 4.9375 1.1875 C5.2675 1.8475 5.5975 2.5075 5.9375 3.1875 C4.33254433 3.07307539 2.72851881 2.94555306 1.125 2.8125 C0.23167969 2.74289063 -0.66164063 2.67328125 -1.58203125 2.6015625 C-4.0625 2.1875 -4.0625 2.1875 -7.0625 0.1875 C-4.37114154 -1.15817923 -2.92373106 -0.58474621 0 0 Z " fill="#37282B" transform="translate(81.0625,169.8125)"/>
<path d="M0 0 C0.66 0.33 1.32 0.66 2 1 C1.34 1.66 0.68 2.32 0 3 C0.66 3.33 1.32 3.66 2 4 C1.67 4.99 1.34 5.98 1 7 C-0.65 7 -2.3 7 -4 7 C-4 5.68 -4 4.36 -4 3 C-2 1.25 -2 1.25 0 0 Z " fill="#222527" transform="translate(102,58)"/>
<path d="M0 0 C0.99 0 1.98 0 3 0 C2.42655063 2.86724686 2.1385485 3.8614515 0 6 C-2.125 5.625 -2.125 5.625 -4 5 C-2.1875 2.5 -2.1875 2.5 0 0 Z " fill="#E9DFDF" transform="translate(132,130)"/>
<path d="M0 0 C0.33 0.66 0.66 1.32 1 2 C1.66 2 2.32 2 3 2 C3.33 1.34 3.66 0.68 4 0 C4 0.66 4 1.32 4 2 C4.99 2 5.98 2 7 2 C6.67 2.66 6.34 3.32 6 4 C5.34 3.67 4.68 3.34 4 3 C4.33 3.99 4.66 4.98 5 6 C4.34 6 3.68 6 3 6 C3 5.01 3 4.02 3 3 C2.34 3 1.68 3 1 3 C1 3.99 1 4.98 1 6 C0.34 5.67 -0.32 5.34 -1 5 C-0.67 4.34 -0.34 3.68 0 3 C-0.66 2.67 -1.32 2.34 -2 2 C-1.34 2 -0.68 2 0 2 C0 1.34 0 0.68 0 0 Z " fill="#6C6D6E" transform="translate(99,101)"/>
<path d="M0 0 C1.98 0.495 1.98 0.495 4 1 C4.33 2.65 4.66 4.3 5 6 C3.02 6 1.04 6 -1 6 C-0.67 4.02 -0.34 2.04 0 0 Z " fill="#E1E0DF" transform="translate(82,54)"/>
<path d="M0 0 C5.41538462 -0.36923077 5.41538462 -0.36923077 8.375 1.5 C8.91125 1.995 9.4475 2.49 10 3 C2.25 3.125 2.25 3.125 0 2 C0 1.34 0 0.68 0 0 Z " fill="#0C0B0F" transform="translate(84,136)"/>
<path d="M0 0 C0.99 0.33 1.98 0.66 3 1 C2.01 1.495 2.01 1.495 1 2 C1.33 2.66 1.66 3.32 2 4 C2.33 4.99 2.66 5.98 3 7 C1.68 7 0.36 7 -1 7 C-1.04254356 5.00045254 -1.04080783 2.99958364 -1 1 C-0.67 0.67 -0.34 0.34 0 0 Z " fill="#E6E6E4" transform="translate(94,59)"/>
<path d="M0 0 C-1.29299694 2.88437779 -2.65941363 4.87219421 -5 7 C-5.99 6.67 -6.98 6.34 -8 6 C-7.0479279 4.99403703 -6.08812654 3.99538437 -5.125 3 C-4.59132812 2.443125 -4.05765625 1.88625 -3.5078125 1.3125 C-2 0 -2 0 0 0 Z " fill="#392529" transform="translate(44,34)"/>
<path d="M0 0 C1.98 0.99 1.98 0.99 4 2 C4 5 4 5 2.5 6.6875 C2.005 7.120625 1.51 7.55375 1 8 C0.67 5.36 0.34 2.72 0 0 Z " fill="#1C0D12" transform="translate(130,120)"/>
<path d="M0 0 C0.33 0.66 0.66 1.32 1 2 C1.66 2 2.32 2 3 2 C1.25 6.875 1.25 6.875 -1 8 C-1.125 2.25 -1.125 2.25 0 0 Z " fill="#E4E4E3" transform="translate(100,53)"/>
<path d="M0 0 C-0.33 1.32 -0.66 2.64 -1 4 C-3.64 3.67 -6.28 3.34 -9 3 C-8.67 2.34 -8.34 1.68 -8 1 C-5.30114269 0.42577504 -2.76207303 0 0 0 Z " fill="#400A12" transform="translate(171,89)"/>
<path d="M0 0 C0.99 0.33 1.98 0.66 3 1 C2.67 1.99 2.34 2.98 2 4 C0.02 4 -1.96 4 -4 4 C-2.68 2.68 -1.36 1.36 0 0 Z " fill="#FDFDFB" transform="translate(109,55)"/>
<path d="M0 0 C0.66 0 1.32 0 2 0 C2 0.99 2 1.98 2 3 C2.66 3 3.32 3 4 3 C3.67 3.99 3.34 4.98 3 6 C1.68 5.34 0.36 4.68 -1 4 C-0.67 2.68 -0.34 1.36 0 0 Z " fill="#6F7171" transform="translate(69,122)"/>
<path d="M0 0 C2.46800047 1.15173355 4.04783565 2.04783565 6 4 C5.01 4.66 4.02 5.32 3 6 C0 2.25 0 2.25 0 0 Z " fill="#E9C1C2" transform="translate(87,83)"/>
<path d="M0 0 C0.66 0.99 1.32 1.98 2 3 C2.66 2.67 3.32 2.34 4 2 C4 2.99 4 3.98 4 5 C4.66 5.33 5.32 5.66 6 6 C3.125 5.6875 3.125 5.6875 0 5 C-0.66 4.01 -1.32 3.02 -2 2 C-1.34 2 -0.68 2 0 2 C0 1.34 0 0.68 0 0 Z " fill="#878888" transform="translate(79,48)"/>
</svg>
