<?xml version="1.0" encoding="UTF-8"?>
<svg version="1.1" xmlns="http://www.w3.org/2000/svg" width="1000" height="441">
<path d="M0 0 C4.84062482 4.05819624 8.84761133 8.93856435 11.8125 14.51953125 C12.23208984 13.64941406 12.23208984 13.64941406 12.66015625 12.76171875 C17.0043711 4.29678564 22.82293017 -1.16099862 31.8125 -4.48046875 C42.37890661 -7.58330244 54.39831404 -7.4636026 64.5 -2.828125 C73.6001288 2.47515952 78.61005647 9.32829814 81.66322327 19.29724121 C84.18148969 29.64636178 84.22516244 39.73504015 84.19262505 50.33595276 C84.18341222 53.61539971 84.19385023 56.89428745 84.20924377 60.17370605 C84.24908783 69.48623972 84.25053641 78.79872328 84.24829102 88.11132812 C84.24823994 93.83341835 84.26738156 99.55520061 84.29762459 105.27720642 C84.30843174 108.50243116 84.29633783 111.72706496 84.28379822 114.95227051 C84.2927003 116.92847275 84.30277386 118.90467017 84.31420898 120.88085938 C84.30446548 121.77236694 84.29472198 122.66387451 84.28468323 123.58239746 C84.35001845 129.24066162 85.53343392 131.79779401 88.8125 136.51953125 C88.8125 138.82953125 88.8125 141.13953125 88.8125 143.51953125 C71.6525 143.51953125 54.4925 143.51953125 36.8125 143.51953125 C36.8125 136.90991645 36.8125 136.90991645 39.27404785 133.82446289 C42.59085818 128.87489576 42.50596511 124.46373616 42.42773438 118.640625 C42.43605789 117.04880905 42.43605789 117.04880905 42.44454956 115.42483521 C42.45631013 111.93510035 42.43210525 108.4466743 42.40625 104.95703125 C42.40453787 102.5214036 42.40460562 100.0857741 42.40637207 97.65014648 C42.40472084 92.55271709 42.3860581 87.45572853 42.35449219 82.35839844 C42.31481598 75.8350199 42.31044842 69.31221837 42.31795502 62.78874207 C42.32102928 57.76146184 42.30888783 52.73431054 42.29182434 47.70706177 C42.28480923 45.30218312 42.281668 42.89728986 42.28251648 40.49240112 C42.28071232 37.1274796 42.25927644 33.76324052 42.23242188 30.3984375 C42.23535248 29.41118683 42.23828308 28.42393616 42.24130249 27.4067688 C42.16815165 21.44507278 41.41635911 16.91934841 38.8125 11.51953125 C34.75733602 8.8160886 31.57269337 8.87560098 26.8125 9.51953125 C21.69138419 11.93515192 18.85582033 15.29955648 16.8125 20.51953125 C13.65264779 31.17703726 14.46503447 42.79128588 14.44140625 53.78515625 C14.43242728 55.94985003 14.42330523 58.11454323 14.41404724 60.27923584 C14.39762769 64.79782616 14.38986886 69.31634295 14.38696289 73.83496094 C14.38155807 79.61750495 14.34376105 85.39935744 14.29821873 91.18170547 C14.26846313 95.64445526 14.2612398 100.10703726 14.26023674 104.56987762 C14.25603866 106.70209706 14.24362101 108.83431718 14.22271919 110.96643829 C14.19581052 113.94591959 14.20062683 116.92377886 14.21313477 119.90332031 C14.19830048 120.77724426 14.18346619 121.65116821 14.16818237 122.55157471 C14.23135306 127.84605382 15.04611711 130.76341428 18.73982143 134.64275742 C19.8125 136.51953125 19.8125 136.51953125 19.8125 143.51953125 C2.6525 143.51953125 -14.5075 143.51953125 -32.1875 143.51953125 C-32.1875 135.77837678 -32.1875 135.77837678 -29.72496033 133.22320557 C-26.26181069 128.81805675 -26.50233617 124.69392521 -26.58813477 119.26074219 C-26.58419205 118.25326431 -26.58024933 117.24578644 -26.57618713 116.20777893 C-26.56949479 112.88930942 -26.59861239 109.57222786 -26.62890625 106.25390625 C-26.63316004 103.93613959 -26.63548534 101.61836866 -26.63597107 99.30059814 C-26.64213185 94.44515638 -26.66480372 89.59017674 -26.70043945 84.73486328 C-26.74560968 78.53354924 -26.76046089 72.33265462 -26.76417637 66.13119125 C-26.76862282 61.34399332 -26.78395974 56.55688208 -26.8030529 51.76972198 C-26.81188926 49.48454751 -26.81864128 47.19936393 -26.82321358 44.91417694 C-26.83233599 41.70792934 -26.85479818 38.50204566 -26.88110352 35.29589844 C-26.88176819 34.36461624 -26.88243286 33.43333405 -26.88311768 32.47383118 C-26.96375416 25.29148505 -27.07128093 17.15942806 -30.75 10.83203125 C-34.52260527 8.80062841 -38.00145896 8.90437827 -42.1875 9.51953125 C-46.35964887 11.28110522 -48.76191359 13.71944587 -51.1875 17.51953125 C-53.84182247 24.31067696 -54.63085859 30.65158446 -54.60742188 37.89111328 C-54.62012619 39.36632446 -54.62012619 39.36632446 -54.63308716 40.87133789 C-54.65629825 44.09014156 -54.65748346 47.30846309 -54.65625 50.52734375 C-54.66335865 52.78075346 -54.67105868 55.03416137 -54.67932129 57.28756714 C-54.69272774 61.99628747 -54.69435097 66.7048402 -54.68847656 71.41357422 C-54.68256916 77.43708762 -54.71323384 83.45979819 -54.75359344 89.4831562 C-54.77947574 94.13125923 -54.78234762 98.77916868 -54.77870178 103.42733383 C-54.78039098 105.64802959 -54.79001406 107.86873448 -54.80784607 110.08935928 C-54.83005708 113.19569684 -54.82032378 116.30040486 -54.80273438 119.40673828 C-54.81599762 120.31604095 -54.82926086 121.22534363 -54.84292603 122.16220093 C-54.76928796 127.77788101 -53.75931817 131.09962328 -50.25962067 135.53912163 C-49.1875 137.51953125 -49.1875 137.51953125 -49.1875 143.51953125 C-66.6775 143.51953125 -84.1675 143.51953125 -102.1875 143.51953125 C-102.1875 136.91906491 -102.1875 136.91906491 -99.72793579 134.35951233 C-96.07832617 129.64070664 -96.48545557 124.84453321 -96.54052734 119.07983398 C-96.53176575 117.9472818 -96.52300415 116.81472961 -96.51397705 115.64785767 C-96.49202642 111.91588685 -96.50652103 108.18510721 -96.5234375 104.453125 C-96.5200684 101.85433221 -96.515215 99.25554095 -96.50894165 96.65675354 C-96.5015763 91.21541859 -96.51178732 85.77452907 -96.53564453 80.33325195 C-96.56286674 74.05216065 -96.55402765 67.77188064 -96.5265125 61.4908089 C-96.50104827 55.43426567 -96.50379378 49.37811782 -96.51842117 43.32151985 C-96.52175539 40.75030465 -96.51766764 38.17906873 -96.50602341 35.60787773 C-96.49332018 32.01463884 -96.51268732 28.42295694 -96.54052734 24.82983398 C-96.53040619 23.76836655 -96.52028503 22.70689911 -96.50985718 21.61326599 C-96.60458162 15.01178451 -97.51114087 12.18400304 -102.1875 7.51953125 C-102.5 4.64453125 -102.5 4.64453125 -102.1875 2.51953125 C-94.56422405 0.84387325 -86.9394197 -0.22416001 -79.1875 -1.10546875 C-77.52074219 -1.3065625 -77.52074219 -1.3065625 -75.8203125 -1.51171875 C-69.22612066 -2.27199028 -62.82470558 -2.61668006 -56.1875 -2.48046875 C-55.5275 1.14953125 -54.8675 4.77953125 -54.1875 8.51953125 C-53.23875 7.30265625 -52.29 6.08578125 -51.3125 4.83203125 C-39.06494272 -9.06328976 -14.96922662 -10.32252919 0 0 Z " fill="#000002" transform="translate(623.1875,66.48046875)"/>
<path d="M0 0 C1.05396973 0.07839111 2.10793945 0.15678223 3.19384766 0.23754883 C4.21140137 0.32157959 5.22895508 0.40561035 6.27734375 0.4921875 C7.17573975 0.56550293 8.07413574 0.63881836 8.99975586 0.71435547 C13.06380945 1.25925289 17.05972298 2.235494 21.0625 3.125 C21.0625 23.915 21.0625 44.705 21.0625 66.125 C16.1125 66.125 11.1625 66.125 6.0625 66.125 C5.73040527 65.12235107 5.39831055 64.11970215 5.05615234 63.08666992 C3.80304324 59.312745 2.53604829 55.54359786 1.26513672 51.77563477 C0.72041331 50.15448007 0.17929775 48.53210789 -0.35791016 46.90844727 C-6.8045969 25.82537363 -6.8045969 25.82537363 -21.92578125 10.8828125 C-28.308081 8.47860638 -34.52720974 8.57147004 -40.84375 11.0625 C-51.14728063 16.29115733 -55.54976955 26.23042267 -59.125 36.6875 C-71.60765883 75.33872032 -75.47940817 137.92994204 -58.37890625 175.5 C-54.07569357 183.33674505 -48.59283627 187.94977104 -40.1328125 190.71484375 C-37.07103824 191.28688343 -34.11255841 191.25664367 -31 191.25 C-29.79472656 191.25257813 -28.58945313 191.25515625 -27.34765625 191.2578125 C-24.3935352 191.14276082 -21.81320668 190.7433061 -18.9375 190.125 C-18.54160831 181.07625825 -18.24061588 172.03053981 -18.05669308 162.97499466 C-17.96835565 158.76844492 -17.84888641 154.56786009 -17.6550293 150.36474609 C-16.04498657 132.77763772 -16.04498657 132.77763772 -20.64483643 116.39916992 C-24.57687144 112.34642299 -29.02531909 109.76694787 -34.2802887 107.76483154 C-35.9375 107.125 -35.9375 107.125 -36.9375 106.125 C-36.9375 103.155 -36.9375 100.185 -36.9375 97.125 C-17.1375 97.125 2.6625 97.125 23.0625 97.125 C23.0625 129.465 23.0625 161.805 23.0625 195.125 C-10.64654715 203.55226179 -50.31815343 206.93849471 -81.703125 189.21875 C-99.65585733 177.59717448 -108.81903276 159.80311791 -113.6875 139.4375 C-120.21778754 105.54955814 -119.5019499 65.60594691 -100.65625 35.55859375 C-97.46637086 31.04201488 -93.8038797 27.0670674 -89.9375 23.125 C-88.82955078 21.96291016 -88.82955078 21.96291016 -87.69921875 20.77734375 C-64.88355641 -1.57817078 -29.82627016 -2.28206563 0 0 Z " fill="#000002" transform="translate(123.9375,11.875)"/>
<path d="M0 0 C0.33 18.15 0.66 36.3 1 55 C3.31 52.36 5.62 49.72 8 47 C18.10596048 40.26269302 29.12095523 38.5595466 41.08203125 40.5 C51.45408555 42.79620322 58.90785368 47.16406259 65 56 C70.17731471 65.70948118 71.30581755 76.49410069 71.25537109 87.33325195 C71.25899155 88.30057755 71.262612 89.26790314 71.26634216 90.26454163 C71.27318072 92.34276201 71.27575213 94.42100014 71.27439499 96.49923134 C71.27342193 99.79096581 71.28646072 103.08238075 71.30337524 106.37406921 C71.34943413 115.72502263 71.37427514 125.07593876 71.38085938 134.42700195 C71.38587189 140.16510654 71.41009604 145.90287041 71.44618607 151.6408596 C71.45597766 153.82130069 71.45831952 156.00178864 71.45301437 158.18224525 C71.44594842 161.22644261 71.46321277 164.2696198 71.48583984 167.3137207 C71.47766739 168.20994141 71.46949493 169.10616211 71.46107483 170.02954102 C71.53602505 175.69894802 72.71317317 178.26967189 76 183 C76 185.31 76 187.62 76 190 C58.84 190 41.68 190 24 190 C24 183.38758134 24 183.38758134 26.46154785 180.29246521 C29.74389377 175.39501113 29.69431069 171.08574213 29.61523438 165.32055664 C29.62355789 163.76041084 29.62355789 163.76041084 29.63204956 162.16874695 C29.64380888 158.74874017 29.61960504 155.33006935 29.59375 151.91015625 C29.59203771 149.52176473 29.59210578 147.13337134 29.59387207 144.74497986 C29.59222087 139.74589998 29.57355988 134.74726963 29.54199219 129.74829102 C29.50233752 123.35504403 29.49794597 116.96238596 29.50545502 110.56903934 C29.50853157 105.63865306 29.49637934 100.708398 29.47932434 95.77804375 C29.47231539 93.42144024 29.46916724 91.06482186 29.47001648 88.70820808 C29.4682094 85.40814713 29.4467482 82.10877841 29.41992188 78.80883789 C29.42285248 77.84388397 29.42578308 76.87893005 29.42880249 75.88473511 C29.34830159 69.43362726 28.86973514 62.4748546 24.59929657 57.30394077 C21.88857148 55.09382851 19.4282233 55.11427411 16 55 C10.51830815 56.7652906 6.84290116 59.07540825 3.75428772 63.97688293 C-0.52719354 74.20835348 0.40307706 85.44267426 0.43359375 96.32421875 C0.42835241 98.59862013 0.42207407 100.87301934 0.41481018 103.14741516 C0.40443837 107.8972909 0.40892383 112.64686641 0.42358398 117.39672852 C0.44080655 123.47293011 0.41721583 129.54818912 0.38209438 135.6242857 C0.36010693 140.31444013 0.36156456 145.00436921 0.3698597 149.6945591 C0.37067769 151.93478241 0.3638434 154.1750225 0.34908867 156.41519737 C0.33160919 159.54781131 0.3462126 162.67873251 0.36889648 165.8112793 C0.35720428 166.72836166 0.34551208 167.64544403 0.33346558 168.59031677 C0.41618961 174.22397833 1.41462336 177.56871386 4.92843723 182.02225971 C6 184 6 184 6 190 C-11.49 190 -28.98 190 -47 190 C-47 184 -47 184 -44.54043579 181.08470154 C-40.2702533 175.54538492 -41.30460814 168.30482844 -41.35302734 161.64477539 C-41.3462459 160.08037805 -41.33733981 158.5159887 -41.32647705 156.95161438 C-41.30373746 152.71588946 -41.31249817 148.48077539 -41.32837248 144.24504018 C-41.34106155 139.80449268 -41.32928282 135.36399629 -41.32144165 130.92344666 C-41.31235287 123.46620326 -41.32431168 116.00920769 -41.34814453 108.55200195 C-41.37534444 99.94207254 -41.36654696 91.33273537 -41.3390125 82.72282034 C-41.31628845 75.31959164 -41.31313772 67.91654077 -41.32620585 60.51328844 C-41.33398358 56.09650405 -41.33508858 51.67999759 -41.31852341 47.26323128 C-41.30403009 43.1088866 -41.31418817 38.95530174 -41.34299469 34.80103874 C-41.34958013 33.28053928 -41.34775145 31.75997537 -41.33668137 30.23950195 C-41.18533101 19.68971488 -41.18533101 19.68971488 -45.89847755 10.49858761 C-47 9 -47 9 -47.3125 6 C-47.209375 5.34 -47.10625 4.68 -47 4 C-44.28914291 3.26105459 -41.72215833 2.81758265 -38.92163086 2.61108398 C-37.73536354 2.5211039 -37.73536354 2.5211039 -36.52513123 2.42930603 C-35.25778893 2.33861595 -35.25778893 2.33861595 -33.96484375 2.24609375 C-32.65224327 2.14833397 -32.65224327 2.14833397 -31.31312561 2.04859924 C-29.46660147 1.91171254 -27.61995319 1.77649158 -25.77319336 1.64282227 C-22.94422324 1.43798681 -20.11565119 1.22823775 -17.28710938 1.01757812 C-15.49220862 0.88513008 -13.6972874 0.75295918 -11.90234375 0.62109375 C-11.05542465 0.55860947 -10.20850555 0.49612518 -9.33592224 0.43174744 C-6.21713452 0.20671687 -3.12804593 0 0 0 Z " fill="#000002" transform="translate(458,238)"/>
<path d="M0 0 C0.00054477 0.90575807 0.00108953 1.81151613 0.00165081 2.74472141 C0.0166201 24.78695853 0.059073 46.82899342 0.13209057 68.87111759 C0.16673913 79.53055674 0.19209592 90.18986658 0.19555664 100.84936523 C0.19859671 110.14053239 0.21909306 119.43146926 0.26052457 128.72254747 C0.28185227 133.64186231 0.29445632 138.56084977 0.28615379 143.48021126 C0.27861226 148.11213268 0.29444058 152.74339083 0.32806015 157.37519073 C0.33629218 159.07347853 0.33604478 160.77183229 0.32659721 162.47011375 C0.17949186 174.16132519 0.17949186 174.16132519 6 184 C6 185.98 6 187.96 6 190 C-7.86 190 -21.72 190 -36 190 C-36.99 184.39 -37.98 178.78 -39 173 C-39.825 174.85625 -40.65 176.7125 -41.5 178.625 C-45.04235607 185.69304222 -48.78447878 189.54272053 -56.265625 192.12890625 C-68.45432961 194.97208735 -80.35644232 193.32318676 -91.1875 187.25 C-106.5702459 177.36280607 -112.91206627 160.9975018 -116.7109375 143.77734375 C-121.68302597 116.43085718 -120.86506035 84.24734696 -106 60 C-98.01284094 49.20930431 -88.57382086 42.84757946 -75.4375 40.3125 C-64.71379386 39.33761762 -55.9219585 40.11944075 -46.91015625 46.3671875 C-44.91273374 48.0745957 -43.54049637 49.88226017 -42 52 C-41.87560625 47.16204012 -41.7852921 42.32502819 -41.7253418 37.48583984 C-41.70032946 35.84277106 -41.66630774 34.19981206 -41.62280273 32.55712891 C-41.18647824 19.92307378 -41.18647824 19.92307378 -47 9 C-47.3125 6 -47.3125 6 -47 4 C-42.31102318 2.89800431 -37.62193909 2.58967919 -32.83203125 2.24609375 C-31.95600754 2.18092056 -31.07998383 2.11574738 -30.17741394 2.04859924 C-27.3893153 1.84198767 -24.60091571 1.63978221 -21.8125 1.4375 C-19.92511026 1.29779528 -18.03774021 1.15782425 -16.15039062 1.01757812 C-14.3567885 0.88517717 -12.56316927 0.75300765 -10.76953125 0.62109375 C-9.92058792 0.55860947 -9.07164459 0.49612518 -8.19697571 0.43174744 C-2.23716271 0 -2.23716271 0 0 0 Z M-67.72265625 54.14453125 C-84.74727158 78.87447707 -78.17683247 133.83602482 -73.65234375 161.80859375 C-71.7448705 171.87445148 -71.7448705 171.87445148 -66.25 180.25 C-62.23181072 182.41364038 -59.45746206 182.93606703 -55 182 C-50.42422128 179.88810213 -47.94090119 177.27479766 -45.875 172.65234375 C-40.28475211 155.70690482 -40.81339627 137.36714561 -40.81469727 119.75561523 C-40.81252093 116.46910442 -40.79433909 113.18293568 -40.77539062 109.89648438 C-39.62139694 80.72242384 -39.62139694 80.72242384 -49.625 54.25 C-53.27444788 50.79262833 -55.7942578 50.56981478 -60.68359375 50.6796875 C-63.59291947 51.08198886 -65.62382622 52.06895695 -67.72265625 54.14453125 Z " fill="#000002" transform="translate(496,20)"/>
<path d="M0 0 C1.01891327 0.10095474 1.01891327 0.10095474 2.05841064 0.20394897 C13.61920627 1.36920627 13.61920627 1.36920627 14.8125 2.5625 C14.9065067 4.52619153 14.92993381 6.49329199 14.92602539 8.45922852 C14.92591209 10.35107628 14.92591209 10.35107628 14.92579651 12.28114319 C14.9206891 13.66789794 14.91547309 15.05465229 14.91015625 16.44140625 C14.90829201 17.85245209 14.90686814 19.26349857 14.90586853 20.67454529 C14.90204379 24.39490535 14.8922139 28.1152266 14.88116455 31.83557129 C14.87094948 35.62930781 14.86637071 39.42305058 14.86132812 43.21679688 C14.85059158 50.66538436 14.83299515 58.1139318 14.8125 65.5625 C9.8625 65.5625 4.9125 65.5625 -0.1875 65.5625 C-0.51959473 64.53479492 -0.85168945 63.50708984 -1.19384766 62.44824219 C-2.44796042 58.57594816 -3.71465125 54.70786015 -4.98486328 50.84082031 C-5.52923036 49.17785116 -6.07034051 47.51381172 -6.60791016 45.84863281 C-12.48329634 25.65898341 -12.48329634 25.65898341 -26.1875 10.5625 C-32.74987044 7.29785857 -40.9250292 7.43759686 -47.92578125 9.28515625 C-54.95897973 12.20482016 -59.19212911 16.52337841 -62.1875 23.5625 C-64.5635625 31.35532037 -63.95906214 39.83745211 -60.55859375 47.19140625 C-55.18391687 56.48607539 -47.37118212 61.45105069 -38.1875 66.5625 C-36.78129395 67.34681396 -36.78129395 67.34681396 -35.34667969 68.14697266 C-33.21636011 69.33420619 -31.08581833 70.52104107 -28.95507812 71.70751953 C12.64657713 94.88122749 12.64657713 94.88122749 20.8125 119.5625 C22.63037537 126.0019469 23.16801306 132.13748818 23.125 138.8125 C23.11936035 139.73345459 23.1137207 140.65440918 23.10791016 141.60327148 C22.83032749 157.27020219 18.27216566 170.85187062 7.2890625 182.3125 C-12.3961246 200.19683402 -39.01511226 201.62392354 -64.1875 200.5625 C-76.6734553 199.64631513 -88.9126574 198.01746852 -101.1875 195.5625 C-101.1875 170.1525 -101.1875 144.7425 -101.1875 118.5625 C-96.2375 118.5625 -91.2875 118.5625 -86.1875 118.5625 C-84.09609588 124.04543292 -82.16154001 129.55391732 -80.33203125 135.12890625 C-79.78654575 136.7665222 -79.24029649 138.40388391 -78.69335938 140.04101562 C-77.84883877 142.57019537 -77.0080789 145.10025792 -76.18041992 147.63500977 C-68.84297985 171.32515489 -68.84297985 171.32515489 -52.5625 189 C-46.42085878 191.69575855 -39.75209541 191.69395866 -33.40625 189.6796875 C-27.67078351 187.07108678 -23.67938966 183.7893537 -20.1875 178.5625 C-19.79820313 177.99015625 -19.40890625 177.4178125 -19.0078125 176.828125 C-13.8531068 168.02373716 -13.37145713 157.02112468 -15.43359375 147.2421875 C-19.19658768 133.86698628 -28.63095446 127.19948414 -40.1875 120.5625 C-45.46452056 117.62595307 -50.8259367 114.84421033 -56.18432617 112.05981445 C-75.17142802 102.16968286 -91.25246594 91.06890355 -98.4609375 70.0703125 C-102.40396644 56.46050295 -101.56603812 40.43543299 -94.76171875 27.9453125 C-92.03266241 23.64369914 -88.97812604 19.98330887 -85.1875 16.5625 C-84.71054688 16.09328125 -84.23359375 15.6240625 -83.7421875 15.140625 C-62.13337757 -5.11110991 -27.23022913 -2.71416231 0 0 Z " fill="#000002" transform="translate(123.1875,230.4375)"/>
<path d="M0 0 C9.13007093 8.36652407 13.30231513 18.24610868 14.17983437 30.51415062 C14.24774674 33.1406664 14.2560021 35.76012014 14.23950195 38.38745117 C14.24151611 39.37253159 14.24353027 40.357612 14.24560547 41.37254333 C14.24912746 43.492802 14.24841319 45.61307123 14.24382973 47.73332787 C14.23819827 51.09246693 14.24745606 54.45126566 14.2610321 57.81037903 C14.29801297 67.35431569 14.31667408 76.8981322 14.30541992 86.44213867 C14.2995657 92.29584688 14.3178364 98.14907046 14.35130882 104.00267982 C14.35925147 106.2269588 14.35800133 108.45129075 14.34728432 110.67555809 C14.33293963 113.78448613 14.3492442 116.8918884 14.37231445 120.00073242 C14.36054672 120.91363037 14.34877899 121.82652832 14.33665466 122.76708984 C14.41524689 128.17734421 15.18443879 131.23359523 18.92831707 135.23434925 C20 137 20 137 20 143 C2.51 143 -14.98 143 -33 143 C-33 136.39051904 -33 136.39051904 -30.53845215 133.7978363 C-27.00696904 129.23419621 -27.3099521 124.8236498 -27.38476562 119.23461914 C-27.37644211 117.64302223 -27.37644211 117.64302223 -27.36795044 116.01927185 C-27.3561739 112.52410214 -27.38041259 109.03023464 -27.40625 105.53515625 C-27.40796182 103.09809936 -27.4078947 100.66104062 -27.40612793 98.22398376 C-27.40778011 93.12057843 -27.42645914 88.01761291 -27.45800781 82.91430664 C-27.49766327 76.38305246 -27.50205462 69.85237469 -27.49454498 63.32102299 C-27.49147048 58.2894516 -27.50361339 53.25800901 -27.52067566 48.22646904 C-27.5276916 45.81879929 -27.5308319 43.41111495 -27.52998352 41.00343513 C-27.53178777 37.63361533 -27.55322512 34.26447688 -27.58007812 30.89477539 C-27.57714752 29.90595367 -27.57421692 28.91713196 -27.57119751 27.89834595 C-27.65186223 21.31400789 -28.31665098 15.3025834 -32.625 10 C-36.41898741 8.40253162 -39.95522939 8.37393985 -44 9 C-48.85913802 11.38372809 -51.48318165 14.23602242 -54 19 C-55.95938797 25.34355908 -56.3015228 31.57071813 -56.30639648 38.16625977 C-56.31472 39.13983429 -56.32304352 40.11340881 -56.33161926 41.1164856 C-56.35555291 44.3081674 -56.36446868 47.49964447 -56.37109375 50.69140625 C-56.38006905 52.92382362 -56.38919106 55.15624041 -56.39845276 57.38865662 C-56.41489743 62.05623838 -56.42263527 66.72374877 -56.42553711 71.39135742 C-56.43093219 77.36218075 -56.4686788 83.33233122 -56.51428127 89.30296421 C-56.54405947 93.90901634 -56.55126076 98.51490605 -56.55226326 103.12104607 C-56.55645994 105.32221513 -56.56887191 107.52338493 -56.58978081 109.72445869 C-56.61672488 112.80451983 -56.61186139 115.88301481 -56.59936523 118.96313477 C-56.61419952 119.86465775 -56.62903381 120.76618073 -56.64431763 121.69502258 C-56.57985476 127.29262011 -55.55821263 130.59156335 -52.07267857 135.01692104 C-51 137 -51 137 -51 143 C-68.16 143 -85.32 143 -103 143 C-103 136 -103 136 -101.03234863 133.27137756 C-98.05491188 128.47873539 -98.44031567 124.19421747 -98.48242188 118.65795898 C-98.47190796 116.95694031 -98.47190796 116.95694031 -98.46118164 115.22155762 C-98.44360083 111.47948602 -98.4552248 107.73817281 -98.46875 103.99609375 C-98.46605532 101.39347692 -98.46217311 98.79086107 -98.45715332 96.18824768 C-98.44988649 90.73682458 -98.45944011 85.28561861 -98.47851562 79.83422852 C-98.50029375 73.53790132 -98.49322282 67.24209206 -98.47121 60.94577736 C-98.45085187 54.87912891 -98.45303019 48.81273326 -98.46473694 42.74604988 C-98.46740643 40.16842641 -98.4641267 37.59078973 -98.45481873 35.01318169 C-98.44466929 31.41264602 -98.46013315 27.81310779 -98.48242188 24.21264648 C-98.47432495 23.14601273 -98.46622803 22.07937897 -98.45788574 20.98042297 C-98.52359092 15.25615255 -98.79587218 12.23618368 -103 8 C-103.3125 4.75 -103.3125 4.75 -103 2 C-101.04773468 0.04773468 -97.49218955 0.3388748 -94.81640625 0.02734375 C-94.08687241 -0.06002548 -93.35733856 -0.14739471 -92.60569763 -0.2374115 C-91.05322832 -0.42194939 -89.50048783 -0.6042175 -87.94750977 -0.78442383 C-85.60272224 -1.05781036 -83.25940506 -1.34186262 -80.91601562 -1.62695312 C-73.2329463 -2.5408933 -65.75287909 -3.24057983 -58 -3 C-57.34 0.63 -56.68 4.26 -56 8 C-55.05125 6.783125 -54.1025 5.56625 -53.125 4.3125 C-40.69159941 -9.79366734 -14.83435304 -11.16651849 0 0 Z " fill="#000002" transform="translate(965,67)"/>
<path d="M0 0 C8.9118894 9.33626509 12.10786345 20.47026701 11.97802734 33.12158203 C11.98018753 34.10505615 11.98234772 35.08853027 11.98457336 36.10180664 C11.98764098 38.21879237 11.98411225 40.3357962 11.97455978 42.4527626 C11.96073044 45.80804848 11.96731179 49.16274901 11.97940063 52.51803589 C12.01024206 62.05096427 12.00546259 71.58375198 11.98535156 81.11669922 C11.97442192 86.96390188 11.98764458 92.81066145 12.01524734 98.65780258 C12.02067648 100.87847494 12.01665334 103.09919194 12.00284958 105.31982803 C11.98375475 108.42611202 11.9952275 111.53094718 12.01318359 114.63720703 C11.99984482 115.5465097 11.98650604 116.45581238 11.97276306 117.39266968 C12.04472548 123.00924561 13.05220053 126.32929831 16.55275917 130.76959038 C17.625 132.75 17.625 132.75 17.625 138.75 C2.775 138.75 -12.075 138.75 -27.375 138.75 C-28.035 134.46 -28.695 130.17 -29.375 125.75 C-30.15875 126.94625 -30.9425 128.1425 -31.75 129.375 C-36.39467527 135.55329446 -43.33272214 139.99764006 -50.98828125 141.50390625 C-64.88274856 142.93656 -76.35695783 141.69555055 -87.375 132.75 C-94.93580541 126.0311551 -97.88401983 116.23744763 -98.53125 106.3671875 C-98.97771265 93.30815512 -95.20733921 81.91199468 -86.375 72.1875 C-74.01422686 60.66520381 -46.47077524 43.75 -29.375 43.75 C-29.44440629 39.07216958 -29.53262051 34.39518848 -29.63745117 29.71801758 C-29.67047979 28.13054922 -29.69857869 26.54296965 -29.72143555 24.95532227 C-29.36256196 10.88292902 -29.36256196 10.88292902 -35.25390625 -1.2890625 C-37.76142983 -2.42506766 -39.56240845 -2.65042458 -42.3125 -2.625 C-43.56353516 -2.63660156 -43.56353516 -2.63660156 -44.83984375 -2.6484375 C-48.6968987 -2.04224396 -51.32908342 -0.47757578 -53.859375 2.4921875 C-61.67373219 15.66082646 -67.03081457 30.44137449 -72.375 44.75 C-77.325 44.75 -82.275 44.75 -87.375 44.75 C-87.375 29.24 -87.375 13.73 -87.375 -2.25 C-78.36251845 -5.62968058 -78.36251845 -5.62968058 -73.6953125 -6.6015625 C-72.17744141 -6.91867187 -72.17744141 -6.91867187 -70.62890625 -7.2421875 C-69.59636719 -7.45101563 -68.56382812 -7.65984375 -67.5 -7.875 C-66.47519531 -8.0915625 -65.45039063 -8.308125 -64.39453125 -8.53125 C-42.47186257 -13.04392132 -18.9004134 -13.7368984 0 0 Z M-44.5859375 60.6484375 C-54.24861963 71.32380248 -56.62310308 83.82939145 -56.75 97.875 C-56.76385742 98.79297363 -56.77771484 99.71094727 -56.79199219 100.65673828 C-56.73965208 108.34660225 -55.8631515 115.77635553 -50.8125 121.8125 C-47.12934979 124.74013222 -45.08791629 125.20316503 -40.375 124.75 C-34.97564394 122.05032197 -32.91421093 119.01651157 -30.375 113.75 C-29.32610499 110.48372783 -29.25390706 107.4840106 -29.26147461 104.06347656 C-29.26158791 102.35215546 -29.26158791 102.35215546 -29.26170349 100.60626221 C-29.26686478 99.38010193 -29.27202606 98.15394165 -29.27734375 96.890625 C-29.27946617 95.00135284 -29.27946617 95.00135284 -29.28163147 93.07391357 C-29.28627927 89.73334881 -29.29525719 86.39285279 -29.30633545 83.05230713 C-29.31658402 79.6403462 -29.32113646 76.22837815 -29.32617188 72.81640625 C-29.33720037 66.1275852 -29.35393811 59.43879657 -29.375 52.75 C-34.28856414 52.75 -41.00896346 57.57704283 -44.5859375 60.6484375 Z " fill="#000002" transform="translate(260.375,289.25)"/>
<path d="M0 0 C14.18754537 -0.38776249 29.09194779 1.97406855 40.1171875 11.43359375 C50.42603172 21.59206585 52.82950116 32.4245236 52.97021484 46.64379883 C52.98348982 49.72298843 52.98082923 52.80149854 52.96674728 55.88068581 C52.95288503 59.19805305 52.95951747 62.51483051 52.97158813 65.8321991 C53.00238955 75.25495495 52.99761896 84.67756691 52.97753906 94.1003418 C52.9666181 99.88500896 52.97980978 105.66922777 53.00743484 111.45383263 C53.01286655 113.65021168 53.00883423 115.84663585 52.99503708 118.04297829 C52.9759712 121.11093802 52.98739604 124.17742663 53.00537109 127.24536133 C52.98536293 128.59596901 52.98536293 128.59596901 52.96495056 129.97386169 C53.03493373 135.35493983 53.82762901 138.37093267 57.54494667 142.35109997 C58.6171875 144.12109375 58.6171875 144.12109375 58.6171875 150.12109375 C43.7671875 150.12109375 28.9171875 150.12109375 13.6171875 150.12109375 C12.68227567 145.44653458 12.53746738 141.82458105 12.6171875 137.12109375 C12.0603125 137.67796875 11.5034375 138.23484375 10.9296875 138.80859375 C10.1665625 139.57171875 9.4034375 140.33484375 8.6171875 141.12109375 C7.8746875 141.92546875 7.1321875 142.72984375 6.3671875 143.55859375 C-2.73500998 152.04018686 -12.20943481 153.7709115 -24.3359375 153.43359375 C-33.31527118 152.92580862 -42.0889304 149.68250104 -48.3828125 143.12109375 C-56.761816 132.08905725 -58.37081705 120.59637803 -57.3828125 107.12109375 C-55.46539474 95.2650606 -48.28216465 84.83632401 -38.65039062 77.86767578 C-23.45149837 67.39452168 -6.11992875 60.07505283 11.6171875 55.12109375 C11.54761939 50.74637447 11.4593338 46.37252425 11.35473633 41.99853516 C11.32177053 40.51491332 11.29365333 39.0311746 11.27075195 37.54736328 C11.58103565 23.6380029 11.58103565 23.6380029 6.1394043 11.42431641 C2.9224581 8.67017706 0.01145942 8.77439289 -4.07421875 8.859375 C-7.86065449 9.28863252 -9.60293292 10.52653947 -12.3828125 13.12109375 C-18.22033708 21.18470333 -21.5862425 30.49454318 -25.1953125 39.68359375 C-26.06951599 41.88966489 -26.94615296 44.09473241 -27.82536316 46.29881287 C-28.36741275 47.65966269 -28.90619977 49.02181761 -29.44136047 50.38539124 C-31.27255557 55.01083682 -31.27255557 55.01083682 -32.3828125 56.12109375 C-37.0028125 56.12109375 -41.6228125 56.12109375 -46.3828125 56.12109375 C-46.3828125 40.61109375 -46.3828125 25.10109375 -46.3828125 9.12109375 C-38.69128805 6.55725227 -31.68862971 4.33799043 -23.8203125 2.93359375 C-22.90918701 2.76633789 -21.99806152 2.59908203 -21.05932617 2.42675781 C-14.03397522 1.16826105 -7.1242291 0.36205099 0 0 Z M-3.81640625 72.20703125 C-13.86848296 83.03819141 -15.73817162 95.30614892 -15.6953125 109.62109375 C-15.71142578 110.69746094 -15.72753906 111.77382812 -15.74414062 112.8828125 C-15.74836521 119.81958309 -15.51368105 127.0586974 -11.10766602 132.77563477 C-8.49265527 135.27203718 -6.43096501 136.11335495 -2.8828125 136.68359375 C1.38953009 135.99696726 3.37832584 135.00008189 6.6171875 132.12109375 C10.25894785 126.46128786 11.74581401 121.23126347 11.73071289 114.52636719 C11.73059959 112.84507721 11.73059959 112.84507721 11.73048401 111.12982178 C11.72274208 109.32339203 11.72274208 109.32339203 11.71484375 107.48046875 C11.71272133 105.62449066 11.71272133 105.62449066 11.71055603 103.73101807 C11.7059086 100.44964434 11.69693097 97.16832002 11.68585205 93.88696289 C11.6756027 90.53532364 11.67113609 87.18368227 11.66601562 83.83203125 C11.65498775 77.26169944 11.63825046 70.69140064 11.6171875 64.12109375 C6.54545069 64.12109375 -0.14382573 69.05910509 -3.81640625 72.20703125 Z " fill="#000002" transform="translate(785.3828125,59.87890625)"/>
<path d="M0 0 C16.02721676 15.08301517 21.57097375 36.16611428 22.62109375 57.515625 C23.27646646 80.30098457 18.8318497 103.93099563 3.5859375 121.62109375 C-5.98025144 131.56356243 -18.72899424 138.43497074 -32.703125 138.94921875 C-50.53558516 139.25607224 -64.98547009 135.14211854 -78.19140625 122.44921875 C-82.0481512 118.23299837 -84.96208405 113.76709307 -87.6640625 108.74609375 C-88.12425781 107.8953125 -88.58445313 107.04453125 -89.05859375 106.16796875 C-100.35069069 83.3790843 -100.91838876 53.47070113 -93.375 29.45703125 C-87.98985328 13.58813341 -78.78522657 -0.68116421 -63.4140625 -8.31640625 C-41.85516637 -18.47491836 -18.16663264 -15.36971706 0 0 Z M-47.7890625 -0.81640625 C-57.47169183 15.42542359 -54.99929028 41.02131917 -54.92480469 59.15283203 C-54.9140652 62.2453164 -54.92479592 65.33722022 -54.9375 68.4296875 C-56.15094462 100.01230757 -56.15094462 100.01230757 -45.6640625 128.74609375 C-41.65408166 131.24287427 -39.66178732 131.89828906 -34.9765625 131.18359375 C-30.84893634 129.39235975 -28.52819997 127.43765697 -26.46875 123.40625 C-19.62682856 104.28911658 -20.45638223 83.29570098 -20.4765625 63.24609375 C-20.47683441 62.23128937 -20.47710632 61.21648499 -20.47738647 60.17092896 C-18.62108557 26.68245915 -18.62108557 26.68245915 -29.6640625 -3.25390625 C-32.44883837 -5.45241351 -34.14174048 -6.188616 -37.6640625 -6.62890625 C-42.37939445 -6.03948976 -44.693096 -4.36766194 -47.7890625 -0.81640625 Z " fill="#000002" transform="translate(266.6640625,74.25390625)"/>
<path d="M0 0 C0 13.86 0 27.72 0 42 C-4.29 42 -8.58 42 -13 42 C-16.36879118 35.46499529 -19.20434215 28.81033713 -21.91210938 21.97851562 C-24.92356012 14.61917151 -28.15386813 7.96978618 -35.76171875 4.66015625 C-41.53059069 2.9586914 -46.94990575 3.22059983 -52.4375 5.6875 C-56.43931588 7.97079414 -58.1128792 10.58057962 -59.6875 14.875 C-60.75763879 22.15194375 -59.53179127 27.44195926 -55.24609375 33.46484375 C-52.79114252 36.23573653 -50.43900555 37.95646449 -47.3125 39.9375 C-46.72944092 40.30810547 -46.14638184 40.67871094 -45.5456543 41.06054688 C-41.40785426 43.64000846 -37.17766532 46.02818122 -32.90625 48.37890625 C-31.82174561 48.97646729 -30.73724121 49.57402832 -29.61987305 50.18969727 C-27.46877121 51.36711073 -25.31163734 52.53359267 -23.14770508 53.68725586 C-10.01956233 60.8417573 1.05844333 69.40584887 6.4375 83.75 C9.85688204 96.21372157 10.4083122 112.50508999 4 124 C3.5875 124.78117188 3.175 125.56234375 2.75 126.3671875 C-3.52194719 136.95109839 -13.37820762 142.71585714 -25 146 C-32.25355313 147.64746548 -39.25808017 148.35587388 -46.6875 148.3125 C-47.66211182 148.30976074 -48.63672363 148.30702148 -49.64086914 148.30419922 C-63.6094013 148.11042384 -77.45694996 146.38576251 -91 143 C-91 125.18 -91 107.36 -91 89 C-86.71 89 -82.42 89 -78 89 C-77.43152344 90.79824219 -76.86304688 92.59648437 -76.27734375 94.44921875 C-70.71972647 112.42783478 -70.71972647 112.42783478 -62 129 C-61.58363281 129.64453125 -61.16726563 130.2890625 -60.73828125 130.953125 C-57.70620702 135.10333956 -53.87033134 137.57414642 -49 139 C-43.47015185 139.7206451 -38.04368465 139.96992525 -33 137.3125 C-26.67426042 132.43640907 -23.82269337 126.81444099 -22.7109375 118.95703125 C-22.40029965 111.88296031 -24.49691558 105.48886759 -28.875 99.9375 C-37.39767104 91.01149268 -49.79024211 85.89622344 -60.68945312 80.47558594 C-74.30134707 73.576598 -85.09780227 64.5375449 -90.08203125 49.80078125 C-92.97893123 37.80638259 -91.88538454 25.2175354 -85.5625 14.58203125 C-78.37460478 4.26671046 -66.76135997 -1.17254113 -54.72265625 -3.68359375 C-36.96797671 -6.57946387 -17.13293061 -5.71097687 0 0 Z " fill="#000002" transform="translate(645,283)"/>
<path d="M0 0 C0.00146656 0.90667986 0.00293312 1.81335972 0.00444412 2.74751472 C0.04149106 24.8060793 0.10047776 46.86448997 0.18390274 68.92292976 C0.223717 79.59022398 0.25609738 90.25744417 0.27099609 100.92480469 C0.28400022 110.22216657 0.31093321 119.51936572 0.35461307 128.81663597 C0.37725572 133.73978582 0.392909 138.66273477 0.39188385 143.58594131 C0.3911389 148.22024689 0.40902338 152.85410786 0.44116783 157.48829842 C0.4496834 159.18861807 0.45140552 160.88898749 0.44580269 162.58931923 C0.43916594 164.91302178 0.45707351 167.23530841 0.48101807 169.55886841 C0.48470524 170.85859652 0.48839241 172.15832462 0.49219131 173.49743843 C0.75843134 177.11171775 0.75843134 177.11171775 3.03243637 180.02757072 C5 183 5 183 5 190 C-12.16 190 -29.32 190 -47 190 C-47 183.45331763 -47 183.45331763 -44.54043579 180.58705139 C-40.52058482 174.56889553 -41.30206182 167.56231839 -41.35302734 160.60717773 C-41.34624401 159.05086242 -41.33733687 157.49455514 -41.32647705 155.93826294 C-41.30376367 151.72952139 -41.31248624 147.5213955 -41.32837248 143.31264377 C-41.34107072 138.89966143 -41.32928071 134.48673023 -41.32144165 130.07374573 C-41.31235743 122.66536028 -41.32430166 115.25722446 -41.34814453 107.84887695 C-41.3753636 99.29286919 -41.36653122 90.73745704 -41.3390125 82.18146366 C-41.31629934 74.82408958 -41.31313181 67.46689447 -41.32620585 60.10949665 C-41.33398698 55.72014516 -41.33507877 51.33107338 -41.31852341 46.94174004 C-41.30404523 42.81528936 -41.31416062 38.68960446 -41.34299469 34.56323624 C-41.34958732 33.05199134 -41.34773899 31.54068163 -41.33668137 30.02946281 C-41.28258171 21.88273949 -41.36336722 16.27731536 -47 10 C-47.3125 6.5625 -47.3125 6.5625 -47 4 C-14.44680851 0 -14.44680851 0 0 0 Z " fill="#000002" transform="translate(353,20)"/>
<path d="M0 0 C1.15834351 0.17631958 1.15834351 0.17631958 2.34008789 0.35620117 C16.1030164 2.6655164 16.1030164 2.6655164 19.125 5.6875 C19.21819449 7.2223297 19.242458 8.76142082 19.23852539 10.29907227 C19.23841209 11.77048424 19.23841209 11.77048424 19.23829651 13.2716217 C19.23313522 14.3382756 19.22797394 15.4049295 19.22265625 16.50390625 C19.2212413 17.5900975 19.21982635 18.67628876 19.21836853 19.7953949 C19.21275048 23.28029075 19.20019492 26.76512342 19.1875 30.25 C19.18248733 32.60611887 19.17792402 34.96223874 19.17382812 37.31835938 C19.16277518 43.10809743 19.14549846 48.89778799 19.125 54.6875 C14.175 54.6875 9.225 54.6875 4.125 54.6875 C3.53332031 52.66109375 2.94164062 50.6346875 2.33203125 48.546875 C1.74111182 46.54053552 1.147883 44.53489218 0.55444336 42.52929688 C0.14969294 41.15695752 -0.25273121 39.78392947 -0.65258789 38.41015625 C-4.69173416 21.05335714 -4.69173416 21.05335714 -14.875 7.6875 C-17.71507136 7.00495739 -20.03768721 6.9839387 -22.875 7.6875 C-29.93780438 12.82408501 -32.38377151 21.36010508 -34.0625 29.5625 C-34.22685547 30.30113281 -34.39121094 31.03976562 -34.56054688 31.80078125 C-36.86944637 42.58810928 -37.17296967 53.5067975 -37.5 64.5 C-37.52179321 65.22815918 -37.54358643 65.95631836 -37.56604004 66.70654297 C-39.47655421 101.28771242 -39.47655421 101.28771242 -27.5625 132.625 C-22.83115888 136.25602923 -18.91764957 138.00105235 -12.9375 137.625 C-5.01482122 136.47261036 0.29947161 133.36403447 5.3828125 127.19140625 C8.78643376 122.29965462 11.45759275 117.00609926 14.125 111.6875 C16.105 112.3475 18.085 113.0075 20.125 113.6875 C18.89374514 124.83816021 11.70959698 137.5808373 3.125 144.6875 C-4.95854573 149.90435699 -13.52929893 152.07757778 -23.0625 152 C-23.79936035 151.99436035 -24.5362207 151.9887207 -25.29541016 151.98291016 C-40.22604112 151.65643392 -52.65562766 146.6673566 -63.5234375 136.3515625 C-78.17088905 119.75760576 -81.30547794 97.37365954 -81.25 76.0625 C-81.24978851 75.31248718 -81.24957703 74.56247437 -81.24935913 73.78973389 C-81.18643214 51.42768846 -76.8438762 31.2370295 -61.0625 14.4375 C-44.38105705 -1.50468825 -21.77911036 -3.33700122 0 0 Z " fill="#000002" transform="translate(374.875,279.3125)"/>
</svg>
