<?xml version="1.0" encoding="UTF-8"?>
<svg version="1.1" xmlns="http://www.w3.org/2000/svg" width="900" height="500">
<path d="M0 0 C297 0 594 0 900 0 C900 165 900 330 900 500 C603 500 306 500 0 500 C0 335 0 170 0 0 Z " fill="#FFFEFE" transform="translate(0,0)"/>
<path d="M0 0 C13.98600704 6.41347284 26.33517054 16.80939704 37.8515625 26.8671875 C39.99716084 28.71639688 42.16155613 30.44771605 44.453125 32.109375 C44.42992187 31.48289063 44.40671875 30.85640625 44.3828125 30.2109375 C44.36476562 29.39367187 44.34671875 28.57640625 44.328125 27.734375 C44.30492187 26.92226562 44.28171875 26.11015625 44.2578125 25.2734375 C44.453125 23.109375 44.453125 23.109375 46.453125 21.109375 C67.48466094 20.79390196 67.48466094 20.79390196 73.0065918 25.40722656 C74.64897399 27.33983224 75.05193381 28.57053311 75.55078125 31.0390625 C75.71143066 31.82466553 75.87208008 32.61026855 76.03759766 33.41967773 C76.19534668 34.26602783 76.3530957 35.11237793 76.515625 35.984375 C76.68626465 36.859729 76.8569043 37.73508301 77.03271484 38.63696289 C78.42195619 46.12357787 79.22472511 53.62448725 79.76977539 61.21630859 C80.41646896 69.72160916 83.1398842 74.27404573 88.390625 80.859375 C94.49121355 88.66318652 99.99368206 96.73624074 105.22094727 105.14624023 C106.0822167 106.5184351 106.96191381 107.87915838 107.85522461 109.23071289 C108.30905518 109.92543701 108.76288574 110.62016113 109.23046875 111.3359375 C109.64288818 111.95678223 110.05530762 112.57762695 110.48022461 113.21728516 C112.27085715 116.69969474 112.03941855 119.26589506 111.453125 123.109375 C108.70122968 125.74905108 106.2847837 126.59925549 102.57421875 127.2421875 C101.65318359 127.40847656 100.73214844 127.57476562 99.78320312 127.74609375 C98.82865234 127.90722656 97.87410156 128.06835938 96.890625 128.234375 C94.99320278 128.5686888 93.09605392 128.90455882 91.19921875 129.2421875 C89.94129517 129.45705811 89.94129517 129.45705811 88.65795898 129.67626953 C86.29123916 130.09253794 86.29123916 130.09253794 83.453125 131.109375 C82.69887724 135.92772815 82.26242634 140.65186963 82.05859375 145.5234375 C81.99220103 146.9997822 81.92519504 148.47609942 81.85766602 149.95239258 C81.80535324 151.11830429 81.80535324 151.11830429 81.75198364 152.30776978 C81.02221256 168.21013966 79.90264358 184.06384462 78.515625 199.921875 C78.43621674 200.85888245 78.35680847 201.79588989 78.2749939 202.7612915 C77.47500191 212.13327326 76.54491323 221.46219755 75.01171875 230.74609375 C74.90183121 231.45039017 74.79194366 232.15468658 74.6787262 232.88032532 C74.20684328 235.53424107 73.67650697 237.75086406 72.24316406 240.05126953 C69.55932938 241.63770427 67.35028035 241.44595465 64.25390625 241.40234375 C63.04541016 241.39267578 61.83691406 241.38300781 60.59179688 241.37304688 C59.32916016 241.34791016 58.06652344 241.32277344 56.765625 241.296875 C55.49138672 241.28333984 54.21714844 241.26980469 52.90429688 241.25585938 C49.75348443 241.22045699 46.60351455 241.1710729 43.453125 241.109375 C43.25097069 231.11396767 43.27326797 221.14663465 43.89404297 211.16503906 C43.93767282 210.46329811 43.98130268 209.76155716 44.02625465 209.03855133 C44.0938955 207.95313679 44.0938955 207.95313679 44.16290283 206.84579468 C45.55755795 184.42356839 45.76516967 162.0429353 45.71386719 139.58300781 C45.70221107 134.40987513 45.7092383 129.23694413 45.72101212 124.06381798 C45.72821238 120.02845711 45.72595575 115.99314501 45.72075653 111.95778275 C45.71942829 110.046403 45.72103861 108.13501875 45.72571564 106.22364426 C45.73077859 103.58696194 45.723086 100.95062152 45.71191406 98.31396484 C45.71798676 97.14871025 45.71798676 97.14871025 45.72418213 95.95991516 C45.69453511 92.19455905 45.56595251 89.30325871 43.453125 86.109375 C40.79032667 86.109375 39.04245123 86.56321069 37.06640625 88.39453125 C15.1050032 115.77107478 6.26227182 161.77310833 7.453125 196.109375 C12.27982905 197.93569545 17.08929947 198.81649661 22.16015625 199.64453125 C24.453125 200.109375 24.453125 200.109375 25.453125 201.109375 C26.02489431 210.60340486 25.32603738 220.08838353 24.515625 229.546875 C24.42885498 230.57184082 24.34208496 231.59680664 24.25268555 232.65283203 C23.58234506 239.98015494 23.58234506 239.98015494 22.453125 241.109375 C21.07702618 241.20732811 19.69598618 241.23735588 18.31640625 241.23876953 C16.99999146 241.24349777 16.99999146 241.24349777 15.65698242 241.24832153 C14.70283447 241.2462973 13.74868652 241.24427307 12.765625 241.2421875 C11.30636597 241.24362259 11.30636597 241.24362259 9.81762695 241.24508667 C7.756347 241.24576858 5.69506492 241.24391353 3.63378906 241.23974609 C0.46674812 241.234398 -2.700151 241.23969072 -5.8671875 241.24609375 C-7.86458365 241.24543297 -9.86197971 241.24415181 -11.859375 241.2421875 C-12.81352295 241.24421173 -13.7676709 241.24623596 -14.75073242 241.24832153 C-15.62834229 241.24516937 -16.50595215 241.24201721 -17.41015625 241.23876953 C-18.18657471 241.23797394 -18.96299316 241.23717834 -19.76293945 241.23635864 C-21.546875 241.109375 -21.546875 241.109375 -22.546875 240.109375 C-22.84848674 237.87862201 -23.08747566 235.63935902 -23.30078125 233.3984375 C-23.36595444 232.71566742 -23.43112762 232.03289734 -23.49827576 231.32943726 C-23.63577168 229.87527081 -23.77095951 228.42088461 -23.90405273 226.96630859 C-24.10539988 224.77758607 -24.31677967 222.59000623 -24.52929688 220.40234375 C-26.57833892 198.84847114 -26.57833892 198.84847114 -23.8671875 194.27734375 C-23.14273438 193.62378906 -22.41828125 192.97023438 -21.671875 192.296875 C-17.75795615 188.670538 -15.86386926 185.60552726 -15.3699913 180.15851212 C-15.30152712 177.88644446 -15.29942691 175.623112 -15.31982422 173.35009766 C-15.31953217 172.49090729 -15.31924011 171.63171692 -15.31893921 170.74649048 C-15.32032647 167.9220348 -15.33585916 165.09784679 -15.3515625 162.2734375 C-15.35529478 160.30903263 -15.35814074 158.3446259 -15.36013794 156.38021851 C-15.36775747 151.22140319 -15.38739155 146.06270131 -15.4095459 140.90393066 C-15.43004053 135.63518813 -15.43914739 130.36642719 -15.44921875 125.09765625 C-15.47063901 114.76817946 -15.50475468 104.43878668 -15.546875 94.109375 C-17.20302157 93.72718733 -18.87144524 93.39542398 -20.546875 93.109375 C-26.51498598 99.07748598 -22.91999438 126.21292444 -23.02368164 134.50146484 C-23.06315823 137.52201488 -23.11465593 140.54216703 -23.16796875 143.5625 C-23.1763829 144.49257874 -23.18479706 145.42265747 -23.19346619 146.38092041 C-23.21010818 147.2365155 -23.22675018 148.0921106 -23.24389648 148.97363281 C-23.25935768 150.10276093 -23.25935768 150.10276093 -23.27513123 151.25469971 C-23.546875 153.109375 -23.546875 153.109375 -25.546875 155.109375 C-28.046875 155.421875 -28.046875 155.421875 -30.546875 155.109375 C-32.83145999 151.68249752 -32.79138952 150.46997189 -32.77392578 146.44458008 C-32.77377472 145.28360306 -32.77362366 144.12262604 -32.77346802 142.9264679 C-32.76314545 141.67327255 -32.75282288 140.42007721 -32.7421875 139.12890625 C-32.7393576 137.84578049 -32.73652771 136.56265472 -32.73361206 135.24064636 C-32.72598297 131.83261298 -32.70634087 128.42475059 -32.6842041 125.01678467 C-32.66372997 121.53790602 -32.654607 118.05899968 -32.64453125 114.58007812 C-32.62309418 107.75644026 -32.58896705 100.93291584 -32.546875 94.109375 C-34.196875 93.779375 -35.846875 93.449375 -37.546875 93.109375 C-39.49492777 96.39029641 -39.80996731 98.88042593 -39.84985352 102.67236328 C-39.86649551 103.78676788 -39.88313751 104.90117249 -39.90028381 106.04934692 C-39.90869797 107.24735931 -39.91711212 108.4453717 -39.92578125 109.6796875 C-39.94277573 110.91226288 -39.9597702 112.14483826 -39.97727966 113.4147644 C-40.02141519 116.6854545 -40.05773354 119.95609852 -40.08947754 123.22692871 C-40.13523316 127.84319395 -40.19106538 132.45932136 -40.25218201 137.07540894 C-40.28420419 139.53264155 -40.31107374 141.98994753 -40.33241272 144.44729614 C-40.34590256 145.55539642 -40.3593924 146.6634967 -40.37329102 147.80517578 C-40.38755882 149.27266769 -40.38755882 149.27266769 -40.40211487 150.76980591 C-40.546875 153.109375 -40.546875 153.109375 -41.546875 155.109375 C-44.421875 155.234375 -44.421875 155.234375 -47.546875 155.109375 C-49.546875 153.109375 -49.546875 153.109375 -49.78738403 150.59103394 C-49.78294281 149.5295816 -49.77850159 148.46812927 -49.77392578 147.37451172 C-49.77377472 146.17341766 -49.77362366 144.97232361 -49.77346802 143.73483276 C-49.76314545 142.43272858 -49.75282288 141.13062439 -49.7421875 139.7890625 C-49.73845776 138.44670827 -49.73561061 137.10435133 -49.73361206 135.76199341 C-49.72597244 132.227361 -49.7063213 128.69289272 -49.6842041 125.1583252 C-49.66375265 121.5521873 -49.65461185 117.94602291 -49.64453125 114.33984375 C-49.6230756 107.26295365 -49.58893579 100.18617503 -49.546875 93.109375 C-51.196875 93.109375 -52.846875 93.109375 -54.546875 93.109375 C-56.95252301 96.8298912 -56.82974388 100.4846665 -56.80566406 104.7644043 C-56.8091687 105.53081741 -56.81267334 106.29723053 -56.81628418 107.08686829 C-56.82508151 109.61920247 -56.81925652 112.15125674 -56.8125 114.68359375 C-56.81384792 116.44993646 -56.81578951 118.2162788 -56.81829834 119.98262024 C-56.82124748 123.68726122 -56.81696129 127.39180578 -56.80761719 131.09643555 C-56.79626451 135.82614487 -56.8027568 140.55562614 -56.81476212 145.28532696 C-56.8220221 148.93579292 -56.81967314 152.58620571 -56.81450653 156.23667336 C-56.81317928 157.97924642 -56.81478508 159.72182443 -56.81946564 161.46439171 C-57.3054082 177.76520992 -57.3054082 177.76520992 -50.546875 192.109375 C-49.49704846 192.93818543 -48.43404271 193.7505385 -47.359375 194.546875 C-42.61425115 198.87021006 -43.40755739 205.26307159 -43.10327148 211.38208008 C-43.06403564 212.2614624 -43.0247998 213.14084473 -42.984375 214.046875 C-42.9419165 214.96041748 -42.89945801 215.87395996 -42.85571289 216.81518555 C-42.5048259 224.91806269 -42.44364431 233.00003116 -42.546875 241.109375 C-51.57324671 242.01362691 -60.60556656 242.29666956 -69.671875 242.421875 C-70.7745874 242.45152344 -71.8772998 242.48117187 -73.01342773 242.51171875 C-74.05829346 242.51945313 -75.10315918 242.5271875 -76.1796875 242.53515625 C-77.58565186 242.55703003 -77.58565186 242.55703003 -79.02001953 242.5793457 C-82.33983078 241.96189289 -83.48862659 240.73794979 -85.546875 238.109375 C-86.27780086 235.28272397 -86.75675457 232.73601532 -87.109375 229.859375 C-87.22667969 228.9828125 -87.34398437 228.10625 -87.46484375 227.203125 C-87.85375294 224.17459813 -88.20504005 221.14356712 -88.546875 218.109375 C-88.6691748 217.04267578 -88.79147461 215.97597656 -88.91748047 214.87695312 C-90.48264487 200.80065014 -91.55047322 186.73110213 -92.296875 172.58984375 C-92.35983765 171.41438995 -92.42280029 170.23893616 -92.4876709 169.02786255 C-92.80270415 163.09944049 -93.09928296 157.17088511 -93.36914062 151.24023438 C-93.48006591 149.04425045 -93.59137655 146.84828594 -93.703125 144.65234375 C-93.74373047 143.63190475 -93.78433594 142.61146576 -93.82617188 141.56010437 C-93.87644531 140.62141006 -93.92671875 139.68271576 -93.97851562 138.71557617 C-94.01609985 137.89498215 -94.05368408 137.07438812 -94.09240723 136.22892761 C-94.648201 133.63680951 -95.47586182 132.72298986 -97.546875 131.109375 C-99.99464328 130.30846085 -99.99464328 130.30846085 -102.765625 129.86328125 C-103.78011719 129.66541016 -104.79460937 129.46753906 -105.83984375 129.26367188 C-107.97717083 128.86926864 -110.1151979 128.47863998 -112.25390625 128.09179688 C-113.77564453 127.79305664 -113.77564453 127.79305664 -115.328125 127.48828125 C-116.25689453 127.3188501 -117.18566406 127.14941895 -118.14257812 126.97485352 C-121.08625007 125.91521531 -121.99543745 124.78747416 -123.546875 122.109375 C-124.69526968 116.05821841 -121.50343118 111.85648705 -118.421875 106.921875 C-117.88780029 106.05054932 -117.35372559 105.17922363 -116.8034668 104.28149414 C-106.5983132 87.91167893 -94.63305717 72.66015683 -81.640625 58.421875 C-79.85783114 56.45281909 -78.13569053 54.45047298 -76.421875 52.421875 C-68.14324818 42.94958571 -59.08612074 33.97654614 -49.1953125 26.203125 C-46.38349683 23.98021468 -43.6940922 21.64282194 -40.984375 19.296875 C-35.93124718 15.07158595 -30.64953466 11.32753179 -25.171875 7.671875 C-24.41060303 7.16358154 -23.64933105 6.65528809 -22.86499023 6.1315918 C-8.82867219 -3.08732708 -8.82867219 -3.08732708 0 0 Z " fill="#FF8001" transform="translate(142.546875,128.890625)"/>
<path d="M0 0 C0.78759201 -0.0066568 1.57518402 -0.0133136 2.38664246 -0.02017212 C4.06201849 -0.03031646 5.73743508 -0.03498859 7.4128418 -0.03466797 C9.93284802 -0.038981 12.45101426 -0.0751079 14.97070312 -0.11328125 C26.98757807 -0.19781961 38.80482317 0.5524854 48.45703125 8.63671875 C55.89523261 16.02397353 59.55864812 23.78491658 60.16015625 34.28515625 C60.18141478 42.58661238 58.02139113 48.33430559 53.41015625 55.20703125 C51.91598397 57.35699711 51.91598397 57.35699711 52.16796875 60.3359375 C53.61470223 62.36484811 53.61470223 62.36484811 55.48046875 64.4609375 C62.50868979 73.3386904 63.23162165 82.14965526 62.16796875 93.3359375 C59.92015815 102.78436171 54.20069784 110.53554208 46.3125 116.0859375 C38.36972673 120.71560498 29.56262398 121.49092859 20.55859375 121.50390625 C19.34656281 121.50889885 19.34656281 121.50889885 18.11004639 121.51399231 C16.41239996 121.51903127 14.71474374 121.52140158 13.01708984 121.52124023 C10.41227244 121.52344232 7.80786848 121.54167192 5.203125 121.56054688 C3.5507827 121.56347826 1.89843839 121.56546476 0.24609375 121.56640625 C-0.92418365 121.57718452 -0.92418365 121.57718452 -2.11810303 121.58818054 C-7.60318586 121.56478289 -7.60318586 121.56478289 -9.83203125 119.3359375 C-10.08371353 117.26819611 -10.08371353 117.26819611 -10.08599854 114.66711426 C-10.09163818 113.68279922 -10.09727783 112.69848419 -10.10308838 111.68434143 C-10.09903992 110.60063766 -10.09499146 109.5169339 -10.09082031 108.40039062 C-10.09432495 107.2621434 -10.09782959 106.12389618 -10.10144043 104.95115662 C-10.11027274 101.17310562 -10.10440322 97.39524053 -10.09765625 93.6171875 C-10.09900247 91.00166793 -10.10094263 88.3861486 -10.10345459 85.77062988 C-10.10709578 80.28277557 -10.10229116 74.79497505 -10.09277344 69.30712891 C-10.08188856 62.95756295 -10.08541403 56.60812541 -10.09642625 50.25856256 C-10.10658628 44.15672758 -10.10552302 38.05494966 -10.09966278 31.95310974 C-10.09832474 29.35346967 -10.09997937 26.75382634 -10.10462189 24.15419006 C-10.1096779 20.52653205 -10.10198974 16.8991237 -10.09082031 13.27148438 C-10.09486877 12.18778061 -10.09891724 11.10407684 -10.10308838 9.98753357 C-10.09744873 9.00321854 -10.09180908 8.0189035 -10.08599854 7.00476074 C-10.08486746 5.71722523 -10.08486746 5.71722523 -10.08371353 4.40367889 C-9.41675666 -1.07582614 -4.29637637 0.01261131 0 0 Z " fill="#FF8204" transform="translate(551.83203125,219.6640625)"/>
<path d="M0 0 C5.79829005 -0.09956118 11.59607242 -0.17179346 17.39501953 -0.21972656 C19.36385782 -0.23972787 21.33263756 -0.26693802 23.30126953 -0.30175781 C26.14630658 -0.35078531 28.99055215 -0.37308382 31.8359375 -0.390625 C32.70302338 -0.41127014 33.57010925 -0.43191528 34.46347046 -0.45318604 C44.8806247 -0.45693227 52.38595536 3.52453882 59.80078125 10.63671875 C67.57721022 18.99327209 69.51103638 27.58366659 69.31640625 38.8203125 C68.55369111 46.48512881 64.17979991 52.71316981 60 59 C60.45890625 59.46148437 60.9178125 59.92296875 61.390625 60.3984375 C69.01272568 68.50092268 71.61626036 76.00081963 71.47290039 87.09765625 C71.02325861 97.37239747 66.62892521 105.75189003 59.15234375 112.72265625 C50.40040575 119.80424426 40.30757734 121.16141013 29.35546875 121.1328125 C28.13988029 121.13424759 28.13988029 121.13424759 26.8997345 121.13571167 C25.19788535 121.13638894 23.49603356 121.1345664 21.79418945 121.13037109 C19.17849016 121.12498144 16.56295987 121.13034917 13.94726562 121.13671875 C12.29166629 121.13605857 10.63606705 121.13477866 8.98046875 121.1328125 C8.19512253 121.13483673 7.40977631 121.13686096 6.60063171 121.13894653 C1.11497447 121.11497447 1.11497447 121.11497447 0 120 C-0.09588124 118.44379604 -0.12188033 116.88323546 -0.12025452 115.32408142 C-0.12162918 114.31300827 -0.12300385 113.30193512 -0.12442017 112.26022339 C-0.12082489 111.14173004 -0.11722961 110.02323669 -0.11352539 108.87084961 C-0.11367142 107.70027512 -0.11381744 106.52970062 -0.1139679 105.32365417 C-0.11338895 102.10479057 -0.10835991 98.88596996 -0.10139394 95.66711497 C-0.09515957 92.306526 -0.09455654 88.94593627 -0.09336853 85.58534241 C-0.09025546 79.21757658 -0.0820424 72.84982784 -0.07201904 66.48206955 C-0.06085715 59.23430271 -0.05534726 51.98653507 -0.05032361 44.73876178 C-0.03985977 29.82583165 -0.0222608 14.91291753 0 0 Z " fill="#FF8102" transform="translate(806,220)"/>
<path d="M0 0 C1.32380173 -0.01210762 1.32380173 -0.01210762 2.67434692 -0.02445984 C4.5524091 -0.03832828 6.43049677 -0.04903801 8.30859375 -0.05688477 C11.14894644 -0.07394033 13.98808666 -0.11778021 16.828125 -0.16210938 C29.59038766 -0.27252981 40.06048726 0.6139433 50.24609375 9.1171875 C58.75070794 17.81399636 61.712163 27.19204852 61.61572266 39.17407227 C61.35390958 50.42296192 57.42218781 58.42781215 50.0703125 66.80078125 C48.3203125 68.23828125 48.3203125 68.23828125 46.3203125 68.23828125 C46.6196167 69.12894287 46.9189209 70.01960449 47.22729492 70.93725586 C50.20870304 79.84107391 53.13953112 88.75911412 55.9699707 97.7121582 C56.41733148 99.12179777 56.86826466 100.5303079 57.32250977 101.93774414 C57.99282909 104.01585312 58.65185656 106.09725219 59.30859375 108.1796875 C59.69571533 109.39342041 60.08283691 110.60715332 60.48168945 111.85766602 C61.29497434 115.13613934 61.4854226 117.87805036 61.3203125 121.23828125 C57.36204015 121.29613772 53.4038758 121.33182842 49.4453125 121.36328125 C48.31738281 121.38003906 47.18945312 121.39679688 46.02734375 121.4140625 C44.41279297 121.42373047 44.41279297 121.42373047 42.765625 121.43359375 C41.77062988 121.44406738 40.77563477 121.45454102 39.75048828 121.46533203 C37.3203125 121.23828125 37.3203125 121.23828125 35.3203125 119.23828125 C34.56744217 117.1609879 33.89394183 115.05463376 33.26171875 112.9375 C33.07189926 112.3052803 32.88207977 111.67306061 32.68650818 111.02168274 C32.28426732 109.67674825 31.88518745 108.33086499 31.48901367 106.98413086 C30.89566439 104.96941972 30.29153298 102.95820682 29.68554688 100.94726562 C27.24516494 92.77926383 25.12325647 84.57301336 23.3203125 76.23828125 C20.6803125 76.23828125 18.0403125 76.23828125 15.3203125 76.23828125 C15.3203125 90.75828125 15.3203125 105.27828125 15.3203125 120.23828125 C11.3809375 120.25890625 7.4415625 120.27953125 3.3828125 120.30078125 C1.51701538 120.31443726 1.51701538 120.31443726 -0.38647461 120.32836914 C-1.3585083 120.3308667 -2.33054199 120.33336426 -3.33203125 120.3359375 C-4.83237915 120.34379272 -4.83237915 120.34379272 -6.36303711 120.35180664 C-8.6796875 120.23828125 -8.6796875 120.23828125 -9.6796875 119.23828125 C-9.77767138 117.70974635 -9.80600581 116.17669161 -9.80667114 114.64501953 C-9.80949097 113.65221985 -9.81231079 112.65942017 -9.81521606 111.63653564 C-9.81319183 110.53831482 -9.8111676 109.44009399 -9.80908203 108.30859375 C-9.81083435 107.15913269 -9.81258667 106.00967163 -9.81439209 104.82537842 C-9.8188134 101.00466425 -9.81587163 97.18399593 -9.8125 93.36328125 C-9.81317296 90.72151684 -9.81414292 88.07975248 -9.81539917 85.43798828 C-9.81722071 79.89289854 -9.81481497 74.3478221 -9.81005859 68.80273438 C-9.804616 62.38333381 -9.80637867 55.963965 -9.811885 49.5445652 C-9.81696176 43.38027142 -9.81643461 37.21599177 -9.81350327 31.05169678 C-9.81283372 28.42331945 -9.81366338 25.79494133 -9.81598282 23.16656494 C-9.81850769 19.50034402 -9.81467107 15.83418503 -9.80908203 12.16796875 C-9.81110626 11.06974792 -9.81313049 9.9715271 -9.81521606 8.84002686 C-9.81239624 7.84722717 -9.80957642 6.85442749 -9.80667114 5.83154297 C-9.80629412 4.963591 -9.80591709 4.09563904 -9.80552864 3.2013855 C-9.49369233 -1.66321741 -3.7318491 0.03216091 0 0 Z " fill="#FF8204" transform="translate(378.6796875,219.76171875)"/>
<path d="M0 0 C1.02996094 -0.00128906 2.05992187 -0.00257813 3.12109375 -0.00390625 C4.74724609 0.00189453 4.74724609 0.00189453 6.40625 0.0078125 C7.49035156 0.00394531 8.57445312 0.00007812 9.69140625 -0.00390625 C10.72136719 -0.00261719 11.75132812 -0.00132812 12.8125 0 C14.24045898 0.00169189 14.24045898 0.00169189 15.69726562 0.00341797 C17.90625 0.1328125 17.90625 0.1328125 18.90625 1.1328125 C18.99920815 2.57571037 19.02371513 4.02311035 19.01977539 5.46899414 C19.01969986 6.3898732 19.01962433 7.31075226 19.01954651 8.25953674 C19.01438522 9.26056931 19.00922394 10.26160187 19.00390625 11.29296875 C19.0024913 12.31257187 19.00107635 13.33217499 18.99961853 14.38267517 C18.99400097 17.65358357 18.9814455 20.92442463 18.96875 24.1953125 C18.96373726 26.40690006 18.95917396 28.61848868 18.95507812 30.83007812 C18.9448748 36.26437002 18.92530285 41.69851548 18.90625 47.1328125 C25.83625 47.1328125 32.76625 47.1328125 39.90625 47.1328125 C39.89464844 43.82378906 39.88304687 40.51476562 39.87109375 37.10546875 C39.86330419 33.91512142 39.85722686 30.72477513 39.85131836 27.53442383 C39.84627683 25.31013518 39.83944377 23.08584987 39.83081055 20.86157227 C39.81873702 17.67202941 39.81302004 14.48253021 39.80859375 11.29296875 C39.80343246 10.29193619 39.79827118 9.29090363 39.79295349 8.25953674 C39.79287796 7.33865768 39.79280243 6.41777863 39.79272461 5.46899414 C39.790504 4.65402969 39.78828339 3.83906525 39.78599548 2.99940491 C39.90625 1.1328125 39.90625 1.1328125 40.90625 0.1328125 C42.60183726 0.03349097 44.30150747 0.00201243 46 0 C47.02996094 -0.00128906 48.05992187 -0.00257813 49.12109375 -0.00390625 C50.74724609 0.00189453 50.74724609 0.00189453 52.40625 0.0078125 C53.49035156 0.00394531 54.57445312 0.00007812 55.69140625 -0.00390625 C56.72136719 -0.00261719 57.75132812 -0.00132812 58.8125 0 C60.24045898 0.00169189 60.24045898 0.00169189 61.69726562 0.00341797 C63.90625 0.1328125 63.90625 0.1328125 64.90625 1.1328125 C65.00419601 2.64642707 65.03256813 4.16460107 65.03323364 5.68138123 C65.03746338 7.15579178 65.03746338 7.15579178 65.04177856 8.6599884 C65.03874222 10.29093697 65.03874222 10.29093697 65.03564453 11.95483398 C65.03827301 13.66198578 65.03827301 13.66198578 65.04095459 15.40362549 C65.04537623 19.18706766 65.04243382 22.97046355 65.0390625 26.75390625 C65.0397355 29.37085479 65.04070548 31.98780326 65.04196167 34.60475159 C65.04378333 40.09856676 65.04137743 45.59236851 65.03662109 51.08618164 C65.03118118 57.44307833 65.03293917 63.79994293 65.0384475 70.15683883 C65.04352778 76.26346414 65.04299566 82.3700752 65.04006577 88.47670174 C65.03939667 91.07913276 65.0402243 93.6815646 65.04254532 96.28399467 C65.04507343 99.91648427 65.04122882 103.54891155 65.03564453 107.18139648 C65.03766876 108.2666713 65.03969299 109.35194611 65.04177856 110.47010803 C65.03895874 111.45586823 65.03613892 112.44162842 65.03323364 113.45726013 C65.0326681 114.74674387 65.0326681 114.74674387 65.03209114 116.06227779 C64.90625 118.1328125 64.90625 118.1328125 63.90625 120.1328125 C55.98625 120.1328125 48.06625 120.1328125 39.90625 120.1328125 C39.90625 104.2928125 39.90625 88.4528125 39.90625 72.1328125 C32.97625 72.1328125 26.04625 72.1328125 18.90625 72.1328125 C18.90625 87.9728125 18.90625 103.8128125 18.90625 120.1328125 C10.98625 120.1328125 3.06625 120.1328125 -5.09375 120.1328125 C-6.70804882 118.51851368 -6.21976382 116.77217351 -6.22073364 114.53955078 C-6.22355347 113.5467511 -6.22637329 112.55395142 -6.22927856 111.53106689 C-6.22725433 110.43284607 -6.2252301 109.33462524 -6.22314453 108.203125 C-6.22489685 107.05366394 -6.22664917 105.90420288 -6.22845459 104.71990967 C-6.2328759 100.8991955 -6.22993413 97.07852718 -6.2265625 93.2578125 C-6.22723546 90.61604809 -6.22820542 87.97428373 -6.22946167 85.33251953 C-6.23128321 79.78742979 -6.22887747 74.24235335 -6.22412109 68.69726562 C-6.2186785 62.27786506 -6.22044117 55.85849625 -6.2259475 49.43909645 C-6.23102426 43.27480267 -6.23049711 37.11052302 -6.22756577 30.94622803 C-6.22689622 28.3178507 -6.22772588 25.68947258 -6.23004532 23.06109619 C-6.23257019 19.39487527 -6.22873357 15.72871628 -6.22314453 12.0625 C-6.22516876 10.96427917 -6.22719299 9.86605835 -6.22927856 8.73455811 C-6.22645874 7.74175842 -6.22363892 6.74895874 -6.22073364 5.72607422 C-6.22035662 4.85812225 -6.21997959 3.99017029 -6.21959114 3.09591675 C-5.9645842 -0.88215603 -3.39569862 0.00402334 0 0 Z " fill="#FF8103" transform="translate(635.09375,219.8671875)"/>
<path d="M0 0 C1.02996094 -0.00128906 2.05992187 -0.00257813 3.12109375 -0.00390625 C4.74724609 0.00189453 4.74724609 0.00189453 6.40625 0.0078125 C7.49035156 0.00394531 8.57445312 0.00007812 9.69140625 -0.00390625 C10.72136719 -0.00261719 11.75132812 -0.00132812 12.8125 0 C14.24045898 0.00169189 14.24045898 0.00169189 15.69726562 0.00341797 C17.90625 0.1328125 17.90625 0.1328125 18.90625 1.1328125 C19.01547042 3.83952533 19.06047998 6.52165775 19.06396484 9.22924805 C19.07158592 10.50248177 19.07158592 10.50248177 19.07936096 11.80143738 C19.09009019 13.65174503 19.09870028 15.50206586 19.10548019 17.3523922 C19.11723762 20.28202029 19.13668388 23.21149884 19.15859985 26.1410675 C19.2203102 34.47314464 19.27421658 42.80520879 19.30761719 51.13745117 C19.3285784 56.22859844 19.36389926 61.31947722 19.40837479 66.41047096 C19.42252993 68.35086718 19.43125613 70.29131095 19.43442917 72.23175621 C19.43934505 74.95125707 19.46252235 77.67004799 19.48974609 80.3894043 C19.48673996 81.18912659 19.48373383 81.98884888 19.4806366 82.81280518 C19.55211843 87.62798092 20.25191756 90.95612072 22.90625 95.1328125 C25.96318322 96.66127911 28.53609547 96.36523695 31.90625 96.1328125 C35.0912857 94.37266119 35.73921972 93.63390334 36.90625 90.1328125 C37.02146309 87.2938682 37.0812096 84.47791952 37.09570312 81.63818359 C37.10399643 80.77128403 37.11228973 79.90438446 37.12083435 79.01121521 C37.13823256 77.12874552 37.15340001 75.2462542 37.16661072 73.36375046 C37.18762085 70.38914044 37.21464306 67.41463966 37.24328613 64.44009399 C37.31315299 57.0546612 37.37261268 49.66915111 37.43231201 42.28363037 C37.48315208 36.04073032 37.53793871 29.79788991 37.59812927 23.55507278 C37.62479564 20.61627193 37.64555178 17.67746579 37.6661377 14.73861694 C37.68273217 12.94862601 37.69960325 11.15863762 37.71679688 9.36865234 C37.72098129 8.54474503 37.72516571 7.72083771 37.72947693 6.8719635 C37.79240182 1.24666068 37.79240182 1.24666068 38.90625 0.1328125 C42.71213144 -0.11927472 46.53050456 -0.05241094 50.34375 -0.0546875 C51.95733398 -0.07305664 51.95733398 -0.07305664 53.60351562 -0.09179688 C54.63025391 -0.09373047 55.65699219 -0.09566406 56.71484375 -0.09765625 C58.13494751 -0.10381958 58.13494751 -0.10381958 59.58374023 -0.11010742 C61.90625 0.1328125 61.90625 0.1328125 63.90625 2.1328125 C64.10494268 4.91174044 64.17894594 7.5910155 64.16503906 10.37109375 C64.1685437 11.22339066 64.17204834 12.07568756 64.17565918 12.95381165 C64.18449268 15.78439378 64.17861751 18.61472761 64.171875 21.4453125 C64.17322218 23.41390023 64.17516316 25.38248763 64.17767334 27.35107422 C64.18062761 31.48717399 64.17632094 35.62318757 64.16699219 39.75927734 C64.1556572 45.04047096 64.16211721 50.32145995 64.17413712 55.60264587 C64.18139872 59.67435213 64.17904709 63.74601073 64.17388153 67.81771851 C64.17255379 69.76321436 64.17416186 71.70871464 64.17884064 73.65420532 C64.23091481 101.4224003 64.23091481 101.4224003 54.59375 112.8828125 C43.60519449 122.08253339 32.84148431 123.33853868 18.90625 122.1328125 C10.22729178 120.35442474 4.10751792 115.02624646 -1.40625 108.3203125 C-5.3137502 100.93947878 -6.54075333 93.65380454 -6.45019531 85.38452148 C-6.45223969 84.46783188 -6.45428406 83.55114227 -6.45639038 82.60667419 C-6.45936901 79.61387374 -6.44101914 76.62164004 -6.421875 73.62890625 C-6.41881392 71.53809241 -6.41694045 69.44727652 -6.41619873 67.35646057 C-6.4116151 62.99496546 -6.39725614 58.63365699 -6.375 54.2722168 C-6.34656083 48.66980325 -6.3357706 43.06753532 -6.3313179 37.46505642 C-6.32717378 33.1578271 -6.31736736 28.85062741 -6.30544281 24.54341316 C-6.2997327 22.47604675 -6.29497645 20.40867749 -6.29117584 18.34130669 C-6.28434115 15.46633689 -6.27072638 12.59148518 -6.25488281 9.71655273 C-6.25376495 8.85688904 -6.25264709 7.99722534 -6.25149536 7.11151123 C-6.1993444 0.00734519 -6.1993444 0.00734519 0 0 Z " fill="#FF8103" transform="translate(724.09375,219.8671875)"/>
<path d="M0 0 C7.02248528 5.80989398 12.65054285 13.9871414 14.1640625 23.15234375 C14.23304492 25.74608289 14.25841002 28.31044572 14.2265625 30.90234375 C14.22205078 31.59972656 14.21753906 32.29710937 14.21289062 33.015625 C14.2011627 34.72790178 14.18322903 36.44013408 14.1640625 38.15234375 C10.18491091 38.18121359 6.20578597 38.19909781 2.2265625 38.21484375 C0.52209961 38.22741211 0.52209961 38.22741211 -1.21679688 38.24023438 C-2.29638672 38.24345703 -3.37597656 38.24667969 -4.48828125 38.25 C-5.98862915 38.25785522 -5.98862915 38.25785522 -7.51928711 38.26586914 C-9.8359375 38.15234375 -9.8359375 38.15234375 -10.8359375 37.15234375 C-10.96810358 35.23740408 -11.06658236 33.32009283 -11.1484375 31.40234375 C-11.45327988 27.74423525 -11.77897385 25.28113114 -13.2734375 21.90234375 C-16.72029494 19.54839233 -19.39825614 19.63429646 -23.49609375 19.68359375 C-26.25936385 20.2371704 -27.15159196 20.92753843 -28.8359375 23.15234375 C-29.90319369 26.35411232 -29.96915409 28.66336497 -29.98120117 32.02905273 C-29.98758102 33.23718124 -29.99396088 34.44530975 -30.00053406 35.69004822 C-30.00164688 36.99631668 -30.0027597 38.30258514 -30.00390625 39.6484375 C-30.00711997 41.00220271 -30.01048413 42.35596757 -30.01399231 43.70973206 C-30.01997866 46.54681198 -30.0218327 49.38386147 -30.02124023 52.22094727 C-30.0211386 55.85371794 -30.03479463 59.48629324 -30.05201244 63.1190176 C-30.06313825 65.91487014 -30.06515927 68.71067552 -30.06463051 71.50654793 C-30.06638234 73.49627758 -30.07721862 75.48599252 -30.08818054 77.47569275 C-30.08510391 78.68697342 -30.08202728 79.89825409 -30.07885742 81.14624023 C-30.08028244 82.21196762 -30.08170746 83.27769501 -30.08317566 84.37571716 C-29.83082901 87.20971501 -29.4104241 88.80251026 -27.8359375 91.15234375 C-23.67157341 93.92858647 -20.37382716 93.28952697 -15.5234375 93.02734375 C-13.57351804 92.2291377 -13.57351804 92.2291377 -12.6484375 89.71484375 C-11.6159346 85.18771564 -11.21125312 80.78123645 -10.8359375 76.15234375 C-14.1359375 76.15234375 -17.4359375 76.15234375 -20.8359375 76.15234375 C-20.8359375 68.23234375 -20.8359375 60.31234375 -20.8359375 52.15234375 C-16.01206683 52.12943355 -11.18838361 52.10950689 -6.36450195 52.09741211 C-4.72224286 52.09237201 -3.07998827 52.08553997 -1.43774414 52.0769043 C0.91781729 52.06482449 3.27331959 52.05911236 5.62890625 52.0546875 C6.36745346 52.04952621 7.10600067 52.04436493 7.8669281 52.03904724 C9.63304338 52.03885125 11.39903396 52.09039656 13.1640625 52.15234375 C15.1319943 54.12027555 14.32796045 57.93511893 14.33203125 60.625 C14.33535965 61.38147324 14.33868805 62.13794647 14.34211731 62.91734314 C14.34719328 64.52553702 14.34952543 66.13374148 14.34936523 67.74194336 C14.35153186 70.18035861 14.36962432 72.61830673 14.38867188 75.05664062 C14.3916098 76.62109221 14.39359192 78.18554594 14.39453125 79.75 C14.40171677 80.47115494 14.40890228 81.19230988 14.41630554 81.93531799 C14.37086285 92.22864518 11.01707293 102.20597839 4.1015625 109.96484375 C-3.80281631 117.18633886 -14.37452379 119.56928415 -24.8359375 119.15234375 C-35.2834219 117.80137594 -43.93487163 113.43378322 -50.5546875 105.140625 C-55.30204191 97.77354148 -56.94889351 89.78769354 -56.98120117 81.12207031 C-56.98758102 79.9535553 -56.99396088 78.78504028 -57.00053406 77.58111572 C-57.00164688 76.33102722 -57.0027597 75.08093872 -57.00390625 73.79296875 C-57.00723465 72.49341248 -57.01056305 71.1938562 -57.01399231 69.85491943 C-57.01996335 67.10802378 -57.02183438 64.36115949 -57.02124023 61.61425781 C-57.02113891 58.12004435 -57.03476978 54.62603542 -57.05201244 51.13187027 C-57.06590813 47.76890064 -57.06522394 44.40596663 -57.06640625 41.04296875 C-57.07359177 39.80097717 -57.08077728 38.5589856 -57.08818054 37.27935791 C-57.05524417 24.63502372 -55.48454801 12.87268811 -46.5234375 3.27734375 C-34.00142847 -8.2418204 -14.13527802 -9.2093478 0 0 Z " fill="#FF8204" transform="translate(339.8359375,223.84765625)"/>
<path d="M0 0 C1.02996094 -0.00128906 2.05992187 -0.00257813 3.12109375 -0.00390625 C4.74724609 0.00189453 4.74724609 0.00189453 6.40625 0.0078125 C7.49035156 0.00394531 8.57445312 0.00007812 9.69140625 -0.00390625 C10.72136719 -0.00261719 11.75132812 -0.00132812 12.8125 0 C14.24045898 0.00169189 14.24045898 0.00169189 15.69726562 0.00341797 C17.90625 0.1328125 17.90625 0.1328125 18.90625 1.1328125 C19.01547042 3.83952533 19.06047998 6.52165775 19.06396484 9.22924805 C19.07158592 10.50248177 19.07158592 10.50248177 19.07936096 11.80143738 C19.09009019 13.65174503 19.09870028 15.50206586 19.10548019 17.3523922 C19.11723762 20.28202029 19.13668388 23.21149884 19.15859985 26.1410675 C19.2203102 34.47314464 19.27421658 42.80520879 19.30761719 51.13745117 C19.3285784 56.22859844 19.36389926 61.31947722 19.40837479 66.41047096 C19.42252993 68.35086718 19.43125613 70.29131095 19.43442917 72.23175621 C19.43934505 74.95125707 19.46252235 77.67004799 19.48974609 80.3894043 C19.48673996 81.18912659 19.48373383 81.98884888 19.4806366 82.81280518 C19.55478752 87.8077767 20.16563709 92.39219959 23.90625 96.1328125 C25.93895562 96.37102171 25.93895562 96.37102171 28.28125 96.3828125 C29.07273437 96.40859375 29.86421875 96.434375 30.6796875 96.4609375 C33.43339035 96.05512866 34.23896658 95.32176129 35.90625 93.1328125 C37.18782215 89.28809605 37.07524718 85.64614564 37.09570312 81.63818359 C37.10399643 80.77128403 37.11228973 79.90438446 37.12083435 79.01121521 C37.13823256 77.12874552 37.15340001 75.2462542 37.16661072 73.36375046 C37.18762085 70.38914044 37.21464306 67.41463966 37.24328613 64.44009399 C37.31315299 57.0546612 37.37261268 49.66915111 37.43231201 42.28363037 C37.48315208 36.04073032 37.53793871 29.79788991 37.59812927 23.55507278 C37.62479564 20.61627193 37.64555178 17.67746579 37.6661377 14.73861694 C37.68273217 12.94862601 37.69960325 11.15863762 37.71679688 9.36865234 C37.72098129 8.54474503 37.72516571 7.72083771 37.72947693 6.8719635 C37.79240182 1.24666068 37.79240182 1.24666068 38.90625 0.1328125 C42.71213144 -0.11927472 46.53050456 -0.05241094 50.34375 -0.0546875 C51.95733398 -0.07305664 51.95733398 -0.07305664 53.60351562 -0.09179688 C54.63025391 -0.09373047 55.65699219 -0.09566406 56.71484375 -0.09765625 C58.13494751 -0.10381958 58.13494751 -0.10381958 59.58374023 -0.11010742 C61.90625 0.1328125 61.90625 0.1328125 63.90625 2.1328125 C64.11019311 4.90101938 64.18941987 7.56958526 64.1809082 10.33935547 C64.18601913 11.18843979 64.19113007 12.03752411 64.19639587 12.91233826 C64.21034819 15.73329638 64.20932926 18.55401135 64.20703125 21.375 C64.21091842 23.3387969 64.21525313 25.30259297 64.22001648 27.26638794 C64.2274932 31.39409092 64.22717935 35.52170844 64.22192383 39.64941406 C64.21616272 44.9125419 64.23297129 50.17531397 64.2562685 55.4383831 C64.27108894 59.50159722 64.27186569 63.56472765 64.26875877 67.62796402 C64.269269 69.56623152 64.27445 71.50450407 64.28457069 73.44274521 C64.35328855 88.46026922 64.29011927 102.49532514 53.171875 113.9140625 C43.60655439 122.54824571 33.25437465 122.83083086 20.98339844 122.31201172 C16.68223795 121.9409431 13.456317 120.49460344 9.90625 118.1328125 C9.21402344 117.7203125 8.52179688 117.3078125 7.80859375 116.8828125 C0.71178667 112.21351139 -3.42657054 105.29591582 -5.6753788 97.17650986 C-6.45246769 93.38051599 -6.36212759 89.58590422 -6.33666992 85.72509766 C-6.33856827 84.80884613 -6.34046661 83.8925946 -6.34242249 82.94857788 C-6.3461082 79.93958812 -6.33546149 76.93084306 -6.32421875 73.921875 C-6.32302609 71.82677234 -6.32257397 69.73166914 -6.3228302 67.63656616 C-6.3212694 63.2571882 -6.31300725 58.87789245 -6.29956055 54.49853516 C-6.28250824 48.87249878 -6.27874821 43.24655213 -6.27950573 37.62049294 C-6.27923458 33.30039609 -6.27376322 28.98031902 -6.26650429 24.66022873 C-6.26331367 22.58448817 -6.2613493 20.50874536 -6.26061058 18.43300247 C-6.25845474 15.54334897 -6.24972887 12.6537929 -6.23901367 9.76416016 C-6.23946686 8.89978333 -6.23992004 8.03540649 -6.24038696 7.14483643 C-6.20146891 0.00734771 -6.20146891 0.00734771 0 0 Z " fill="#FF8103" transform="translate(461.09375,219.8671875)"/>
<path d="M0 0 C3.8053125 -0.12375 3.8053125 -0.12375 7.6875 -0.25 C8.87218872 -0.30462402 8.87218872 -0.30462402 10.08081055 -0.36035156 C13.88403111 -0.41997975 15.63276724 -0.23391555 18.9375 1.87109375 C22.14932212 5.18632681 22.86051148 7.76785143 23.375 12.3125 C22.91806326 16.80571132 21.50602028 20.25011564 19 24 C15.69428083 25.65285959 12.004622 25.1005118 8.375 25.0625 C5.61125 25.041875 2.8475 25.02125 0 25 C0 16.75 0 8.5 0 0 Z " fill="#FFF9F4" transform="translate(830,291)"/>
<path d="M0 0 C2.536875 -0.103125 5.07375 -0.20625 7.6875 -0.3125 C8.47729248 -0.35802002 9.26708496 -0.40354004 10.08081055 -0.45043945 C14.2568263 -0.5322807 15.59711662 -0.33476043 18.95703125 2.45703125 C19.63121094 3.29621094 20.30539062 4.13539063 21 5 C21.33 5.33 21.66 5.66 22 6 C22.15252309 7.91240484 22.22192773 9.83172799 22.25 11.75 C22.27578125 12.79671875 22.3015625 13.8434375 22.328125 14.921875 C21.9560428 18.4123604 21.09034813 20.20635717 19 23 C15.20548348 25.52967768 12.18802503 25.22360092 7.8125 25.125 C3.9453125 25.063125 3.9453125 25.063125 0 25 C0 16.75 0 8.5 0 0 Z " fill="#FFFAF5" transform="translate(567,291)"/>
<path d="M0 0 C2.371875 -0.103125 4.74375 -0.20625 7.1875 -0.3125 C7.92508545 -0.35802002 8.6626709 -0.40354004 9.42260742 -0.45043945 C13.35619453 -0.53277652 14.85396972 -0.11951477 17.92578125 2.39453125 C21.83201012 7.30122551 21.6297966 11.88320833 21 18 C18.75946586 22.56108735 17.58950321 23.70524839 13 26 C8.71 26 4.42 26 0 26 C0 17.42 0 8.84 0 0 Z " fill="#FFFDFB" transform="translate(394,245)"/>
<path d="M0 0 C14.93590909 -0.27659091 14.93590909 -0.27659091 18 2 C20.88699005 6.26174721 20.52938291 11.0510719 20 16 C18.38727433 19.68623011 17.369675 20.75355 14 23 C10.64453125 23.1953125 10.64453125 23.1953125 6.8125 23.125 C4.564375 23.08375 2.31625 23.0425 0 23 C0 15.41 0 7.82 0 0 Z " fill="#FFFCF9" transform="translate(830,245)"/>
<path d="M0 0 C13.49162011 -0.70391061 13.49162011 -0.70391061 17.109375 0.984375 C19.87359112 3.87867188 20.34322401 7.17998143 20.5625 11 C20.32239496 15.82392849 19.15298691 18.38333855 16 22 C11.53794887 24.23102556 4.78092876 23.04346299 0 23 C0 15.41 0 7.82 0 0 Z " fill="#FFFCF9" transform="translate(567,245)"/>
<path d="M0 0 C1.9375 0.75 1.9375 0.75 3.9375 2.75 C4.1875 5.25 4.1875 5.25 3.9375 7.75 C1.9375 9.75 1.9375 9.75 -0.5 10.0625 C-3.0625 9.75 -3.0625 9.75 -4.9375 8.5625 C-6.0625 6.75 -6.0625 6.75 -5.9375 4.1875 C-4.81716727 1.06657312 -3.46815713 -0.42038268 0 0 Z " fill="#FFCFA0" transform="translate(877.0625,219.25)"/>
<path d="M0 0 C0.66 0.33 1.32 0.66 2 1 C2.125 3.375 2.125 3.375 2 6 C0 8 0 8 -2.625 8.125 C-3.40875 8.08375 -4.1925 8.0425 -5 8 C-5 5 -5 5 -4 3 C-3.34 3 -2.68 3 -2 3 C-1.67 2.34 -1.34 1.68 -1 1 C-0.67 2.32 -0.34 3.64 0 5 C0 3.35 0 1.7 0 0 Z " fill="#FFAE5C" transform="translate(879,221)"/>
</svg>
