<svg width="109" height="20" viewBox="0 0 109 20" fill="none" xmlns="http://www.w3.org/2000/svg">
<path d="M6.8 3.96344L7.15355 3.60989L6.79933 3.25567L6.44578 3.61055L6.8 3.96344ZM7.424 4.58744L7.77829 4.94026L8.13037 4.5867L7.77755 4.23389L7.424 4.58744ZM1.688 10.3474L1.33371 9.99463L0.981631 10.3482L1.33445 10.701L1.688 10.3474ZM7.424 16.0834L7.77755 16.437L8.13111 16.0834L7.77755 15.7299L7.424 16.0834ZM6.8 16.7074L6.44645 17.061L6.8 17.4145L7.15355 17.061L6.8 16.7074ZM0.44 10.3474L0.0857816 9.99455L-0.266442 10.3481L0.0864468 10.701L0.44 10.3474ZM6.44645 4.317L7.07045 4.94099L7.77755 4.23389L7.15355 3.60989L6.44645 4.317ZM7.06971 4.23463L1.33371 9.99463L2.04229 10.7003L7.77829 4.94026L7.06971 4.23463ZM1.33445 10.701L7.07045 16.437L7.77755 15.7299L2.04155 9.99389L1.33445 10.701ZM7.07045 15.7299L6.44645 16.3539L7.15355 17.061L7.77755 16.437L7.07045 15.7299ZM7.15355 16.3539L0.793553 9.99389L0.0864468 10.701L6.44645 17.061L7.15355 16.3539ZM0.794219 10.7003L7.15422 4.31633L6.44578 3.61055L0.0857816 9.99455L0.794219 10.7003ZM19.5496 17.4274L19.2183 17.802L19.2234 17.8064L19.5496 17.4274ZM17.7016 12.4834V11.9834H17.2053L17.2016 12.4798L17.7016 12.4834ZM21.6136 12.4834L22.1135 12.4922L22.1225 11.9834H21.6136V12.4834ZM22.4296 14.5714L22.755 14.1918L22.4296 14.5714ZM26.7496 14.8834L26.9961 15.3185L26.7496 14.8834ZM26.7256 12.6274L26.5268 13.0863L26.5323 13.0885L26.7256 12.6274ZM25.2856 12.1954L25.1876 12.6857L25.1955 12.6873L25.2034 12.6886L25.2856 12.1954ZM24.3976 12.0274L24.302 12.5182L24.3144 12.5206L24.3269 12.5224L24.3976 12.0274ZM21.2056 11.1634L21.0228 11.6289L21.0301 11.6316L21.2056 11.1634ZM18.9496 9.57944L18.5712 9.90625L18.9496 9.57944ZM18.9496 3.86744L19.3477 4.17L19.3506 4.16618L18.9496 3.86744ZM21.3736 2.04344L21.1917 1.5777L21.1892 1.5787L21.3736 2.04344ZM28.4776 2.25944L28.2486 2.70394L28.2514 2.70532L28.4776 2.25944ZM30.9976 4.73144L30.5596 4.97269L30.5643 4.98092L30.9976 4.73144ZM31.5496 6.26744L31.0537 6.33143L31.054 6.33352L31.5496 6.26744ZM31.6456 7.68344V8.18344H32.1456V7.68344H31.6456ZM27.7336 7.68344H27.2336V8.18344H27.7336V7.68344ZM27.0376 5.78744L26.7038 6.1598L26.7112 6.16615L27.0376 5.78744ZM23.0536 5.57144L23.32 5.99456V5.99456L23.0536 5.57144ZM23.2696 7.80344L23.4619 7.3419L23.2696 7.80344ZM25.4536 8.45144L25.347 8.94002L25.3556 8.94173L25.4536 8.45144ZM28.8136 9.29144L28.6526 9.76496L28.664 9.76851L28.8136 9.29144ZM30.9256 10.6834L30.5504 11.014L30.9256 10.6834ZM28.3096 18.4114L28.5014 18.8732L28.5049 18.8717L28.3096 18.4114ZM24.9256 18.5594C22.6787 18.5594 21.0191 18.0326 19.8758 17.0485L19.2234 17.8064C20.6082 18.9983 22.5325 19.5594 24.9256 19.5594V18.5594ZM19.8809 17.0529C18.7728 16.0727 18.1863 14.583 18.2016 12.4871L17.2016 12.4798C17.1849 14.7679 17.8305 16.5742 19.2183 17.8019L19.8809 17.0529ZM17.7016 12.9834H21.6136V11.9834H17.7016V12.9834ZM21.1137 12.4747C21.0958 13.4971 21.4047 14.3515 22.1042 14.9511L22.755 14.1918C22.3345 13.8314 22.0995 13.2938 22.1135 12.4922L21.1137 12.4747ZM22.1042 14.9511C22.7833 15.5332 23.6981 15.7914 24.7816 15.7914V14.7914C23.8492 14.7914 23.1959 14.5697 22.755 14.1918L22.1042 14.9511ZM24.7816 15.7914C25.6595 15.7914 26.4122 15.6493 26.9961 15.3185L26.5031 14.4484C26.127 14.6615 25.5677 14.7914 24.7816 14.7914V15.7914ZM26.9961 15.3185C27.6357 14.956 27.9696 14.3721 27.9696 13.6354H26.9696C26.9696 14.0187 26.8235 14.2669 26.5031 14.4484L26.9961 15.3185ZM27.9696 13.6354C27.9696 13.309 27.8804 13.002 27.6859 12.7385C27.495 12.4799 27.2267 12.2954 26.919 12.1663L26.5323 13.0885C26.7206 13.1675 26.8242 13.255 26.8813 13.3324C26.9348 13.4049 26.9696 13.4978 26.9696 13.6354H27.9696ZM26.9244 12.1687C26.4099 11.9457 25.8908 11.7894 25.3678 11.7022L25.2034 12.6886C25.6404 12.7615 26.0814 12.8932 26.5268 13.0862L26.9244 12.1687ZM25.3837 11.7052C24.9095 11.6103 24.5974 11.5509 24.4683 11.5325L24.3269 12.5224C24.4219 12.536 24.7018 12.5886 25.1876 12.6857L25.3837 11.7052ZM24.4932 11.5367C23.2806 11.3004 22.2446 11.0191 21.3812 10.6953L21.0301 11.6316C21.9586 11.9798 23.0507 12.2744 24.302 12.5182L24.4932 11.5367ZM21.3885 10.6981C20.5652 10.3746 19.8812 9.89309 19.328 9.25263L18.5712 9.90625C19.2341 10.6738 20.0541 11.2482 21.0228 11.6288L21.3885 10.6981ZM19.328 9.25263C18.8159 8.65963 18.5376 7.85711 18.5376 6.79544H17.5376C17.5376 8.03777 17.8673 9.09125 18.5712 9.90625L19.328 9.25263ZM18.5376 6.79544C18.5376 5.736 18.8153 4.87055 19.3477 4.16998L18.5515 3.5649C17.868 4.46433 17.5376 5.55089 17.5376 6.79544H18.5376ZM19.3506 4.16618C19.8995 3.42945 20.6303 2.87634 21.558 2.50819L21.1892 1.5787C20.1009 2.01055 19.2157 2.67343 18.5487 3.5687L19.3506 4.16618ZM21.5555 2.50917C22.5165 2.13381 23.5662 1.94344 24.7096 1.94344V0.943441C23.4531 0.943441 22.2788 1.15307 21.1917 1.57771L21.5555 2.50917ZM24.7096 1.94344C26.1037 1.94344 27.2777 2.20374 28.2486 2.70393L28.7066 1.81495C27.5656 1.22714 26.2276 0.943441 24.7096 0.943441V1.94344ZM28.2514 2.70532C29.2294 3.20162 29.9976 3.95207 30.5597 4.97264L31.4356 4.49024C30.7817 3.30281 29.8699 2.40526 28.7039 1.81357L28.2514 2.70532ZM30.5643 4.98092C30.8424 5.46396 30.9998 5.91337 31.0537 6.33143L32.0455 6.20345C31.9715 5.62951 31.7608 5.05492 31.4309 4.48196L30.5643 4.98092ZM31.054 6.33352C31.1152 6.79257 31.1456 7.24248 31.1456 7.68344H32.1456C32.1456 7.1964 32.112 6.70232 32.0452 6.20136L31.054 6.33352ZM31.6456 7.18344H27.7336V8.18344H31.6456V7.18344ZM28.2336 7.68344C28.2336 6.73585 27.9778 5.93779 27.3641 5.40874L26.7112 6.16615C27.0255 6.43709 27.2336 6.90303 27.2336 7.68344H28.2336ZM27.3714 5.41516C26.7759 4.88125 25.9102 4.66344 24.8776 4.66344V5.66344C25.7971 5.66344 26.3714 5.86163 26.7039 6.15973L27.3714 5.41516ZM24.8776 4.66344C24.046 4.66344 23.331 4.80597 22.7872 5.14832L23.32 5.99456C23.6403 5.79291 24.1412 5.66344 24.8776 5.66344V4.66344ZM22.7872 5.14832C22.2272 5.50093 21.9056 6.02006 21.9056 6.67544H22.9056C22.9056 6.40282 23.016 6.18596 23.32 5.99456L22.7872 5.14832ZM21.9056 6.67544C21.9056 7.03189 22.0083 7.36299 22.2247 7.64548C22.4362 7.92167 22.7334 8.12168 23.0773 8.26498L23.4619 7.3419C23.2299 7.2452 23.095 7.13722 23.0186 7.0374C22.9469 6.9439 22.9056 6.83099 22.9056 6.67544H21.9056ZM23.0773 8.26498C23.6902 8.52036 24.4494 8.7441 25.347 8.93995L25.5602 7.96293C24.6979 7.77478 24.001 7.56652 23.4619 7.3419L23.0773 8.26498ZM25.3556 8.94173C26.7873 9.22808 27.8829 9.5031 28.6527 9.76483L28.9746 8.81805C28.1444 8.53579 26.9999 8.2508 25.5517 7.96115L25.3556 8.94173ZM28.664 9.76851C29.3886 9.99586 30.0158 10.4071 30.5504 11.014L31.3008 10.3529C30.6514 9.61578 29.8706 9.09902 28.9633 8.81437L28.664 9.76851ZM30.5504 11.014C31.0371 11.5664 31.3136 12.3773 31.3136 13.5154H32.3136C32.3136 12.2216 31.9982 11.1445 31.3008 10.3529L30.5504 11.014ZM31.3136 13.5154C31.3136 14.5686 31.0235 15.4506 30.4573 16.1866L31.2499 16.7963C31.9638 15.8683 32.3136 14.7663 32.3136 13.5154H31.3136ZM30.4573 16.1866C29.8746 16.9441 29.0986 17.5336 28.1143 17.9512L28.5049 18.8717C29.6326 18.3933 30.5526 17.7028 31.2499 16.7963L30.4573 16.1866ZM28.1178 17.9497C27.1433 18.3545 26.0811 18.5594 24.9256 18.5594V19.5594C26.2022 19.5594 27.3959 19.3324 28.5014 18.8732L28.1178 17.9497ZM52.6032 18.6274V19.1274H53.3846L53.0573 18.418L52.6032 18.6274ZM36.8592 18.6274L36.4052 18.418L36.0779 19.1274H36.8592V18.6274ZM44.7313 1.56344L45.1853 1.35399L44.7313 0.369828L44.2772 1.35399L44.7313 1.56344ZM38.2513 17.7394L37.7971 17.5302L37.4704 18.2394H38.2513V17.7394ZM51.2113 17.7394V18.2394H51.9921L51.6654 17.5302L51.2113 17.7394ZM44.7313 3.67544L45.1854 3.46621L44.7313 2.48061L44.2771 3.46621L44.7313 3.67544ZM52.6032 18.1274H36.8592V19.1274H52.6032V18.1274ZM37.3133 18.8369L45.1853 1.77289L44.2772 1.35399L36.4052 18.418L37.3133 18.8369ZM44.2772 1.77289L52.1492 18.8369L53.0573 18.418L45.1853 1.35399L44.2772 1.77289ZM38.2513 18.2394H51.2113V17.2394H38.2513V18.2394ZM51.6654 17.5302L45.1854 3.46621L44.2771 3.88468L50.7571 17.9487L51.6654 17.5302ZM44.2771 3.46621L37.7971 17.5302L38.7054 17.9487L45.1854 3.88468L44.2771 3.46621ZM57.9129 1.89944V1.39944H57.4129V1.89944H57.9129ZM58.8729 1.89944L59.3082 1.65345L59.1646 1.39944H58.8729V1.89944ZM64.7049 12.2194L64.2696 12.4654L64.7058 13.2373L65.1406 12.4647L64.7049 12.2194ZM70.5129 1.89944V1.39944H70.2205L70.0771 1.65421L70.5129 1.89944ZM71.4009 1.89944H71.9009V1.39944H71.4009V1.89944ZM71.4009 18.6034V19.1034H71.9009V18.6034H71.4009ZM57.9129 18.6034H57.4129V19.1034H57.9129V18.6034ZM58.8009 17.7394H58.3009V18.2394H58.8009V17.7394ZM70.5129 17.7394V18.2394H71.0129V17.7394H70.5129ZM70.5129 3.69944H71.0129V1.80731L70.0781 3.45244L70.5129 3.69944ZM65.1129 13.2034V13.7034H65.4039L65.5476 13.4504L65.1129 13.2034ZM64.2729 13.2034L63.838 13.4501L63.9816 13.7034H64.2729V13.2034ZM58.8009 3.55544L59.2358 3.30877L58.3009 1.66036V3.55544H58.8009ZM57.9129 2.39944H58.8729V1.39944H57.9129V2.39944ZM58.4376 2.14544L64.2696 12.4654L65.1402 11.9734L59.3082 1.65345L58.4376 2.14544ZM65.1406 12.4647L70.9486 2.14467L70.0771 1.65421L64.2691 11.9742L65.1406 12.4647ZM70.5129 2.39944H71.4009V1.39944H70.5129V2.39944ZM70.9009 1.89944V18.6034H71.9009V1.89944H70.9009ZM71.4009 18.1034H57.9129V19.1034H71.4009V18.1034ZM58.4129 18.6034V1.89944H57.4129V18.6034H58.4129ZM58.8009 18.2394H70.5129V17.2394H58.8009V18.2394ZM71.0129 17.7394V3.69944H70.0129V17.7394H71.0129ZM70.0781 3.45244L64.6781 12.9564L65.5476 13.4504L70.9476 3.94644L70.0781 3.45244ZM65.1129 12.7034H64.2729V13.7034H65.1129V12.7034ZM64.7078 12.9568L59.2358 3.30877L58.366 3.80211L63.838 13.4501L64.7078 12.9568ZM58.3009 3.55544V17.7394H59.3009V3.55544H58.3009ZM78.2705 18.6274L77.8513 18.3549L77.3492 19.1274H78.2705V18.6274ZM89.8145 0.867441V0.367441H89.5432L89.3953 0.594947L89.8145 0.867441ZM90.8945 0.867441L91.3137 1.13994L91.8158 0.367441H90.8945V0.867441ZM79.3505 18.6274V19.1274H79.6218L79.7697 18.8999L79.3505 18.6274ZM78.6897 18.8999L90.2337 1.13994L89.3953 0.594947L77.8513 18.3549L78.6897 18.8999ZM89.8145 1.36744H90.8945V0.367441H89.8145V1.36744ZM90.4753 0.594947L78.9313 18.3549L79.7697 18.8999L91.3137 1.13994L90.4753 0.594947ZM79.3505 18.1274H78.2705V19.1274H79.3505V18.1274ZM107.004 10.3474L107.358 10.701L107.71 10.3482L107.358 9.99463L107.004 10.3474ZM101.268 4.58744L100.915 4.23389L100.562 4.5867L100.914 4.94026L101.268 4.58744ZM101.892 3.96344L102.246 3.61055L101.893 3.25567L101.539 3.60989L101.892 3.96344ZM108.252 10.3474L108.606 10.701L108.959 10.3481L108.606 9.99455L108.252 10.3474ZM101.892 16.7074L101.539 17.061L101.892 17.4145L102.246 17.061L101.892 16.7074ZM101.268 16.0834L100.915 15.7299L100.561 16.0834L100.915 16.437L101.268 16.0834ZM107.358 9.99463L101.622 4.23463L100.914 4.94026L106.65 10.7003L107.358 9.99463ZM101.622 4.94099L102.246 4.317L101.539 3.60989L100.915 4.23389L101.622 4.94099ZM101.538 4.31633L107.898 10.7003L108.606 9.99455L102.246 3.61055L101.538 4.31633ZM107.899 9.99389L101.539 16.3539L102.246 17.061L108.606 10.701L107.899 9.99389ZM102.246 16.3539L101.622 15.7299L100.915 16.437L101.539 17.061L102.246 16.3539ZM101.622 16.437L107.358 10.701L106.651 9.99389L100.915 15.7299L101.622 16.437Z" fill="black"/>
</svg>
